<svg width="23" height="23" viewBox="0 0 23 23" fill="none" xmlns="http://www.w3.org/2000/svg">
<path d="M19.3346 3.77818C17.7962 2.2398 15.8362 1.19215 13.7024 0.767713C11.5686 0.343276 9.35687 0.561113 7.34688 1.39368C5.3369 2.22624 3.61893 3.63614 2.41024 5.44508C1.20154 7.25402 0.556402 9.38076 0.556402 11.5563C0.556402 13.7319 1.20154 15.8587 2.41024 17.6676C3.61893 19.4766 5.3369 20.8865 7.34688 21.719C9.35687 22.5516 11.5686 22.7694 13.7024 22.345C15.8362 21.9205 17.7962 20.8729 19.3346 19.3345C21.3944 17.27 22.5513 14.4727 22.5513 11.5564C22.5513 8.63998 21.3944 5.84269 19.3346 3.77818ZM4.69331 18.4194C3.33591 17.0621 2.41152 15.3326 2.03702 13.4499C1.66251 11.5671 1.85472 9.61559 2.58934 7.84207C3.32395 6.06855 4.56798 4.5527 6.1641 3.48621C7.76023 2.41971 9.63676 1.85047 11.5564 1.85047C13.476 1.85047 15.3526 2.41971 16.9487 3.48621C18.5448 4.5527 19.7888 6.06855 20.5235 7.84207C21.2581 9.61559 21.4503 11.5671 21.0758 13.4499C20.7013 15.3326 19.7769 17.0621 18.4195 18.4194C16.5979 20.237 14.1297 21.2577 11.5564 21.2577C8.98313 21.2577 6.51494 20.237 4.69331 18.4194ZM16.4368 12.2034L12.2034 12.2034V16.4367C12.2035 16.5218 12.1869 16.606 12.1544 16.6846C12.1219 16.7632 12.0743 16.8346 12.0142 16.8948C11.9541 16.9549 11.8828 17.0027 11.8042 17.0352C11.7257 17.0678 11.6415 17.0846 11.5564 17.0846C11.4714 17.0846 11.3872 17.0678 11.3086 17.0353C11.2301 17.0027 11.1587 16.955 11.0986 16.8948C11.0385 16.8347 10.9909 16.7632 10.9584 16.6847C10.9259 16.6061 10.9093 16.5218 10.9094 16.4368L10.9094 12.2034L6.67594 12.2034C6.50447 12.2032 6.34011 12.1349 6.21894 12.0136C6.09778 11.8922 6.02973 11.7278 6.02973 11.5563C6.02974 11.3848 6.09781 11.2204 6.21899 11.0991C6.34017 10.9778 6.50455 10.9095 6.67601 10.9093L10.9094 10.9093L10.9094 6.67596C10.9093 6.59093 10.9259 6.50671 10.9584 6.42811C10.9909 6.34952 11.0385 6.2781 11.0986 6.21793C11.1587 6.15776 11.23 6.11003 11.3086 6.07746C11.3871 6.04489 11.4713 6.02812 11.5564 6.02811C11.6414 6.02811 11.7256 6.04487 11.8042 6.07743C11.8827 6.10999 11.9541 6.15771 12.0142 6.21788C12.0743 6.27804 12.1219 6.34946 12.1544 6.42805C12.1869 6.50664 12.2035 6.59086 12.2034 6.67589V10.9093H16.4369C16.6083 10.9095 16.7727 10.9778 16.8939 11.0991C17.015 11.2205 17.0831 11.3849 17.0831 11.5564C17.0831 11.7279 17.015 11.8923 16.8938 12.0136C16.7726 12.1349 16.6083 12.2032 16.4368 12.2034Z" fill="#E0E0E0"/>
</svg>
