<svg width="30" height="36" viewBox="0 0 30 36" fill="none" xmlns="http://www.w3.org/2000/svg">
<path d="M25.0824 18.8656C25.0664 15.9405 26.3895 13.7327 29.0675 12.1068C27.5691 9.9628 25.3055 8.78321 22.3167 8.55207C19.4872 8.32891 16.3948 10.2019 15.263 10.2019C14.0675 10.2019 11.3257 8.63177 9.17375 8.63177C4.72636 8.70351 0 12.1785 0 19.2481C0 21.3363 0.382572 23.4936 1.14772 25.72C2.16791 28.6451 5.85016 35.8183 9.69182 35.6987C11.7003 35.6509 13.119 34.2721 15.7333 34.2721C18.2678 34.2721 19.5829 35.6987 21.8225 35.6987C25.6961 35.6429 29.0276 29.1233 30 26.1902C24.8034 23.7434 25.0824 19.017 25.0824 18.8656ZM20.5712 5.77843C22.7471 3.19607 22.5478 0.844846 22.4841 0C20.5632 0.111583 18.3395 1.30712 17.0723 2.78162C15.6775 4.35972 14.8565 6.31243 15.0319 8.51222C17.1121 8.67163 19.009 7.60361 20.5712 5.77843Z" fill="#5E5F63"/>
</svg>
