<svg width="28" height="22" viewBox="0 0 28 22" fill="none" xmlns="http://www.w3.org/2000/svg">
<path d="M26.25 5.56245H5.45625L4.6875 1.62495C4.64367 1.41 4.52585 1.21723 4.35455 1.08019C4.18326 0.943153 3.96932 0.870524 3.75 0.874947H0V2.74995H2.98125L6.5625 20.7499C6.60633 20.9649 6.72415 21.1577 6.89545 21.2947C7.06674 21.4317 7.28067 21.5044 7.5 21.4999H24.375V19.6249H8.26875L7.5 15.8749H24.375C24.5917 15.8802 24.8036 15.8103 24.9745 15.6769C25.1454 15.5436 25.2649 15.3552 25.3125 15.1437L27.1875 6.7062C27.2189 6.56709 27.2182 6.42266 27.1854 6.28388C27.1525 6.14511 27.0885 6.01565 26.9981 5.90536C26.9077 5.79507 26.7933 5.70685 26.6637 5.64743C26.534 5.58801 26.3926 5.55894 26.25 5.56245ZM23.625 13.9999H7.14375L5.83125 7.43745H25.0781L23.625 13.9999Z" fill="#5E5F63"/>
</svg>
