<svg width="20" height="20" viewBox="0 0 20 20" fill="none" xmlns="http://www.w3.org/2000/svg">
<path d="M10 20C4.48372 20 0 15.5163 0 10C0 4.48372 4.48372 0 10 0C15.5163 0 20 4.48372 20 10C20 15.5163 15.5163 20 10 20ZM10 1.39535C5.25581 1.39535 1.39535 5.25581 1.39535 10C1.39535 14.7442 5.25581 18.6047 10 18.6047C14.7442 18.6047 18.6047 14.7442 18.6047 10C18.6047 5.25581 14.7442 1.39535 10 1.39535Z" fill="#5E5F63"/>
<path d="M15.0974 9.46063C14.9579 9.46063 14.8183 9.41402 14.6881 9.3303C11.916 7.33964 8.36251 6.90243 5.19975 8.16751C4.83696 8.30705 4.43696 8.13033 4.29742 7.77684C4.15789 7.42335 4.33463 7.01408 4.68812 6.87455C8.29739 5.44199 12.3439 5.935 15.5067 8.20472C15.823 8.42798 15.8881 8.86519 15.6648 9.18147C15.5346 9.35821 15.3207 9.46063 15.0974 9.46063Z" fill="#5E5F63"/>
<path d="M13.637 11.963C13.4975 11.963 13.358 11.9165 13.2277 11.8328C11.2556 10.4188 8.7348 10.1118 6.47428 11.0048C6.1208 11.1444 5.71149 10.9676 5.57196 10.6142C5.43242 10.2514 5.60917 9.85136 5.96266 9.71183C8.66028 8.64206 11.6835 9.01415 14.037 10.7072C14.3533 10.9304 14.4184 11.3676 14.1952 11.6839C14.0649 11.8607 13.851 11.963 13.637 11.963Z" fill="#5E5F63"/>
<path d="M12.6144 14.5581C12.4749 14.5581 12.3354 14.5117 12.2051 14.428C10.7726 13.4047 8.94001 13.1814 7.30278 13.8233C6.9493 13.9628 6.53998 13.7861 6.40045 13.4327C6.26091 13.0699 6.43766 12.6699 6.79115 12.5303C8.8749 11.7024 11.2005 11.9908 13.0144 13.2931C13.3307 13.5164 13.3958 13.9536 13.1726 14.2699C13.0516 14.4559 12.8377 14.5581 12.6144 14.5581Z" fill="#5E5F63"/>
</svg>
