<svg width="22" height="23" viewBox="0 0 22 23" fill="none" xmlns="http://www.w3.org/2000/svg">
<path d="M2.37402 1H19.7881C20.3892 1 20.8764 1.50524 20.8764 2.12854L20.8767 3.91842C20.8768 4.21784 20.7621 4.50499 20.5579 4.7167L13.5765 11.9562C13.3724 12.1679 13.2577 12.455 13.2577 12.7543V19.8707C13.2577 20.605 12.5923 21.1438 11.9054 20.9657L9.72868 20.4014C9.24414 20.2758 8.90425 19.8243 8.90425 19.3063V12.7543C8.90425 12.455 8.78958 12.1679 8.58548 11.9562L1.60442 4.71663C1.4003 4.50497 1.28564 4.21788 1.28564 3.91854V2.12868C1.28564 1.50533 1.77292 1 2.37402 1Z" stroke="#5E5F63" stroke-width="2" stroke-linecap="round" stroke-linejoin="round"/>
</svg>
