<svg width="10" height="10" viewBox="0 0 10 10" fill="none" xmlns="http://www.w3.org/2000/svg">
<path d="M9.85333 9.14624C9.89981 9.19266 9.93668 9.24778 9.96185 9.30845C9.98702 9.36913 9.99998 9.43417 10 9.49985C10 9.56554 9.9871 9.63058 9.96197 9.69128C9.93684 9.75197 9.9 9.80711 9.85356 9.85356C9.80711 9.9 9.75197 9.93684 9.69128 9.96197C9.63058 9.9871 9.56554 10 9.49985 10C9.43417 9.99998 9.36913 9.98702 9.30845 9.96185C9.24778 9.93668 9.19266 9.89981 9.14624 9.85333L4.99978 5.70687L0.853316 9.85333C0.759529 9.947 0.632386 9.9996 0.499834 9.99956C0.367283 9.99952 0.240172 9.94684 0.146444 9.85311C0.0527158 9.75939 4.15887e-05 9.63227 2.46165e-08 9.49972C-4.15395e-05 9.36717 0.0525532 9.24003 0.146222 9.14624L4.29268 4.99978L0.146222 0.853316C0.0525532 0.759529 -4.15395e-05 0.632386 2.46165e-08 0.499834C4.15887e-05 0.367283 0.0527158 0.240172 0.146444 0.146444C0.240172 0.0527158 0.367283 4.15887e-05 0.499834 2.46165e-08C0.632386 -4.15395e-05 0.759529 0.0525532 0.853316 0.146222L4.99978 4.29268L9.14624 0.146222C9.24003 0.0525532 9.36717 -4.15395e-05 9.49972 2.46165e-08C9.63227 4.15887e-05 9.75939 0.0527158 9.85311 0.146444C9.94684 0.240172 9.99952 0.367283 9.99956 0.499834C9.9996 0.632386 9.947 0.759529 9.85333 0.853316L5.70687 4.99978L9.85333 9.14624Z" fill="#121214"/>
</svg>
