<svg width="24" height="22" viewBox="0 0 24 22" fill="none" xmlns="http://www.w3.org/2000/svg">
<path d="M1.57129 11.6779H19.7855" stroke="#5E5F63" stroke-width="2" stroke-miterlimit="10" stroke-linecap="round" stroke-linejoin="round"/>
<path d="M19.7855 9.0889V17.0333C19.7534 20.2 18.9177 21 15.7356 21H5.62131C2.38561 21 1.57129 20.1668 1.57129 16.8557V9.0889C1.57129 6.08896 2.24629 5.1223 4.78557 4.96674C5.04271 4.95563 5.32132 4.94452 5.62131 4.94452H15.7356C18.9713 4.94452 19.7855 5.77785 19.7855 9.0889Z" stroke="#5E5F63" stroke-width="2" stroke-linecap="round" stroke-linejoin="round"/>
<path d="M23 5.14444V12.9111C23 15.9111 22.325 16.8778 19.7857 17.0333V9.08888C19.7857 5.77777 18.9715 4.94444 15.7358 4.94444H5.62151C5.32151 4.94444 5.04291 4.95555 4.78577 4.96666C4.81791 1.8 5.65365 1 8.83579 1H18.95C22.1857 1 23 1.83333 23 5.14444Z" stroke="#5E5F63" stroke-width="2" stroke-linecap="round" stroke-linejoin="round"/>
<path d="M5.05371 17.4556H6.89653" stroke="#5E5F63" stroke-width="2" stroke-miterlimit="10" stroke-linecap="round" stroke-linejoin="round"/>
<path d="M9.18909 17.4556H12.8748" stroke="#5E5F63" stroke-width="2" stroke-miterlimit="10" stroke-linecap="round" stroke-linejoin="round"/>
</svg>
