<svg width="22" height="25" viewBox="0 0 22 25" fill="none" xmlns="http://www.w3.org/2000/svg">
<path d="M17.6667 8.11111C17.6667 6.22512 16.9643 4.41639 15.714 3.0828C14.4638 1.7492 12.7681 1 11 1C9.23189 1 7.5362 1.7492 6.28596 3.0828C5.03571 4.41639 4.33333 6.22512 4.33333 8.11111C4.33333 16.4074 1 18.7778 1 18.7778H21C21 18.7778 17.6667 16.4074 17.6667 8.11111Z" stroke="#E0E0E0" stroke-width="2" stroke-linecap="round" stroke-linejoin="round"/>
<path d="M12.9223 22.1111C12.727 22.4479 12.4467 22.7274 12.1092 22.9217C11.7719 23.116 11.3894 23.2183 11.0001 23.2183C10.6108 23.2183 10.2283 23.116 9.89099 22.9217C9.55366 22.7274 9.27321 22.4479 9.07788 22.1111" stroke="#E0E0E0" stroke-width="2" stroke-linecap="round" stroke-linejoin="round"/>
</svg>
