<svg width="20" height="20" viewBox="0 0 20 20" fill="none" xmlns="http://www.w3.org/2000/svg">
<path d="M19.0445 7.98334L17.3334 7.43334L16.9667 6.51667L17.8223 4.92778C18.0056 4.56112 17.9445 4.07223 17.639 3.76667L16.1723 2.30001C15.8667 1.99445 15.3778 1.93334 15.0112 2.11667L13.4223 2.97223L12.5056 2.60556L11.9556 0.894451C11.8334 0.527785 11.4667 0.222229 11.039 0.222229H8.96118C8.5334 0.222229 8.16674 0.527785 8.10562 0.955562L7.55562 2.66667C7.18896 2.72778 6.8834 2.85001 6.57785 3.03334L4.98896 2.17778C4.62229 1.99445 4.1334 2.05556 3.82785 2.36112L2.36118 3.82779C2.05562 4.13334 1.99451 4.62223 2.17785 4.9889L2.97229 6.51667C2.85007 6.82223 2.72785 7.1889 2.60562 7.49445L0.894512 8.04445C0.527846 8.16667 0.22229 8.53334 0.22229 8.96112V11.0389C0.22229 11.4667 0.527846 11.8333 0.955623 11.9556L2.66673 12.5056L3.0334 13.4222L2.17785 15.0111C1.99451 15.3778 2.05562 15.8667 2.36118 16.1722L3.82785 17.6389C4.1334 17.9445 4.62229 18.0056 4.98896 17.8222L6.57785 16.9667L7.49451 17.3333L8.04451 19.1056C8.16674 19.4722 8.5334 19.7778 8.96118 19.7778H11.039C11.4667 19.7778 11.8334 19.4722 11.9556 19.1056L12.5056 17.3333L13.4223 16.9667L15.0112 17.8222C15.3778 18.0056 15.8667 17.9445 16.1723 17.6389L17.639 16.1722C17.9445 15.8667 18.0056 15.3778 17.8223 15.0111L16.9667 13.4222L17.3334 12.5056L19.1056 11.9556C19.4723 11.8333 19.7778 11.4667 19.7778 11.0389V8.96112C19.7778 8.53334 19.4723 8.10556 19.0445 7.98334ZM18.5556 10.8556L16.3556 11.5278L16.2945 11.8333C16.1112 12.2611 15.9278 12.6889 15.7445 13.1167L15.5612 13.4222L16.6612 15.4389L15.439 16.6611L13.4223 15.5611L13.1167 15.7445C12.689 15.9889 12.2612 16.1722 11.8334 16.2945L11.5278 16.3556L10.8556 18.5556H9.14451L8.47229 16.3556L8.16674 16.2945C7.73896 16.1111 7.31118 15.9278 6.8834 15.7445L6.57785 15.5611L4.56118 16.6611L3.33896 15.4389L4.43896 13.4222L4.25562 13.1167C4.01118 12.6889 3.82785 12.2611 3.70562 11.8333L3.64451 11.5278L1.44451 10.8556V9.14445L3.52229 8.53334L3.64451 8.22779C3.76673 7.7389 3.95007 7.31112 4.19451 6.88334L4.37785 6.57779L3.33896 4.56112L4.56118 3.3389L6.51674 4.4389L6.82229 4.25556C7.25007 4.01112 7.67785 3.82778 8.16674 3.70556L8.47229 3.58334L9.14451 1.44445H10.8556L11.5278 3.58334L11.8334 3.70556C12.2612 3.82778 12.689 4.01112 13.1167 4.25556L13.4223 4.4389L15.439 3.3389L16.6612 4.56112L15.5612 6.57779L15.7445 6.88334C15.989 7.31112 16.1723 7.7389 16.2945 8.16667L16.3556 8.47223L18.5556 9.14445V10.8556Z" fill="#E0E0E0"/>
</svg>
