<svg width="287" height="169" viewBox="0 0 287 169" fill="none" xmlns="http://www.w3.org/2000/svg">
<rect x="287" y="1.52588e-05" width="169" height="287" rx="10" transform="rotate(90 287 1.52588e-05)" fill="url(#paint0_linear_63_1127)"/>
<path d="M15.6184 148C15.5251 148 15.4457 147.972 15.3804 147.916C15.3244 147.851 15.2964 147.771 15.2964 147.678V146.67C15.2964 146.577 15.3244 146.502 15.3804 146.446C15.4457 146.381 15.5251 146.348 15.6184 146.348H16.6264C16.7197 146.348 16.7944 146.381 16.8504 146.446C16.9157 146.502 16.9484 146.577 16.9484 146.67V147.678C16.9484 147.771 16.9157 147.851 16.8504 147.916C16.7944 147.972 16.7197 148 16.6264 148H15.6184ZM19.1457 148C19.0524 148 18.9731 147.972 18.9077 147.916C18.8517 147.851 18.8237 147.771 18.8237 147.678V146.67C18.8237 146.577 18.8517 146.502 18.9077 146.446C18.9731 146.381 19.0524 146.348 19.1457 146.348H20.1537C20.2471 146.348 20.3217 146.381 20.3777 146.446C20.4431 146.502 20.4757 146.577 20.4757 146.67V147.678C20.4757 147.771 20.4431 147.851 20.3777 147.916C20.3217 147.972 20.2471 148 20.1537 148H19.1457ZM22.6731 148C22.5798 148 22.5004 147.972 22.4351 147.916C22.3791 147.851 22.3511 147.771 22.3511 147.678V146.67C22.3511 146.577 22.3791 146.502 22.4351 146.446C22.5004 146.381 22.5798 146.348 22.6731 146.348H23.6811C23.7744 146.348 23.8491 146.381 23.9051 146.446C23.9704 146.502 24.0031 146.577 24.0031 146.67V147.678C24.0031 147.771 23.9704 147.851 23.9051 147.916C23.8491 147.972 23.7744 148 23.6811 148H22.6731ZM29.102 148.14C28.3274 148.14 27.6694 147.986 27.128 147.678C26.5867 147.361 26.1714 146.95 25.882 146.446C25.602 145.933 25.462 145.377 25.462 144.78C25.462 144.5 25.4947 144.234 25.56 143.982C25.6347 143.721 25.7234 143.478 25.826 143.254C25.938 143.021 26.0454 142.815 26.148 142.638C26.26 142.451 26.358 142.302 26.442 142.19L29.102 138.48C29.1487 138.433 29.2047 138.377 29.27 138.312C29.3354 138.237 29.4334 138.2 29.564 138.2H30.306C30.39 138.2 30.4554 138.233 30.502 138.298C30.558 138.354 30.586 138.424 30.586 138.508C30.586 138.545 30.5814 138.583 30.572 138.62C30.5627 138.648 30.5487 138.671 30.53 138.69L28.486 141.546C28.598 141.509 28.724 141.485 28.864 141.476C29.0134 141.457 29.1534 141.448 29.284 141.448C29.7974 141.457 30.264 141.551 30.684 141.728C31.104 141.905 31.4634 142.148 31.762 142.456C32.07 142.755 32.3034 143.105 32.462 143.506C32.6207 143.898 32.7 144.318 32.7 144.766C32.7 145.354 32.56 145.905 32.28 146.418C32 146.931 31.5894 147.347 31.048 147.664C30.516 147.981 29.8674 148.14 29.102 148.14ZM29.088 146.95C29.48 146.95 29.844 146.866 30.18 146.698C30.516 146.53 30.7867 146.287 30.992 145.97C31.2067 145.643 31.314 145.247 31.314 144.78C31.314 144.304 31.2114 143.907 31.006 143.59C30.8007 143.263 30.5254 143.021 30.18 142.862C29.844 142.694 29.48 142.61 29.088 142.61C28.696 142.61 28.332 142.694 27.996 142.862C27.66 143.021 27.3847 143.263 27.17 143.59C26.9647 143.907 26.862 144.304 26.862 144.78C26.862 145.247 26.9647 145.643 27.17 145.97C27.3847 146.287 27.66 146.53 27.996 146.698C28.332 146.866 28.696 146.95 29.088 146.95ZM38.8396 148C38.7463 148 38.6669 147.972 38.6016 147.916C38.5456 147.851 38.5176 147.771 38.5176 147.678V145.662H33.9816C33.8883 145.662 33.8089 145.634 33.7436 145.578C33.6876 145.513 33.6596 145.433 33.6596 145.34V144.78C33.6596 144.743 33.6689 144.687 33.6876 144.612C33.7156 144.528 33.7576 144.444 33.8136 144.36L38.0136 138.438C38.1256 138.279 38.2983 138.2 38.5316 138.2H39.5396C39.6329 138.2 39.7076 138.233 39.7636 138.298C39.8289 138.354 39.8616 138.429 39.8616 138.522V144.444H41.1216C41.2243 144.444 41.3036 144.477 41.3596 144.542C41.4249 144.598 41.4576 144.673 41.4576 144.766V145.34C41.4576 145.433 41.4249 145.513 41.3596 145.578C41.3036 145.634 41.2289 145.662 41.1356 145.662H39.8616V147.678C39.8616 147.771 39.8289 147.851 39.7636 147.916C39.7076 147.972 39.6329 148 39.5396 148H38.8396ZM35.1576 144.472H38.5316V139.67L35.1576 144.472ZM46.0089 148.14C45.2716 148.14 44.6462 148.014 44.1329 147.762C43.6289 147.501 43.2416 147.165 42.9709 146.754C42.7096 146.343 42.5696 145.909 42.5509 145.452C42.5416 145.368 42.5649 145.303 42.6209 145.256C42.6769 145.209 42.7469 145.186 42.8309 145.186H43.5869C43.6709 145.186 43.7456 145.205 43.8109 145.242C43.8762 145.279 43.9276 145.359 43.9649 145.48C44.0582 145.825 44.2076 146.11 44.4129 146.334C44.6276 146.549 44.8702 146.707 45.1409 146.81C45.4209 146.903 45.7102 146.95 46.0089 146.95C46.4102 146.95 46.7742 146.871 47.1009 146.712C47.4369 146.544 47.7029 146.301 47.8989 145.984C48.0949 145.657 48.1929 145.265 48.1929 144.808C48.1929 144.388 48.0949 144.029 47.8989 143.73C47.7122 143.422 47.4509 143.189 47.1149 143.03C46.7882 142.862 46.4196 142.778 46.0089 142.778C45.7009 142.778 45.4489 142.815 45.2529 142.89C45.0569 142.965 44.8889 143.053 44.7489 143.156C44.6182 143.259 44.4969 143.347 44.3849 143.422C44.2822 143.497 44.1656 143.534 44.0349 143.534H43.3069C43.2229 143.534 43.1482 143.506 43.0829 143.45C43.0176 143.385 42.9896 143.31 42.9989 143.226L43.4469 138.55C43.4562 138.438 43.4889 138.354 43.5449 138.298C43.6102 138.233 43.6942 138.2 43.7969 138.2H48.6829C48.7762 138.2 48.8509 138.233 48.9069 138.298C48.9722 138.354 49.0049 138.429 49.0049 138.522V139.068C49.0049 139.171 48.9722 139.25 48.9069 139.306C48.8509 139.362 48.7762 139.39 48.6829 139.39H44.6509L44.3849 142.148C44.5156 142.064 44.7256 141.966 45.0149 141.854C45.3042 141.733 45.7009 141.672 46.2049 141.672C46.6622 141.672 47.0916 141.742 47.4929 141.882C47.9036 142.022 48.2676 142.227 48.5849 142.498C48.9022 142.769 49.1496 143.1 49.3269 143.492C49.5042 143.875 49.5929 144.318 49.5929 144.822C49.5929 145.531 49.4342 146.133 49.1169 146.628C48.8089 147.123 48.3842 147.501 47.8429 147.762C47.3109 148.014 46.6996 148.14 46.0089 148.14ZM54.4054 148.14C53.8174 148.14 53.3041 148.07 52.8654 147.93C52.4267 147.781 52.0581 147.585 51.7594 147.342C51.4607 147.099 51.2321 146.833 51.0734 146.544C50.9241 146.255 50.8447 145.956 50.8354 145.648C50.8354 145.564 50.8634 145.499 50.9194 145.452C50.9754 145.405 51.0454 145.382 51.1294 145.382H51.8154C51.8994 145.382 51.9741 145.401 52.0394 145.438C52.1047 145.475 52.1607 145.555 52.2074 145.676C52.3007 146.012 52.4594 146.273 52.6834 146.46C52.9167 146.647 53.1827 146.777 53.4814 146.852C53.7894 146.917 54.0974 146.95 54.4054 146.95C55.0494 146.95 55.5721 146.796 55.9734 146.488C56.3747 146.18 56.5754 145.727 56.5754 145.13C56.5754 144.523 56.3934 144.089 56.0294 143.828C55.6654 143.567 55.1614 143.436 54.5174 143.436H53.1874C53.0941 143.436 53.0147 143.408 52.9494 143.352C52.8934 143.296 52.8654 143.217 52.8654 143.114V142.736C52.8654 142.652 52.8794 142.582 52.9074 142.526C52.9447 142.461 52.9821 142.405 53.0194 142.358L55.7354 139.39H51.6054C51.5121 139.39 51.4327 139.362 51.3674 139.306C51.3114 139.25 51.2834 139.171 51.2834 139.068V138.536C51.2834 138.433 51.3114 138.354 51.3674 138.298C51.4327 138.233 51.5121 138.2 51.6054 138.2H57.1914C57.2941 138.2 57.3734 138.233 57.4294 138.298C57.4947 138.354 57.5274 138.433 57.5274 138.536V139.04C57.5274 139.105 57.5087 139.166 57.4714 139.222C57.4434 139.269 57.4107 139.315 57.3734 139.362L54.6714 142.372L54.8954 142.386C55.5114 142.405 56.0481 142.517 56.5054 142.722C56.9721 142.927 57.3314 143.235 57.5834 143.646C57.8447 144.047 57.9754 144.556 57.9754 145.172C57.9754 145.797 57.8214 146.334 57.5134 146.782C57.2054 147.221 56.7807 147.557 56.2394 147.79C55.6981 148.023 55.0867 148.14 54.4054 148.14Z" fill="#E0E0E0"/>
<path d="M14.584 92C14.4667 92 14.3707 91.9627 14.296 91.888C14.2213 91.8133 14.184 91.7173 14.184 91.6V81.2C14.184 81.0827 14.2213 80.9867 14.296 80.912C14.3707 80.8373 14.4667 80.8 14.584 80.8H19.336C20.2213 80.8 20.9467 80.928 21.512 81.184C22.0773 81.44 22.4933 81.8027 22.76 82.272C23.0373 82.7413 23.176 83.2907 23.176 83.92C23.176 84.3147 23.1013 84.6613 22.952 84.96C22.8133 85.2587 22.6373 85.504 22.424 85.696C22.2213 85.888 22.024 86.032 21.832 86.128C22.248 86.32 22.6107 86.64 22.92 87.088C23.24 87.5253 23.4 88.048 23.4 88.656C23.4 89.328 23.2507 89.9147 22.952 90.416C22.6533 90.9173 22.2107 91.3067 21.624 91.584C21.0373 91.8613 20.3227 92 19.48 92H14.584ZM16.728 90.128H19.176C19.6987 90.128 20.0933 89.984 20.36 89.696C20.6267 89.3973 20.76 89.0453 20.76 88.64C20.76 88.224 20.6213 87.8773 20.344 87.6C20.0773 87.312 19.688 87.168 19.176 87.168H16.728V90.128ZM16.728 85.328H19.032C19.5333 85.328 19.9067 85.2053 20.152 84.96C20.408 84.704 20.536 84.3787 20.536 83.984C20.536 83.5893 20.408 83.2747 20.152 83.04C19.9067 82.7947 19.5333 82.672 19.032 82.672H16.728V85.328ZM27.581 92.16C27.0157 92.16 26.509 92.0533 26.061 91.84C25.613 91.616 25.2557 91.3173 24.989 90.944C24.7223 90.5707 24.589 90.1547 24.589 89.696C24.589 88.9387 24.893 88.3413 25.501 87.904C26.1197 87.4667 26.9303 87.168 27.933 87.008L30.029 86.704V86.416C30.029 86 29.933 85.68 29.741 85.456C29.549 85.232 29.213 85.12 28.733 85.12C28.381 85.12 28.0983 85.1893 27.885 85.328C27.6717 85.4667 27.5063 85.648 27.389 85.872C27.3037 86.0107 27.181 86.08 27.021 86.08H25.501C25.3837 86.08 25.293 86.048 25.229 85.984C25.165 85.9093 25.1383 85.824 25.149 85.728C25.149 85.5467 25.2183 85.3333 25.357 85.088C25.4957 84.8427 25.709 84.6027 25.997 84.368C26.285 84.1227 26.653 83.92 27.101 83.76C27.549 83.6 28.0983 83.52 28.749 83.52C29.421 83.52 29.997 83.6 30.477 83.76C30.957 83.92 31.341 84.144 31.629 84.432C31.917 84.72 32.1303 85.056 32.269 85.44C32.4077 85.8133 32.477 86.2187 32.477 86.656V91.6C32.477 91.7173 32.4397 91.8133 32.365 91.888C32.2903 91.9627 32.1943 92 32.077 92H30.509C30.4023 92 30.3117 91.9627 30.237 91.888C30.1623 91.8133 30.125 91.7173 30.125 91.6V91.008C29.9863 91.2107 29.7997 91.4027 29.565 91.584C29.3303 91.7547 29.0477 91.8933 28.717 92C28.397 92.1067 28.0183 92.16 27.581 92.16ZM28.221 90.496C28.573 90.496 28.8877 90.4213 29.165 90.272C29.4423 90.1227 29.661 89.8933 29.821 89.584C29.981 89.2747 30.061 88.8853 30.061 88.416V88.144L28.573 88.384C27.997 88.48 27.5757 88.624 27.309 88.816C27.0423 89.008 26.909 89.2427 26.909 89.52C26.909 89.7227 26.9677 89.8987 27.085 90.048C27.213 90.1973 27.3783 90.3093 27.581 90.384C27.7837 90.4587 27.997 90.496 28.221 90.496ZM34.8143 92C34.6969 92 34.6009 91.9627 34.5263 91.888C34.4516 91.8133 34.4143 91.7173 34.4143 91.6V81.04C34.4143 80.9227 34.4516 80.8267 34.5263 80.752C34.6009 80.6773 34.6969 80.64 34.8143 80.64H36.4143C36.5209 80.64 36.6116 80.6773 36.6863 80.752C36.7609 80.8267 36.7983 80.9227 36.7983 81.04V91.6C36.7983 91.7173 36.7609 91.8133 36.6863 91.888C36.6116 91.9627 36.5209 92 36.4143 92H34.8143ZM41.2685 92.16C40.7032 92.16 40.1965 92.0533 39.7485 91.84C39.3005 91.616 38.9432 91.3173 38.6765 90.944C38.4098 90.5707 38.2765 90.1547 38.2765 89.696C38.2765 88.9387 38.5805 88.3413 39.1885 87.904C39.8072 87.4667 40.6178 87.168 41.6205 87.008L43.7165 86.704V86.416C43.7165 86 43.6205 85.68 43.4285 85.456C43.2365 85.232 42.9005 85.12 42.4205 85.12C42.0685 85.12 41.7858 85.1893 41.5725 85.328C41.3592 85.4667 41.1938 85.648 41.0765 85.872C40.9912 86.0107 40.8685 86.08 40.7085 86.08H39.1885C39.0712 86.08 38.9805 86.048 38.9165 85.984C38.8525 85.9093 38.8258 85.824 38.8365 85.728C38.8365 85.5467 38.9058 85.3333 39.0445 85.088C39.1832 84.8427 39.3965 84.6027 39.6845 84.368C39.9725 84.1227 40.3405 83.92 40.7885 83.76C41.2365 83.6 41.7858 83.52 42.4365 83.52C43.1085 83.52 43.6845 83.6 44.1645 83.76C44.6445 83.92 45.0285 84.144 45.3165 84.432C45.6045 84.72 45.8178 85.056 45.9565 85.44C46.0952 85.8133 46.1645 86.2187 46.1645 86.656V91.6C46.1645 91.7173 46.1272 91.8133 46.0525 91.888C45.9778 91.9627 45.8818 92 45.7645 92H44.1965C44.0898 92 43.9992 91.9627 43.9245 91.888C43.8498 91.8133 43.8125 91.7173 43.8125 91.6V91.008C43.6738 91.2107 43.4872 91.4027 43.2525 91.584C43.0178 91.7547 42.7352 91.8933 42.4045 92C42.0845 92.1067 41.7058 92.16 41.2685 92.16ZM41.9085 90.496C42.2605 90.496 42.5752 90.4213 42.8525 90.272C43.1298 90.1227 43.3485 89.8933 43.5085 89.584C43.6685 89.2747 43.7485 88.8853 43.7485 88.416V88.144L42.2605 88.384C41.6845 88.48 41.2632 88.624 40.9965 88.816C40.7298 89.008 40.5965 89.2427 40.5965 89.52C40.5965 89.7227 40.6552 89.8987 40.7725 90.048C40.9005 90.1973 41.0658 90.3093 41.2685 90.384C41.4712 90.4587 41.6845 90.496 41.9085 90.496ZM48.4858 92C48.3791 92 48.2884 91.9627 48.2138 91.888C48.1391 91.8133 48.1018 91.7173 48.1018 91.6V84.08C48.1018 83.9627 48.1391 83.8667 48.2138 83.792C48.2884 83.7173 48.3791 83.68 48.4858 83.68H50.0538C50.1711 83.68 50.2671 83.7173 50.3418 83.792C50.4164 83.8667 50.4538 83.9627 50.4538 84.08V84.704C50.7311 84.3627 51.0884 84.08 51.5258 83.856C51.9631 83.632 52.4964 83.52 53.1258 83.52C53.7551 83.52 54.3044 83.664 54.7738 83.952C55.2538 84.2293 55.6271 84.64 55.8938 85.184C56.1711 85.7173 56.3098 86.368 56.3098 87.136V91.6C56.3098 91.7173 56.2671 91.8133 56.1818 91.888C56.1071 91.9627 56.0164 92 55.9097 92H54.2138C54.0964 92 54.0004 91.9627 53.9258 91.888C53.8511 91.8133 53.8138 91.7173 53.8138 91.6V87.232C53.8138 86.6667 53.6751 86.2293 53.3978 85.92C53.1311 85.6 52.7364 85.44 52.2138 85.44C51.7124 85.44 51.3124 85.6 51.0138 85.92C50.7151 86.2293 50.5658 86.6667 50.5658 87.232V91.6C50.5658 91.7173 50.5284 91.8133 50.4538 91.888C50.3791 91.9627 50.2884 92 50.1818 92H48.4858ZM61.9227 92.16C61.1441 92.16 60.4561 92.016 59.8588 91.728C59.2721 91.44 58.8081 91.024 58.4668 90.48C58.1254 89.9253 57.9388 89.264 57.9068 88.496C57.8961 88.3253 57.8908 88.112 57.8908 87.856C57.8908 87.5893 57.8961 87.3707 57.9068 87.2C57.9388 86.4213 58.1201 85.76 58.4508 85.216C58.7921 84.6613 59.2614 84.24 59.8588 83.952C60.4561 83.664 61.1441 83.52 61.9227 83.52C62.6374 83.52 63.2454 83.6213 63.7468 83.824C64.2481 84.016 64.6588 84.2613 64.9788 84.56C65.2988 84.8587 65.5334 85.1733 65.6828 85.504C65.8428 85.824 65.9281 86.1067 65.9388 86.352C65.9494 86.4587 65.9121 86.5547 65.8268 86.64C65.7521 86.7147 65.6614 86.752 65.5548 86.752H63.8428C63.7361 86.752 63.6508 86.7253 63.5868 86.672C63.5334 86.608 63.4801 86.5227 63.4268 86.416C63.2774 86.0427 63.0854 85.776 62.8508 85.616C62.6161 85.456 62.3228 85.376 61.9708 85.376C61.4908 85.376 61.1121 85.5307 60.8348 85.84C60.5574 86.1493 60.4081 86.6293 60.3868 87.28C60.3761 87.696 60.3761 88.0747 60.3868 88.416C60.4188 89.0773 60.5681 89.5573 60.8348 89.856C61.1121 90.1547 61.4908 90.304 61.9708 90.304C62.3441 90.304 62.6428 90.224 62.8668 90.064C63.0908 89.904 63.2774 89.6373 63.4268 89.264C63.4694 89.1573 63.5228 89.0773 63.5868 89.024C63.6508 88.96 63.7361 88.928 63.8428 88.928H65.5548C65.6614 88.928 65.7521 88.9707 65.8268 89.056C65.9121 89.1307 65.9494 89.2213 65.9388 89.328C65.9281 89.5093 65.8748 89.7227 65.7788 89.968C65.6934 90.2133 65.5494 90.464 65.3468 90.72C65.1548 90.976 64.9041 91.216 64.5948 91.44C64.2854 91.6533 63.9068 91.8293 63.4588 91.968C63.0214 92.096 62.5094 92.16 61.9227 92.16ZM71.22 92.16C69.9933 92.16 69.0173 91.8187 68.292 91.136C67.5773 90.4533 67.1987 89.4613 67.156 88.16C67.156 88.0747 67.156 87.9627 67.156 87.824C67.156 87.6747 67.156 87.5573 67.156 87.472C67.1987 86.6507 67.3853 85.9467 67.716 85.36C68.0467 84.7627 68.5107 84.3093 69.108 84C69.7053 83.68 70.404 83.52 71.204 83.52C72.1 83.52 72.8467 83.7067 73.444 84.08C74.052 84.4427 74.5053 84.944 74.804 85.584C75.1133 86.2133 75.268 86.9387 75.268 87.76V88.128C75.268 88.2347 75.2253 88.3253 75.14 88.4C75.0653 88.4747 74.9747 88.512 74.868 88.512H69.636C69.636 88.5227 69.636 88.544 69.636 88.576C69.636 88.5973 69.636 88.6187 69.636 88.64C69.6467 88.9813 69.7107 89.296 69.828 89.584C69.956 89.8613 70.132 90.0853 70.356 90.256C70.5907 90.4267 70.868 90.512 71.188 90.512C71.4547 90.512 71.6733 90.4747 71.844 90.4C72.0147 90.3253 72.1533 90.2347 72.26 90.128C72.3773 90.0213 72.4627 89.9307 72.516 89.856C72.612 89.7493 72.6867 89.6853 72.74 89.664C72.804 89.632 72.9 89.616 73.028 89.616H74.692C74.7987 89.616 74.884 89.648 74.948 89.712C75.0227 89.7653 75.0547 89.8453 75.044 89.952C75.0333 90.1227 74.9427 90.336 74.772 90.592C74.612 90.8373 74.372 91.0827 74.052 91.328C73.732 91.5627 73.332 91.76 72.852 91.92C72.3827 92.08 71.8387 92.16 71.22 92.16ZM69.636 87.056H72.772V87.024C72.772 86.64 72.708 86.3093 72.58 86.032C72.4627 85.744 72.2867 85.52 72.052 85.36C71.8173 85.2 71.5347 85.12 71.204 85.12C70.8733 85.12 70.5907 85.2 70.356 85.36C70.1213 85.52 69.94 85.744 69.812 86.032C69.6947 86.3093 69.636 86.64 69.636 87.024V87.056ZM77.2194 86.4C77.102 86.4 77.006 86.3627 76.9314 86.288C76.8567 86.2133 76.8194 86.1173 76.8194 86V84.288C76.8194 84.1707 76.8567 84.0747 76.9314 84C77.006 83.9253 77.102 83.888 77.2194 83.888H79.0114C79.1287 83.888 79.2247 83.9253 79.2994 84C79.374 84.0747 79.4114 84.1707 79.4114 84.288V86C79.4114 86.1173 79.374 86.2133 79.2994 86.288C79.2247 86.3627 79.1287 86.4 79.0114 86.4H77.2194ZM77.2194 92C77.102 92 77.006 91.9627 76.9314 91.888C76.8567 91.8133 76.8194 91.7173 76.8194 91.6V89.888C76.8194 89.7707 76.8567 89.6747 76.9314 89.6C77.006 89.5253 77.102 89.488 77.2194 89.488H79.0114C79.1287 89.488 79.2247 89.5253 79.2994 89.6C79.374 89.6747 79.4114 89.7707 79.4114 89.888V91.6C79.4114 91.7173 79.374 91.8133 79.2994 91.888C79.2247 91.9627 79.1287 92 79.0114 92H77.2194ZM86.1459 92C86.0392 92 85.9432 91.9627 85.8579 91.888C85.7832 91.8133 85.7459 91.7173 85.7459 91.6V89.984H84.5619C84.4445 89.984 84.3485 89.9467 84.2739 89.872C84.1992 89.7973 84.1619 89.7067 84.1619 89.6V89.04C84.1619 88.9333 84.1992 88.8427 84.2739 88.768C84.3485 88.6933 84.4445 88.656 84.5619 88.656H85.7459V87.824H84.5619C84.4445 87.824 84.3485 87.7867 84.2739 87.712C84.1992 87.6373 84.1619 87.5413 84.1619 87.424V86.384C84.1619 86.2773 84.1992 86.1867 84.2739 86.112C84.3485 86.0373 84.4445 86 84.5619 86H85.7459V81.2C85.7459 81.0827 85.7832 80.9867 85.8579 80.912C85.9432 80.8373 86.0392 80.8 86.1459 80.8H90.5299C91.3939 80.8 92.1405 80.9333 92.7699 81.2C93.4099 81.4667 93.9059 81.872 94.2579 82.416C94.6099 82.9493 94.7859 83.616 94.7859 84.416C94.7859 85.1947 94.6099 85.8347 94.2579 86.336C93.9059 86.8373 93.4099 87.2107 92.7699 87.456C92.1405 87.7013 91.3939 87.824 90.5299 87.824H88.3699V88.656H90.7699C90.8765 88.656 90.9672 88.6933 91.0419 88.768C91.1165 88.8427 91.1539 88.9333 91.1539 89.04V89.6C91.1539 89.7067 91.1165 89.7973 91.0419 89.872C90.9672 89.9467 90.8765 89.984 90.7699 89.984H88.3699V91.6C88.3699 91.7173 88.3325 91.8133 88.2579 91.888C88.1832 91.9627 88.0872 92 87.9699 92H86.1459ZM88.3379 86H90.4499C90.9832 86 91.3992 85.8667 91.6979 85.6C92.0072 85.3333 92.1619 84.9333 92.1619 84.4C92.1619 83.9307 92.0232 83.5467 91.7459 83.248C91.4792 82.9493 91.0472 82.8 90.4499 82.8H88.3379V86ZM96.338 92C96.2207 92 96.1247 91.9627 96.05 91.888C95.9753 91.8133 95.938 91.7173 95.938 91.6V90.64C95.938 90.5547 95.9593 90.4427 96.002 90.304C96.0553 90.1547 96.1673 90.0107 96.338 89.872L98.45 87.776C99.2287 87.1787 99.858 86.672 100.338 86.256C100.829 85.84 101.191 85.4613 101.426 85.12C101.661 84.7787 101.778 84.448 101.778 84.128C101.778 83.712 101.661 83.3707 101.426 83.104C101.202 82.8267 100.834 82.688 100.322 82.688C99.9807 82.688 99.6927 82.7627 99.458 82.912C99.234 83.0507 99.058 83.2373 98.93 83.472C98.802 83.7067 98.7167 83.9627 98.674 84.24C98.642 84.3787 98.5727 84.4747 98.466 84.528C98.37 84.5813 98.2687 84.608 98.162 84.608H96.466C96.3593 84.608 96.274 84.576 96.21 84.512C96.146 84.4373 96.114 84.3573 96.114 84.272C96.1247 83.7813 96.226 83.3173 96.418 82.88C96.6207 82.4427 96.9033 82.0533 97.266 81.712C97.6287 81.3707 98.066 81.104 98.578 80.912C99.09 80.7093 99.6713 80.608 100.322 80.608C101.218 80.608 101.97 80.7573 102.578 81.056C103.186 81.344 103.645 81.744 103.954 82.256C104.263 82.768 104.418 83.36 104.418 84.032C104.418 84.544 104.311 85.0187 104.098 85.456C103.895 85.8933 103.597 86.3147 103.202 86.72C102.807 87.1147 102.338 87.5253 101.794 87.952L99.906 89.84H104.258C104.375 89.84 104.471 89.8773 104.546 89.952C104.621 90.0267 104.658 90.1227 104.658 90.24V91.6C104.658 91.7173 104.621 91.8133 104.546 91.888C104.471 91.9627 104.375 92 104.258 92H96.338ZM110.399 92.176C109.439 92.176 108.633 92.0213 107.983 91.712C107.332 91.4027 106.836 90.9973 106.495 90.496C106.164 89.9947 105.988 89.4613 105.967 88.896C105.967 88.8 105.999 88.72 106.063 88.656C106.127 88.592 106.207 88.56 106.303 88.56H108.111C108.239 88.56 108.34 88.592 108.415 88.656C108.5 88.7093 108.564 88.784 108.607 88.88C108.713 89.168 108.852 89.4027 109.023 89.584C109.204 89.7653 109.412 89.8987 109.647 89.984C109.881 90.0693 110.132 90.112 110.399 90.112C110.74 90.112 111.055 90.0427 111.343 89.904C111.631 89.7547 111.86 89.5413 112.031 89.264C112.201 88.9867 112.287 88.6453 112.287 88.24C112.287 87.888 112.207 87.5787 112.047 87.312C111.887 87.0453 111.663 86.8373 111.375 86.688C111.087 86.5387 110.761 86.464 110.399 86.464C110.121 86.464 109.892 86.496 109.711 86.56C109.54 86.624 109.396 86.704 109.279 86.8C109.161 86.8853 109.055 86.9653 108.959 87.04C108.863 87.104 108.756 87.136 108.639 87.136H106.863C106.767 87.136 106.681 87.104 106.607 87.04C106.543 86.9653 106.511 86.88 106.511 86.784L107.071 81.264C107.092 81.1147 107.145 81.0027 107.231 80.928C107.327 80.8427 107.439 80.8 107.567 80.8H113.775C113.892 80.8 113.988 80.8373 114.063 80.912C114.137 80.9867 114.175 81.0827 114.175 81.2V82.48C114.175 82.5867 114.137 82.6773 114.063 82.752C113.988 82.8267 113.892 82.864 113.775 82.864H109.151L108.911 85.216C109.124 85.0773 109.385 84.9547 109.695 84.848C110.015 84.7307 110.457 84.672 111.023 84.672C111.535 84.672 112.02 84.7573 112.479 84.928C112.948 85.088 113.364 85.328 113.727 85.648C114.089 85.968 114.372 86.352 114.575 86.8C114.788 87.2373 114.895 87.7387 114.895 88.304C114.895 89.072 114.713 89.7493 114.351 90.336C113.988 90.912 113.471 91.3653 112.799 91.696C112.127 92.016 111.327 92.176 110.399 92.176ZM116.318 93.2C116.233 93.2 116.158 93.1627 116.094 93.088C116.041 93.024 116.019 92.944 116.03 92.848L116.478 89.936C116.499 89.7973 116.553 89.6747 116.638 89.568C116.723 89.4613 116.851 89.408 117.022 89.408H118.686C118.771 89.408 118.841 89.44 118.894 89.504C118.958 89.5573 118.99 89.6267 118.99 89.712C118.99 89.776 118.979 89.84 118.958 89.904L117.838 92.768C117.795 92.8747 117.731 92.9707 117.646 93.056C117.571 93.152 117.449 93.2 117.278 93.2H116.318ZM124.969 92.16C124.201 92.16 123.54 92.0533 122.985 91.84C122.441 91.616 121.988 91.312 121.625 90.928C121.273 90.5333 121.006 90.08 120.825 89.568C120.654 89.0453 120.553 88.4907 120.521 87.904C120.51 87.616 120.5 87.296 120.489 86.944C120.489 86.5813 120.489 86.2187 120.489 85.856C120.5 85.4933 120.51 85.1627 120.521 84.864C120.542 84.2773 120.644 83.728 120.825 83.216C121.017 82.704 121.294 82.256 121.657 81.872C122.02 81.488 122.473 81.1893 123.017 80.976C123.572 80.752 124.222 80.64 124.969 80.64C125.716 80.64 126.361 80.752 126.905 80.976C127.449 81.1893 127.902 81.488 128.265 81.872C128.628 82.256 128.9 82.704 129.081 83.216C129.273 83.728 129.385 84.2773 129.417 84.864C129.428 85.1627 129.433 85.4933 129.433 85.856C129.444 86.2187 129.444 86.5813 129.433 86.944C129.433 87.296 129.428 87.616 129.417 87.904C129.385 88.4907 129.278 89.0453 129.097 89.568C128.916 90.08 128.644 90.5333 128.281 90.928C127.929 91.312 127.476 91.616 126.921 91.84C126.377 92.0533 125.726 92.16 124.969 92.16ZM124.969 90.08C125.588 90.08 126.041 89.8773 126.329 89.472C126.617 89.0667 126.772 88.5173 126.793 87.824C126.804 87.5147 126.809 87.1947 126.809 86.864C126.82 86.5333 126.82 86.2027 126.809 85.872C126.809 85.5413 126.804 85.232 126.793 84.944C126.772 84.2827 126.617 83.744 126.329 83.328C126.041 82.912 125.588 82.6987 124.969 82.688C124.34 82.6987 123.881 82.912 123.593 83.328C123.316 83.744 123.166 84.2827 123.145 84.944C123.134 85.232 123.124 85.5413 123.113 85.872C123.113 86.2027 123.113 86.5333 123.113 86.864C123.124 87.1947 123.134 87.5147 123.145 87.824C123.166 88.5173 123.321 89.0667 123.609 89.472C123.897 89.8773 124.35 90.08 124.969 90.08ZM135.657 92.16C134.889 92.16 134.227 92.0533 133.673 91.84C133.129 91.616 132.675 91.312 132.312 90.928C131.961 90.5333 131.694 90.08 131.513 89.568C131.342 89.0453 131.241 88.4907 131.209 87.904C131.198 87.616 131.187 87.296 131.177 86.944C131.177 86.5813 131.177 86.2187 131.177 85.856C131.187 85.4933 131.198 85.1627 131.209 84.864C131.23 84.2773 131.331 83.728 131.513 83.216C131.705 82.704 131.982 82.256 132.345 81.872C132.707 81.488 133.161 81.1893 133.705 80.976C134.259 80.752 134.91 80.64 135.657 80.64C136.403 80.64 137.049 80.752 137.593 80.976C138.137 81.1893 138.59 81.488 138.953 81.872C139.315 82.256 139.587 82.704 139.769 83.216C139.961 83.728 140.073 84.2773 140.105 84.864C140.115 85.1627 140.121 85.4933 140.121 85.856C140.131 86.2187 140.131 86.5813 140.121 86.944C140.121 87.296 140.115 87.616 140.105 87.904C140.073 88.4907 139.966 89.0453 139.785 89.568C139.603 90.08 139.331 90.5333 138.969 90.928C138.617 91.312 138.163 91.616 137.609 91.84C137.065 92.0533 136.414 92.16 135.657 92.16ZM135.657 90.08C136.275 90.08 136.729 89.8773 137.017 89.472C137.305 89.0667 137.459 88.5173 137.481 87.824C137.491 87.5147 137.497 87.1947 137.497 86.864C137.507 86.5333 137.507 86.2027 137.497 85.872C137.497 85.5413 137.491 85.232 137.481 84.944C137.459 84.2827 137.305 83.744 137.017 83.328C136.729 82.912 136.275 82.6987 135.657 82.688C135.027 82.6987 134.569 82.912 134.281 83.328C134.003 83.744 133.854 84.2827 133.833 84.944C133.822 85.232 133.811 85.5413 133.801 85.872C133.801 86.2027 133.801 86.5333 133.801 86.864C133.811 87.1947 133.822 87.5147 133.833 87.824C133.854 88.5173 134.009 89.0667 134.297 89.472C134.585 89.8773 135.038 90.08 135.657 90.08ZM146.344 92.16C145.576 92.16 144.915 92.0533 144.36 91.84C143.816 91.616 143.363 91.312 143 90.928C142.648 90.5333 142.381 90.08 142.2 89.568C142.029 89.0453 141.928 88.4907 141.896 87.904C141.885 87.616 141.875 87.296 141.864 86.944C141.864 86.5813 141.864 86.2187 141.864 85.856C141.875 85.4933 141.885 85.1627 141.896 84.864C141.917 84.2773 142.019 83.728 142.2 83.216C142.392 82.704 142.669 82.256 143.032 81.872C143.395 81.488 143.848 81.1893 144.392 80.976C144.947 80.752 145.597 80.64 146.344 80.64C147.091 80.64 147.736 80.752 148.28 80.976C148.824 81.1893 149.277 81.488 149.64 81.872C150.003 82.256 150.275 82.704 150.456 83.216C150.648 83.728 150.76 84.2773 150.792 84.864C150.803 85.1627 150.808 85.4933 150.808 85.856C150.819 86.2187 150.819 86.5813 150.808 86.944C150.808 87.296 150.803 87.616 150.792 87.904C150.76 88.4907 150.653 89.0453 150.472 89.568C150.291 90.08 150.019 90.5333 149.656 90.928C149.304 91.312 148.851 91.616 148.296 91.84C147.752 92.0533 147.101 92.16 146.344 92.16ZM146.344 90.08C146.963 90.08 147.416 89.8773 147.704 89.472C147.992 89.0667 148.147 88.5173 148.168 87.824C148.179 87.5147 148.184 87.1947 148.184 86.864C148.195 86.5333 148.195 86.2027 148.184 85.872C148.184 85.5413 148.179 85.232 148.168 84.944C148.147 84.2827 147.992 83.744 147.704 83.328C147.416 82.912 146.963 82.6987 146.344 82.688C145.715 82.6987 145.256 82.912 144.968 83.328C144.691 83.744 144.541 84.2827 144.52 84.944C144.509 85.232 144.499 85.5413 144.488 85.872C144.488 86.2027 144.488 86.5333 144.488 86.864C144.499 87.1947 144.509 87.5147 144.52 87.824C144.541 88.5173 144.696 89.0667 144.984 89.472C145.272 89.8773 145.725 90.08 146.344 90.08Z" fill="#E0E0E0"/>
<path d="M16.04 111.1C15.5 111.1 15.04 111.013 14.66 110.84C14.2867 110.667 14 110.443 13.8 110.17C13.6 109.897 13.4933 109.607 13.48 109.3C13.48 109.247 13.5 109.2 13.54 109.16C13.58 109.12 13.63 109.1 13.69 109.1H13.89C13.9567 109.1 14.0067 109.12 14.04 109.16C14.08 109.2 14.1033 109.247 14.11 109.3C14.1367 109.487 14.22 109.673 14.36 109.86C14.5 110.04 14.7067 110.193 14.98 110.32C15.2533 110.44 15.6067 110.5 16.04 110.5C16.6933 110.5 17.17 110.383 17.47 110.15C17.77 109.91 17.92 109.59 17.92 109.19C17.92 108.923 17.84 108.71 17.68 108.55C17.5267 108.383 17.29 108.237 16.97 108.11C16.65 107.977 16.24 107.83 15.74 107.67C15.2667 107.517 14.8767 107.36 14.57 107.2C14.2633 107.033 14.0367 106.833 13.89 106.6C13.75 106.367 13.68 106.067 13.68 105.7C13.68 105.36 13.77 105.057 13.95 104.79C14.13 104.517 14.39 104.3 14.73 104.14C15.0767 103.98 15.4967 103.9 15.99 103.9C16.3833 103.9 16.7267 103.953 17.02 104.06C17.3133 104.167 17.5567 104.31 17.75 104.49C17.9433 104.663 18.09 104.853 18.19 105.06C18.29 105.26 18.3433 105.457 18.35 105.65C18.35 105.697 18.3333 105.743 18.3 105.79C18.2667 105.83 18.2133 105.85 18.14 105.85H17.94C17.9067 105.85 17.8633 105.837 17.81 105.81C17.7633 105.783 17.7333 105.73 17.72 105.65C17.68 105.317 17.5033 105.043 17.19 104.83C16.8833 104.61 16.4833 104.5 15.99 104.5C15.4967 104.5 15.0933 104.597 14.78 104.79C14.4667 104.983 14.31 105.287 14.31 105.7C14.31 105.967 14.38 106.187 14.52 106.36C14.66 106.527 14.88 106.677 15.18 106.81C15.48 106.937 15.8667 107.077 16.34 107.23C16.84 107.39 17.2533 107.55 17.58 107.71C17.9067 107.87 18.15 108.067 18.31 108.3C18.47 108.527 18.55 108.823 18.55 109.19C18.55 109.597 18.4467 109.943 18.24 110.23C18.04 110.51 17.7533 110.727 17.38 110.88C17.0067 111.027 16.56 111.1 16.04 111.1ZM20.0947 112.9C20.028 112.9 19.9747 112.88 19.9347 112.84C19.8947 112.8 19.8747 112.747 19.8747 112.68V106.02C19.8747 105.953 19.8947 105.9 19.9347 105.86C19.9747 105.82 20.028 105.8 20.0947 105.8H20.2647C20.3314 105.8 20.3847 105.82 20.4247 105.86C20.4647 105.9 20.4847 105.953 20.4847 106.02V106.49C20.6514 106.263 20.868 106.077 21.1347 105.93C21.408 105.777 21.7514 105.7 22.1647 105.7C22.558 105.7 22.888 105.77 23.1547 105.91C23.4214 106.043 23.638 106.223 23.8047 106.45C23.9714 106.677 24.0947 106.93 24.1747 107.21C24.2547 107.49 24.298 107.777 24.3047 108.07C24.3114 108.17 24.3147 108.28 24.3147 108.4C24.3147 108.52 24.3114 108.63 24.3047 108.73C24.298 109.023 24.2547 109.31 24.1747 109.59C24.0947 109.87 23.9714 110.123 23.8047 110.35C23.638 110.577 23.4214 110.76 23.1547 110.9C22.888 111.033 22.558 111.1 22.1647 111.1C21.7514 111.1 21.408 111.023 21.1347 110.87C20.868 110.717 20.6514 110.53 20.4847 110.31V112.68C20.4847 112.747 20.4647 112.8 20.4247 112.84C20.3847 112.88 20.3314 112.9 20.2647 112.9H20.0947ZM22.1047 110.52C22.498 110.52 22.808 110.433 23.0347 110.26C23.2614 110.087 23.4247 109.86 23.5247 109.58C23.6247 109.3 23.6814 109 23.6947 108.68C23.7014 108.493 23.7014 108.307 23.6947 108.12C23.6814 107.8 23.6247 107.5 23.5247 107.22C23.4247 106.94 23.2614 106.713 23.0347 106.54C22.808 106.367 22.498 106.28 22.1047 106.28C21.7247 106.28 21.418 106.37 21.1847 106.55C20.9514 106.73 20.778 106.957 20.6647 107.23C20.558 107.497 20.498 107.767 20.4847 108.04C20.478 108.14 20.4747 108.27 20.4747 108.43C20.4747 108.59 20.478 108.72 20.4847 108.82C20.4914 109.087 20.5514 109.35 20.6647 109.61C20.7847 109.87 20.9614 110.087 21.1947 110.26C21.4347 110.433 21.738 110.52 22.1047 110.52ZM27.6052 111.1C26.9586 111.1 26.4452 110.89 26.0652 110.47C25.6852 110.043 25.4686 109.487 25.4152 108.8C25.4086 108.7 25.4052 108.567 25.4052 108.4C25.4052 108.233 25.4086 108.1 25.4152 108C25.4486 107.547 25.5552 107.147 25.7352 106.8C25.9152 106.453 26.1619 106.183 26.4752 105.99C26.7952 105.797 27.1719 105.7 27.6052 105.7C28.0719 105.7 28.4686 105.803 28.7952 106.01C29.1219 106.217 29.3719 106.513 29.5452 106.9C29.7252 107.287 29.8152 107.747 29.8152 108.28V108.43C29.8152 108.497 29.7919 108.55 29.7452 108.59C29.7052 108.63 29.6519 108.65 29.5852 108.65H26.0252C26.0252 108.65 26.0252 108.663 26.0252 108.69C26.0252 108.717 26.0252 108.737 26.0252 108.75C26.0386 109.05 26.1086 109.337 26.2352 109.61C26.3619 109.877 26.5419 110.097 26.7752 110.27C27.0086 110.437 27.2852 110.52 27.6052 110.52C27.8919 110.52 28.1286 110.477 28.3152 110.39C28.5086 110.303 28.6619 110.21 28.7752 110.11C28.8886 110.003 28.9619 109.923 28.9952 109.87C29.0552 109.783 29.1019 109.733 29.1352 109.72C29.1686 109.7 29.2219 109.69 29.2952 109.69H29.4552C29.5152 109.69 29.5652 109.71 29.6052 109.75C29.6519 109.783 29.6719 109.83 29.6652 109.89C29.6586 109.983 29.6052 110.1 29.5052 110.24C29.4119 110.373 29.2752 110.507 29.0952 110.64C28.9219 110.773 28.7086 110.883 28.4552 110.97C28.2019 111.057 27.9186 111.1 27.6052 111.1ZM26.0252 108.09H29.2052V108.05C29.2052 107.717 29.1419 107.417 29.0152 107.15C28.8886 106.883 28.7052 106.673 28.4652 106.52C28.2252 106.36 27.9386 106.28 27.6052 106.28C27.2719 106.28 26.9852 106.36 26.7452 106.52C26.5119 106.673 26.3319 106.883 26.2052 107.15C26.0852 107.417 26.0252 107.717 26.0252 108.05V108.09ZM31.3542 111C31.2876 111 31.2342 110.98 31.1942 110.94C31.1542 110.9 31.1342 110.847 31.1342 110.78V106.02C31.1342 105.953 31.1542 105.9 31.1942 105.86C31.2342 105.82 31.2876 105.8 31.3542 105.8H31.5242C31.5909 105.8 31.6442 105.82 31.6842 105.86C31.7242 105.9 31.7442 105.953 31.7442 106.02V106.49C31.9242 106.257 32.1409 106.067 32.3942 105.92C32.6542 105.773 32.9976 105.7 33.4242 105.7C33.8776 105.7 34.2542 105.8 34.5542 106C34.8609 106.193 35.0876 106.46 35.2342 106.8C35.3876 107.133 35.4642 107.513 35.4642 107.94V110.78C35.4642 110.847 35.4442 110.9 35.4042 110.94C35.3642 110.98 35.3109 111 35.2442 111H35.0742C35.0076 111 34.9542 110.98 34.9142 110.94C34.8742 110.9 34.8542 110.847 34.8542 110.78V107.99C34.8542 107.457 34.7242 107.04 34.4642 106.74C34.2042 106.433 33.8242 106.28 33.3242 106.28C32.8509 106.28 32.4676 106.433 32.1742 106.74C31.8876 107.04 31.7442 107.457 31.7442 107.99V110.78C31.7442 110.847 31.7242 110.9 31.6842 110.94C31.6442 110.98 31.5909 111 31.5242 111H31.3542ZM38.7045 111C38.3579 111 38.0845 110.927 37.8845 110.78C37.6845 110.633 37.5445 110.433 37.4645 110.18C37.3845 109.927 37.3445 109.643 37.3445 109.33V106.38H36.5645C36.4979 106.38 36.4445 106.36 36.4045 106.32C36.3645 106.28 36.3445 106.227 36.3445 106.16V106.02C36.3445 105.953 36.3645 105.9 36.4045 105.86C36.4445 105.82 36.4979 105.8 36.5645 105.8H37.3445V104.12C37.3445 104.053 37.3645 104 37.4045 103.96C37.4445 103.92 37.4979 103.9 37.5645 103.9H37.7345C37.8012 103.9 37.8545 103.92 37.8945 103.96C37.9345 104 37.9545 104.053 37.9545 104.12V105.8H39.1945C39.2612 105.8 39.3145 105.82 39.3545 105.86C39.3945 105.9 39.4145 105.953 39.4145 106.02V106.16C39.4145 106.227 39.3945 106.28 39.3545 106.32C39.3145 106.36 39.2612 106.38 39.1945 106.38H37.9545V109.29C37.9545 109.643 38.0112 109.92 38.1245 110.12C38.2445 110.32 38.4545 110.42 38.7545 110.42H39.2945C39.3612 110.42 39.4145 110.44 39.4545 110.48C39.4945 110.52 39.5145 110.573 39.5145 110.64V110.78C39.5145 110.847 39.4945 110.9 39.4545 110.94C39.4145 110.98 39.3612 111 39.2945 111H38.7045ZM40.6983 107.5C40.6316 107.5 40.5783 107.48 40.5383 107.44C40.4983 107.4 40.4783 107.347 40.4783 107.28V106.8C40.4783 106.733 40.4983 106.68 40.5383 106.64C40.5783 106.593 40.6316 106.57 40.6983 106.57H41.1783C41.2449 106.57 41.2983 106.593 41.3383 106.64C41.3849 106.68 41.4083 106.733 41.4083 106.8V107.28C41.4083 107.347 41.3849 107.4 41.3383 107.44C41.2983 107.48 41.2449 107.5 41.1783 107.5H40.6983ZM40.6983 111C40.6316 111 40.5783 110.98 40.5383 110.94C40.4983 110.9 40.4783 110.847 40.4783 110.78V110.3C40.4783 110.233 40.4983 110.18 40.5383 110.14C40.5783 110.093 40.6316 110.07 40.6983 110.07H41.1783C41.2449 110.07 41.2983 110.093 41.3383 110.14C41.3849 110.18 41.4083 110.233 41.4083 110.3V110.78C41.4083 110.847 41.3849 110.9 41.3383 110.94C41.2983 110.98 41.2449 111 41.1783 111H40.6983ZM46.0985 111C46.0318 111 45.9785 110.98 45.9385 110.94C45.8985 110.9 45.8785 110.847 45.8785 110.78V109.34H45.0985C45.0318 109.34 44.9785 109.32 44.9385 109.28C44.8985 109.24 44.8785 109.187 44.8785 109.12V108.96C44.8785 108.893 44.8985 108.84 44.9385 108.8C44.9785 108.76 45.0318 108.74 45.0985 108.74H45.8785V108.14H45.0985C45.0318 108.14 44.9785 108.12 44.9385 108.08C44.8985 108.04 44.8785 107.987 44.8785 107.92V107.76C44.8785 107.693 44.8985 107.64 44.9385 107.6C44.9785 107.56 45.0318 107.54 45.0985 107.54H45.8785V104.23C45.8785 104.157 45.8985 104.1 45.9385 104.06C45.9785 104.02 46.0318 104 46.0985 104H48.5285C48.9952 104 49.3985 104.08 49.7385 104.24C50.0852 104.393 50.3518 104.623 50.5385 104.93C50.7318 105.237 50.8285 105.617 50.8285 106.07C50.8285 106.523 50.7318 106.903 50.5385 107.21C50.3518 107.517 50.0852 107.75 49.7385 107.91C49.3985 108.063 48.9952 108.14 48.5285 108.14H46.5085V108.74H48.6985C48.7652 108.74 48.8185 108.76 48.8585 108.8C48.8985 108.84 48.9185 108.893 48.9185 108.96V109.12C48.9185 109.187 48.8985 109.24 48.8585 109.28C48.8185 109.32 48.7652 109.34 48.6985 109.34H46.5085V110.78C46.5085 110.847 46.4885 110.9 46.4485 110.94C46.4085 110.98 46.3518 111 46.2785 111H46.0985ZM46.5085 107.54H48.4785C49.0585 107.54 49.4885 107.413 49.7685 107.16C50.0552 106.907 50.1985 106.543 50.1985 106.07C50.1985 105.597 50.0552 105.233 49.7685 104.98C49.4885 104.727 49.0585 104.6 48.4785 104.6H46.5085V107.54ZM54.0227 111.1C53.536 111.1 53.1227 111.01 52.7827 110.83C52.4493 110.65 52.1927 110.42 52.0127 110.14C51.8327 109.853 51.736 109.557 51.7227 109.25C51.716 109.19 51.7327 109.143 51.7727 109.11C51.8127 109.077 51.8627 109.06 51.9227 109.06H52.1127C52.166 109.06 52.2127 109.073 52.2527 109.1C52.2993 109.127 52.336 109.19 52.3627 109.29C52.436 109.577 52.556 109.81 52.7227 109.99C52.896 110.17 53.096 110.3 53.3227 110.38C53.5493 110.46 53.7827 110.5 54.0227 110.5C54.3493 110.5 54.646 110.433 54.9127 110.3C55.186 110.167 55.4027 109.97 55.5627 109.71C55.7227 109.45 55.8027 109.133 55.8027 108.76C55.8027 108.413 55.7227 108.12 55.5627 107.88C55.4027 107.633 55.186 107.447 54.9127 107.32C54.646 107.187 54.3493 107.12 54.0227 107.12C53.776 107.12 53.5727 107.15 53.4127 107.21C53.2527 107.27 53.1193 107.34 53.0127 107.42C52.906 107.5 52.8093 107.57 52.7227 107.63C52.636 107.69 52.5393 107.72 52.4327 107.72H52.2527C52.1927 107.72 52.1393 107.7 52.0927 107.66C52.046 107.613 52.026 107.56 52.0327 107.5L52.3327 104.23C52.3393 104.157 52.3593 104.1 52.3927 104.06C52.4327 104.02 52.486 104 52.5527 104H55.8127C55.8793 104 55.9327 104.02 55.9727 104.06C56.0127 104.1 56.0327 104.153 56.0327 104.22V104.38C56.0327 104.447 56.0127 104.5 55.9727 104.54C55.9327 104.58 55.8793 104.6 55.8127 104.6H52.9427L52.7327 106.86C52.806 106.813 52.946 106.747 53.1527 106.66C53.3593 106.567 53.6493 106.52 54.0227 106.52C54.356 106.52 54.666 106.57 54.9527 106.67C55.246 106.763 55.5027 106.907 55.7227 107.1C55.9493 107.287 56.1227 107.52 56.2427 107.8C56.3693 108.073 56.4327 108.393 56.4327 108.76C56.4327 109.28 56.3227 109.713 56.1027 110.06C55.8893 110.407 55.5993 110.667 55.2327 110.84C54.8727 111.013 54.4693 111.1 54.0227 111.1ZM60.0253 111.1C59.572 111.1 59.192 111.027 58.8853 110.88C58.5853 110.733 58.342 110.533 58.1553 110.28C57.9753 110.02 57.8453 109.723 57.7653 109.39C57.6853 109.057 57.6386 108.707 57.6253 108.34C57.6253 108.16 57.622 107.977 57.6153 107.79C57.6153 107.603 57.6153 107.417 57.6153 107.23C57.622 107.037 57.6253 106.847 57.6253 106.66C57.632 106.293 57.6753 105.943 57.7553 105.61C57.842 105.277 57.9753 104.983 58.1553 104.73C58.342 104.47 58.5853 104.267 58.8853 104.12C59.192 103.973 59.572 103.9 60.0253 103.9C60.4786 103.9 60.8553 103.973 61.1553 104.12C61.462 104.267 61.7053 104.47 61.8853 104.73C62.072 104.983 62.2053 105.277 62.2853 105.61C62.372 105.943 62.4186 106.293 62.4253 106.66C62.432 106.847 62.4353 107.037 62.4353 107.23C62.4353 107.417 62.4353 107.603 62.4353 107.79C62.4353 107.977 62.432 108.16 62.4253 108.34C62.4186 108.707 62.372 109.057 62.2853 109.39C62.2053 109.723 62.072 110.02 61.8853 110.28C61.7053 110.533 61.462 110.733 61.1553 110.88C60.8553 111.027 60.4786 111.1 60.0253 111.1ZM60.0253 110.5C60.6186 110.5 61.0586 110.303 61.3453 109.91C61.632 109.517 61.782 108.977 61.7953 108.29C61.802 108.097 61.8053 107.917 61.8053 107.75C61.8053 107.577 61.8053 107.407 61.8053 107.24C61.8053 107.067 61.802 106.89 61.7953 106.71C61.782 106.037 61.632 105.5 61.3453 105.1C61.0586 104.7 60.6186 104.5 60.0253 104.5C59.4386 104.5 58.9986 104.7 58.7053 105.1C58.4186 105.5 58.2686 106.037 58.2553 106.71C58.2553 106.89 58.252 107.067 58.2453 107.24C58.2453 107.407 58.2453 107.577 58.2453 107.75C58.252 107.917 58.2553 108.097 58.2553 108.29C58.2686 108.977 58.4186 109.517 58.7053 109.91C58.9986 110.303 59.4386 110.5 60.0253 110.5ZM63.6519 111.75C63.5985 111.75 63.5585 111.73 63.5319 111.69C63.5119 111.65 63.5052 111.6 63.5119 111.54L63.7019 110.34C63.7152 110.26 63.7385 110.197 63.7719 110.15C63.8119 110.097 63.8719 110.07 63.9519 110.07H64.4019C64.4485 110.07 64.4852 110.087 64.5119 110.12C64.5385 110.153 64.5519 110.19 64.5519 110.23C64.5519 110.29 64.5385 110.35 64.5119 110.41L64.0819 111.54C64.0552 111.607 64.0219 111.657 63.9819 111.69C63.9485 111.73 63.8952 111.75 63.8219 111.75H63.6519ZM68.1894 111.1C67.736 111.1 67.356 111.027 67.0494 110.88C66.7494 110.733 66.506 110.533 66.3194 110.28C66.1394 110.02 66.0094 109.723 65.9294 109.39C65.8494 109.057 65.8027 108.707 65.7894 108.34C65.7894 108.16 65.786 107.977 65.7794 107.79C65.7794 107.603 65.7794 107.417 65.7794 107.23C65.786 107.037 65.7894 106.847 65.7894 106.66C65.796 106.293 65.8394 105.943 65.9194 105.61C66.006 105.277 66.1394 104.983 66.3194 104.73C66.506 104.47 66.7494 104.267 67.0494 104.12C67.356 103.973 67.736 103.9 68.1894 103.9C68.6427 103.9 69.0194 103.973 69.3194 104.12C69.626 104.267 69.8694 104.47 70.0494 104.73C70.236 104.983 70.3694 105.277 70.4494 105.61C70.536 105.943 70.5827 106.293 70.5894 106.66C70.596 106.847 70.5994 107.037 70.5994 107.23C70.5994 107.417 70.5994 107.603 70.5994 107.79C70.5994 107.977 70.596 108.16 70.5894 108.34C70.5827 108.707 70.536 109.057 70.4494 109.39C70.3694 109.723 70.236 110.02 70.0494 110.28C69.8694 110.533 69.626 110.733 69.3194 110.88C69.0194 111.027 68.6427 111.1 68.1894 111.1ZM68.1894 110.5C68.7827 110.5 69.2227 110.303 69.5094 109.91C69.796 109.517 69.946 108.977 69.9594 108.29C69.966 108.097 69.9694 107.917 69.9694 107.75C69.9694 107.577 69.9694 107.407 69.9694 107.24C69.9694 107.067 69.966 106.89 69.9594 106.71C69.946 106.037 69.796 105.5 69.5094 105.1C69.2227 104.7 68.7827 104.5 68.1894 104.5C67.6027 104.5 67.1627 104.7 66.8694 105.1C66.5827 105.5 66.4327 106.037 66.4194 106.71C66.4194 106.89 66.416 107.067 66.4094 107.24C66.4094 107.407 66.4094 107.577 66.4094 107.75C66.416 107.917 66.4194 108.097 66.4194 108.29C66.4327 108.977 66.5827 109.517 66.8694 109.91C67.1627 110.303 67.6027 110.5 68.1894 110.5ZM74.3515 111.1C73.8982 111.1 73.5182 111.027 73.2115 110.88C72.9115 110.733 72.6682 110.533 72.4815 110.28C72.3015 110.02 72.1715 109.723 72.0915 109.39C72.0115 109.057 71.9648 108.707 71.9515 108.34C71.9515 108.16 71.9482 107.977 71.9415 107.79C71.9415 107.603 71.9415 107.417 71.9415 107.23C71.9482 107.037 71.9515 106.847 71.9515 106.66C71.9582 106.293 72.0015 105.943 72.0815 105.61C72.1682 105.277 72.3015 104.983 72.4815 104.73C72.6682 104.47 72.9115 104.267 73.2115 104.12C73.5182 103.973 73.8982 103.9 74.3515 103.9C74.8048 103.9 75.1815 103.973 75.4815 104.12C75.7882 104.267 76.0315 104.47 76.2115 104.73C76.3982 104.983 76.5315 105.277 76.6115 105.61C76.6982 105.943 76.7448 106.293 76.7515 106.66C76.7582 106.847 76.7615 107.037 76.7615 107.23C76.7615 107.417 76.7615 107.603 76.7615 107.79C76.7615 107.977 76.7582 108.16 76.7515 108.34C76.7448 108.707 76.6982 109.057 76.6115 109.39C76.5315 109.723 76.3982 110.02 76.2115 110.28C76.0315 110.533 75.7882 110.733 75.4815 110.88C75.1815 111.027 74.8048 111.1 74.3515 111.1ZM74.3515 110.5C74.9448 110.5 75.3848 110.303 75.6715 109.91C75.9582 109.517 76.1082 108.977 76.1215 108.29C76.1282 108.097 76.1315 107.917 76.1315 107.75C76.1315 107.577 76.1315 107.407 76.1315 107.24C76.1315 107.067 76.1282 106.89 76.1215 106.71C76.1082 106.037 75.9582 105.5 75.6715 105.1C75.3848 104.7 74.9448 104.5 74.3515 104.5C73.7648 104.5 73.3248 104.7 73.0315 105.1C72.7448 105.5 72.5948 106.037 72.5815 106.71C72.5815 106.89 72.5782 107.067 72.5715 107.24C72.5715 107.407 72.5715 107.577 72.5715 107.75C72.5782 107.917 72.5815 108.097 72.5815 108.29C72.5948 108.977 72.7448 109.517 73.0315 109.91C73.3248 110.303 73.7648 110.5 74.3515 110.5ZM80.5136 111.1C80.0603 111.1 79.6803 111.027 79.3736 110.88C79.0736 110.733 78.8303 110.533 78.6436 110.28C78.4636 110.02 78.3336 109.723 78.2536 109.39C78.1736 109.057 78.1269 108.707 78.1136 108.34C78.1136 108.16 78.1103 107.977 78.1036 107.79C78.1036 107.603 78.1036 107.417 78.1036 107.23C78.1103 107.037 78.1136 106.847 78.1136 106.66C78.1203 106.293 78.1636 105.943 78.2436 105.61C78.3303 105.277 78.4636 104.983 78.6436 104.73C78.8303 104.47 79.0736 104.267 79.3736 104.12C79.6803 103.973 80.0603 103.9 80.5136 103.9C80.9669 103.9 81.3436 103.973 81.6436 104.12C81.9503 104.267 82.1936 104.47 82.3736 104.73C82.5603 104.983 82.6936 105.277 82.7736 105.61C82.8603 105.943 82.9069 106.293 82.9136 106.66C82.9203 106.847 82.9236 107.037 82.9236 107.23C82.9236 107.417 82.9236 107.603 82.9236 107.79C82.9236 107.977 82.9203 108.16 82.9136 108.34C82.9069 108.707 82.8603 109.057 82.7736 109.39C82.6936 109.723 82.5603 110.02 82.3736 110.28C82.1936 110.533 81.9503 110.733 81.6436 110.88C81.3436 111.027 80.9669 111.1 80.5136 111.1ZM80.5136 110.5C81.1069 110.5 81.5469 110.303 81.8336 109.91C82.1203 109.517 82.2703 108.977 82.2836 108.29C82.2903 108.097 82.2936 107.917 82.2936 107.75C82.2936 107.577 82.2936 107.407 82.2936 107.24C82.2936 107.067 82.2903 106.89 82.2836 106.71C82.2703 106.037 82.1203 105.5 81.8336 105.1C81.5469 104.7 81.1069 104.5 80.5136 104.5C79.9269 104.5 79.4869 104.7 79.1936 105.1C78.9069 105.5 78.7569 106.037 78.7436 106.71C78.7436 106.89 78.7403 107.067 78.7336 107.24C78.7336 107.407 78.7336 107.577 78.7336 107.75C78.7403 107.917 78.7436 108.097 78.7436 108.29C78.7569 108.977 78.9069 109.517 79.1936 109.91C79.4869 110.303 79.9269 110.5 80.5136 110.5Z" fill="#E0E0E0"/>
<defs>
<linearGradient id="paint0_linear_63_1127" x1="456" y1="287" x2="287" y2="2.06998e-05" gradientUnits="userSpaceOnUse">
<stop stop-color="#FF0B19"/>
<stop offset="1" stop-color="#4B4B4D"/>
</linearGradient>
</defs>
</svg>
