<svg width="22" height="17" viewBox="0 0 22 17" fill="none" xmlns="http://www.w3.org/2000/svg">
<path d="M3.99615 16.8938V15.7708C4.00939 15.5797 3.93978 15.3922 3.80507 15.256C3.67037 15.1199 3.48359 15.0483 3.2924 15.0595C3.04044 15.043 2.79946 15.1649 2.66352 15.3777C2.53958 15.1713 2.31263 15.0492 2.07207 15.0595C1.86261 15.0489 1.66321 15.1501 1.548 15.3253V15.1044H1.15869V16.8938H1.55174V15.9093C1.53482 15.7854 1.57407 15.6604 1.65879 15.5684C1.74351 15.4765 1.86486 15.4271 1.98972 15.4339C2.24801 15.4339 2.37902 15.6023 2.37902 15.9055V16.9012H2.77208V15.9093C2.75584 15.7855 2.79534 15.6609 2.8799 15.5691C2.96446 15.4774 3.08539 15.4278 3.21005 15.4339C3.47583 15.4339 3.6031 15.6023 3.6031 15.9055V16.9012L3.99615 16.8938ZM9.81145 15.1044H9.17134V14.5616H8.77829V15.1044H8.42267V15.4601H8.78577V16.2836C8.78577 16.6991 8.94674 16.9462 9.40717 16.9462C9.57919 16.9467 9.74787 16.8987 9.89381 16.8077L9.78151 16.4745C9.6771 16.5368 9.55861 16.5715 9.43712 16.5756C9.24995 16.5756 9.17883 16.4558 9.17883 16.2761V15.4601H9.8152L9.81145 15.1044ZM13.1318 15.0595C12.9384 15.0538 12.7575 15.1544 12.6601 15.3216V15.1044H12.2746V16.8938H12.6639V15.8905C12.6639 15.5948 12.7912 15.4301 13.0382 15.4301C13.1215 15.429 13.2042 15.4442 13.2815 15.475L13.4013 15.1007C13.3124 15.0689 13.2187 15.0524 13.1243 15.052L13.1318 15.0595ZM8.11197 15.2467C7.8916 15.1157 7.63824 15.0507 7.38202 15.0595C6.92907 15.0595 6.63335 15.2766 6.63335 15.6322C6.63335 15.9242 6.85046 16.1039 7.251 16.1601L7.43817 16.1863C7.65154 16.2162 7.75261 16.2724 7.75261 16.3734C7.75261 16.5119 7.61036 16.5905 7.34458 16.5905C7.1308 16.5967 6.92115 16.5308 6.74939 16.4034L6.56222 16.7066C6.789 16.8649 7.06062 16.9463 7.3371 16.9387C7.85368 16.9387 8.15315 16.6954 8.15315 16.3547C8.15315 16.0141 7.91732 15.8756 7.52801 15.8194L7.34084 15.7932C7.17239 15.7708 7.03763 15.7371 7.03763 15.6173C7.03763 15.4975 7.1649 15.4076 7.37827 15.4076C7.57549 15.4099 7.76882 15.4628 7.93978 15.5611L8.11197 15.2467ZM18.5391 15.0595C18.3457 15.0538 18.1647 15.1544 18.0674 15.3216V15.1044H17.6819V16.8938H18.0712V15.8905C18.0712 15.5948 18.1984 15.4301 18.4455 15.4301C18.5288 15.429 18.6114 15.4442 18.6888 15.475L18.8086 15.1007C18.7197 15.0689 18.626 15.0524 18.5316 15.052L18.5391 15.0595ZM13.523 15.9954C13.5136 16.2496 13.6118 16.496 13.7935 16.6742C13.9752 16.8523 14.2235 16.9456 14.4775 16.9312C14.7113 16.9431 14.941 16.867 15.1214 16.7178L14.9342 16.4034C14.7997 16.506 14.6355 16.5625 14.4663 16.5643C14.1679 16.5402 13.938 16.291 13.938 15.9916C13.938 15.6922 14.1679 15.443 14.4663 15.4189C14.6355 15.4208 14.7997 15.4772 14.9342 15.5798L15.1214 15.2654C14.941 15.1163 14.7113 15.0401 14.4775 15.052C14.2235 15.0376 13.9752 15.1309 13.7935 15.3091C13.6118 15.4872 13.5136 15.7336 13.523 15.9879V15.9954ZM17.169 15.9954V15.1044H16.7797V15.3216C16.6456 15.149 16.4366 15.0515 16.2182 15.0595C15.7014 15.0595 15.2824 15.4785 15.2824 15.9954C15.2824 16.5122 15.7014 16.9312 16.2182 16.9312C16.4366 16.9392 16.6456 16.8417 16.7797 16.6692V16.8863H17.169V15.9954ZM15.7203 15.9954C15.7376 15.7016 15.9866 15.4756 16.2806 15.4866C16.5746 15.4977 16.8059 15.7417 16.8012 16.0359C16.7964 16.3301 16.5574 16.5666 16.2631 16.5681C16.1133 16.57 15.9695 16.5092 15.8664 16.4005C15.7634 16.2917 15.7104 16.1449 15.7203 15.9954ZM11.0224 15.0595C10.5056 15.0668 10.0925 15.4916 10.0997 16.0085C10.1069 16.5253 10.5318 16.9384 11.0486 16.9312C11.3179 16.945 11.5827 16.8583 11.7917 16.6879L11.6045 16.3996C11.4567 16.5182 11.2736 16.584 11.0842 16.5868C10.8166 16.6098 10.5793 16.4157 10.5489 16.1488H11.8778C11.8778 16.1002 11.8778 16.0515 11.8778 15.9991C11.8778 15.4376 11.5297 15.0633 11.028 15.0633L11.0224 15.0595ZM11.0224 15.4076C11.1401 15.4051 11.2539 15.4495 11.3389 15.5309C11.4238 15.6124 11.4729 15.7242 11.4754 15.8419H10.5395C10.5536 15.592 10.7648 15.3991 11.0149 15.4076H11.0224ZM20.7757 15.9991V14.3857H20.4014V15.3216C20.2673 15.149 20.0583 15.0515 19.8399 15.0595C19.323 15.0595 18.9041 15.4785 18.9041 15.9954C18.9041 16.5122 19.323 16.9312 19.8399 16.9312C20.0583 16.9392 20.2673 16.8417 20.4014 16.6692V16.8863H20.7757V15.9991ZM21.4252 16.6336C21.4495 16.6333 21.4737 16.6377 21.4963 16.6467C21.5178 16.6555 21.5375 16.6682 21.5544 16.6841C21.5708 16.7003 21.5841 16.7193 21.5937 16.7403C21.6128 16.7845 21.6128 16.8346 21.5937 16.8788C21.5841 16.8998 21.5708 16.9188 21.5544 16.9349C21.5375 16.9509 21.5178 16.9636 21.4963 16.9724C21.4739 16.9823 21.4497 16.9874 21.4252 16.9873C21.3528 16.9868 21.2872 16.9445 21.2568 16.8788C21.2378 16.8346 21.2378 16.7845 21.2568 16.7403C21.2663 16.7193 21.2796 16.7003 21.2961 16.6841C21.3129 16.6682 21.3326 16.6555 21.3541 16.6467C21.3785 16.637 21.4046 16.6325 21.4308 16.6336H21.4252ZM21.4252 16.9499C21.4439 16.95 21.4624 16.9462 21.4795 16.9387C21.4956 16.9315 21.5102 16.9213 21.5225 16.9087C21.5711 16.8558 21.5711 16.7745 21.5225 16.7216C21.5102 16.7089 21.4956 16.6988 21.4795 16.6916C21.4624 16.6842 21.4439 16.6803 21.4252 16.6804C21.4065 16.6805 21.3881 16.6843 21.3709 16.6916C21.3541 16.6985 21.3388 16.7087 21.326 16.7216C21.2775 16.7745 21.2775 16.8558 21.326 16.9087C21.3389 16.9216 21.3541 16.9317 21.3709 16.9387C21.3898 16.9468 21.4103 16.9507 21.4308 16.9499H21.4252ZM21.4364 16.7272C21.4539 16.7263 21.4711 16.7316 21.4851 16.7422C21.4967 16.7518 21.503 16.7664 21.5019 16.7815C21.5025 16.794 21.4977 16.8062 21.4888 16.8151C21.478 16.825 21.4642 16.8309 21.4495 16.832L21.5038 16.8938H21.4608L21.4102 16.832H21.3934V16.8938H21.3578V16.7291L21.4364 16.7272ZM21.3953 16.759V16.8039H21.4364C21.4438 16.8061 21.4516 16.8061 21.4589 16.8039C21.4616 16.7986 21.4616 16.7924 21.4589 16.7871C21.4616 16.7818 21.4616 16.7755 21.4589 16.7702C21.4516 16.768 21.4438 16.768 21.4364 16.7702L21.3953 16.759ZM19.3364 15.9991C19.3537 15.7054 19.6026 15.4794 19.8967 15.4904C20.1907 15.5014 20.422 15.7455 20.4172 16.0397C20.4125 16.3339 20.1734 16.5703 19.8792 16.5718C19.7294 16.5737 19.5856 16.513 19.4825 16.4042C19.3794 16.2955 19.3265 16.1486 19.3364 15.9991ZM6.19163 15.9991V15.1044H5.80232V15.3216C5.6682 15.149 5.45924 15.0515 5.24082 15.0595C4.72397 15.0595 4.30498 15.4785 4.30498 15.9954C4.30498 16.5122 4.72397 16.9312 5.24082 16.9312C5.45924 16.9392 5.6682 16.8417 5.80232 16.6692V16.8863H6.19163V15.9991ZM4.74295 15.9991C4.76026 15.7054 5.00919 15.4794 5.30322 15.4904C5.59725 15.5014 5.82853 15.7455 5.82377 16.0397C5.81902 16.3339 5.57997 16.5703 5.28574 16.5718C5.13527 16.5748 4.99047 16.5145 4.88657 16.4056C4.78268 16.2967 4.72922 16.1493 4.73921 15.9991H4.74295Z" fill="#171719"/>
<path d="M21.1892 11.0321V10.7402H21.2772V10.6798H21.0544V10.7402H21.1499V11.0321H21.1892ZM21.6216 11.0321V10.6798H21.5542L21.4756 10.9315L21.397 10.6798H21.3371V11.0321H21.3857V10.7679L21.4587 10.9969H21.5093L21.5823 10.7679V11.0346L21.6216 11.0321Z" fill="#171719"/>
<path d="M10.3977 12.2256C10.4509 12.2701 10.5077 12.3147 10.5637 12.3583C9.48475 13.0702 8.1895 13.4839 6.79892 13.4839C3.04333 13.4848 0 10.4663 0 6.74239C0 3.01935 3.04333 0 6.798 0C8.1895 0 9.48475 0.414581 10.5609 1.12555C10.5059 1.17192 10.4509 1.21465 10.4097 1.26193C8.8 2.64113 7.87875 4.64039 7.87875 6.74239C7.87875 8.84348 8.79633 10.8427 10.3977 12.2256ZM15.202 0C13.8087 0 12.5152 0.414581 11.4391 1.12555C11.4941 1.17192 11.5491 1.21465 11.5903 1.26193C13.2 2.64113 14.1212 4.64039 14.1212 6.74239C14.1212 8.84257 13.2037 10.84 11.6023 12.2256C11.5491 12.2701 11.4923 12.3147 11.4363 12.3583C12.5153 13.0702 13.8087 13.4839 15.2011 13.4839C18.9567 13.4848 22 10.4663 22 6.74239C22 3.02026 18.9567 0 15.202 0ZM11 1.44558C10.912 1.51376 10.8267 1.58195 10.7433 1.6556C9.30967 2.89115 8.40492 4.7104 8.40492 6.74239C8.40492 8.77529 9.30967 10.5936 10.7433 11.8292C10.8258 11.9019 10.9129 11.9728 11 12.0401C11.088 11.9728 11.1732 11.9019 11.2567 11.8292C12.6894 10.5936 13.5951 8.77529 13.5951 6.74239C13.5951 4.7104 12.6903 2.89115 11.2567 1.6556C11.1742 1.58286 11.088 1.51376 11 1.44558Z" fill="#171719"/>
</svg>
