<svg width="30" height="27" viewBox="0 0 30 27" fill="none" xmlns="http://www.w3.org/2000/svg">
<path d="M25.1243 1.89658L9.68782 10.772L2.18852 6.44203M22.4345 1L9.68782 8.34639L3.72452 4.95468M27.119 3.32833L9.68782 13.3645L1.24329 8.541" stroke="black" stroke-width="0.986901" stroke-linecap="round" stroke-linejoin="round"/>
<path d="M28.7245 7.18571C29.2412 8.64519 29.5022 10.1829 29.4959 11.7312C29.4981 13.3017 29.2373 14.8616 28.7245 16.3461L28.377 17.2913C27.6597 18.9859 26.6266 20.5285 25.3328 21.8368C24.0346 23.1246 22.4977 24.1469 20.8082 24.8462C19.0528 25.6057 17.1606 25.9984 15.248 26C13.3348 26.0035 11.4416 25.6107 9.68779 24.8462C8.00944 24.1337 6.47948 23.1129 5.17709 21.8368C3.8625 20.5426 2.82241 18.9967 2.11899 17.2913C1.38092 15.5305 1.00054 13.6404 1 11.7312V10.7859L9.68779 15.7136L27.9599 5.22575L28.7245 7.18571Z" stroke="black" stroke-width="0.986901" stroke-linecap="round" stroke-linejoin="round"/>
</svg>
