<svg width="287" height="169" viewBox="0 0 287 169" fill="none" xmlns="http://www.w3.org/2000/svg">
<rect x="287" y="1.52588e-05" width="169" height="287" rx="10" transform="rotate(90 287 1.52588e-05)" fill="url(#paint0_linear_63_1113)"/>
<path d="M255.946 138.413C255.416 138.215 254.584 138 253.555 138C250.922 138 249.062 139.33 249.051 141.234C249.029 142.633 250.369 143.421 251.382 143.893C252.423 144.376 252.771 144.676 252.766 145.105C252.761 145.765 251.934 146.059 251.173 146.059C250.116 146.059 249.543 145.915 248.658 145.544L248.33 145.389L247.955 147.588C248.599 147.85 249.752 148.081 250.942 148.102C253.746 148.102 255.575 146.784 255.595 144.75C255.617 143.635 254.899 142.789 253.37 142.091C252.448 141.641 251.87 141.335 251.87 140.873C251.87 140.466 252.364 140.037 253.393 140.037C254.277 140.021 254.9 140.214 255.387 140.407L255.639 140.519L256.009 138.402L255.946 138.413ZM262.789 138.182H260.73C260.087 138.182 259.609 138.354 259.325 138.992L255.368 147.962H258.167L258.731 146.493L262.146 146.499C262.231 146.841 262.472 147.961 262.472 147.961H264.944L262.789 138.182ZM245.26 138.102H247.925L246.258 147.886H243.592L245.26 138.097V138.102ZM238.483 143.49L238.756 144.852L241.366 138.182H244.192L239.988 147.946H237.174L234.868 139.678C234.82 139.534 234.761 139.436 234.616 139.352C233.839 138.944 232.965 138.612 232 138.381L232.032 138.176H236.332C236.912 138.198 237.383 138.381 237.544 139.003L238.483 143.495V143.49ZM259.491 144.493L260.558 141.754C260.542 141.779 260.778 141.19 260.911 140.82L261.094 141.661L261.711 144.487H259.491V144.493Z" fill="#1E1E1E"/>
<path d="M37.1243 15.8966L21.6878 24.772L14.1885 20.442M34.4345 15L21.6878 22.3464L15.7245 18.9547M39.119 17.3283L21.6878 27.3645L13.2433 22.541" stroke="black" stroke-width="0.986901" stroke-linecap="round" stroke-linejoin="round"/>
<path d="M40.7245 21.1857C41.2412 22.6452 41.5022 24.1829 41.4959 25.7312C41.4981 27.3017 41.2373 28.8616 40.7245 30.3461L40.377 31.2913C39.6597 32.9859 38.6266 34.5285 37.3328 35.8368C36.0346 37.1246 34.4977 38.1469 32.8082 38.8462C31.0528 39.6057 29.1606 39.9984 27.248 40C25.3348 40.0035 23.4416 39.6107 21.6878 38.8462C20.0094 38.1337 18.4795 37.1129 17.1771 35.8368C15.8625 34.5426 14.8224 32.9967 14.119 31.2913C13.3809 29.5305 13.0005 27.6404 13 25.7312V24.7859L21.6878 29.7136L39.9599 19.2257L40.7245 21.1857Z" stroke="black" stroke-width="0.986901" stroke-linecap="round" stroke-linejoin="round"/>
<path d="M16.6155 148C16.5221 148 16.4428 147.972 16.3775 147.916C16.3215 147.851 16.2935 147.771 16.2935 147.678V146.67C16.2935 146.577 16.3215 146.502 16.3775 146.446C16.4428 146.381 16.5221 146.348 16.6155 146.348H17.6235C17.7168 146.348 17.7915 146.381 17.8475 146.446C17.9128 146.502 17.9455 146.577 17.9455 146.67V147.678C17.9455 147.771 17.9128 147.851 17.8475 147.916C17.7915 147.972 17.7168 148 17.6235 148H16.6155ZM20.1428 148C20.0495 148 19.9701 147.972 19.9048 147.916C19.8488 147.851 19.8208 147.771 19.8208 147.678V146.67C19.8208 146.577 19.8488 146.502 19.9048 146.446C19.9701 146.381 20.0495 146.348 20.1428 146.348H21.1508C21.2441 146.348 21.3188 146.381 21.3748 146.446C21.4401 146.502 21.4728 146.577 21.4728 146.67V147.678C21.4728 147.771 21.4401 147.851 21.3748 147.916C21.3188 147.972 21.2441 148 21.1508 148H20.1428ZM23.6702 148C23.5768 148 23.4975 147.972 23.4322 147.916C23.3762 147.851 23.3482 147.771 23.3482 147.678V146.67C23.3482 146.577 23.3762 146.502 23.4322 146.446C23.4975 146.381 23.5768 146.348 23.6702 146.348H24.6782C24.7715 146.348 24.8462 146.381 24.9022 146.446C24.9675 146.502 25.0002 146.577 25.0002 146.67V147.678C25.0002 147.771 24.9675 147.851 24.9022 147.916C24.8462 147.972 24.7715 148 24.6782 148H23.6702ZM26.9455 148C26.8522 148 26.7728 147.972 26.7075 147.916C26.6515 147.851 26.6235 147.771 26.6235 147.678V147.23C26.6235 147.146 26.6468 147.053 26.6935 146.95C26.7402 146.847 26.8335 146.735 26.9735 146.614L29.9415 143.646C30.4175 143.245 30.7908 142.904 31.0615 142.624C31.3415 142.335 31.5375 142.059 31.6495 141.798C31.7708 141.537 31.8315 141.266 31.8315 140.986C31.8315 140.454 31.6822 140.034 31.3835 139.726C31.0848 139.409 30.6415 139.25 30.0535 139.25C29.6802 139.25 29.3582 139.329 29.0875 139.488C28.8168 139.637 28.6022 139.847 28.4435 140.118C28.2942 140.379 28.1962 140.678 28.1495 141.014C28.1308 141.135 28.0795 141.219 27.9955 141.266C27.9208 141.313 27.8508 141.336 27.7855 141.336H27.0575C26.9735 141.336 26.9035 141.313 26.8475 141.266C26.7915 141.21 26.7635 141.145 26.7635 141.07C26.7728 140.715 26.8475 140.361 26.9875 140.006C27.1275 139.642 27.3328 139.315 27.6035 139.026C27.8835 138.737 28.2242 138.503 28.6255 138.326C29.0362 138.139 29.5122 138.046 30.0535 138.046C30.7908 138.046 31.3928 138.181 31.8595 138.452C32.3355 138.713 32.6855 139.063 32.9095 139.502C33.1335 139.941 33.2455 140.421 33.2455 140.944C33.2455 141.355 33.1755 141.733 33.0355 142.078C32.8955 142.414 32.6902 142.745 32.4195 143.072C32.1582 143.389 31.8315 143.716 31.4395 144.052L28.7515 146.782H33.1195C33.2222 146.782 33.3015 146.81 33.3575 146.866C33.4228 146.922 33.4555 147.001 33.4555 147.104V147.678C33.4555 147.771 33.4228 147.851 33.3575 147.916C33.3015 147.972 33.2222 148 33.1195 148H26.9455ZM38.0183 148C37.925 148 37.8456 147.972 37.7803 147.916C37.7243 147.851 37.6963 147.771 37.6963 147.678V139.838L35.3723 141.63C35.2976 141.686 35.2183 141.709 35.1343 141.7C35.0503 141.691 34.9803 141.649 34.9243 141.574L34.5603 141.112C34.5043 141.028 34.481 140.944 34.4903 140.86C34.509 140.776 34.5556 140.706 34.6303 140.65L37.6823 138.298C37.7476 138.251 37.8083 138.223 37.8643 138.214C37.9203 138.205 37.981 138.2 38.0463 138.2H38.7603C38.8536 138.2 38.9283 138.233 38.9843 138.298C39.0403 138.354 39.0683 138.429 39.0683 138.522V147.678C39.0683 147.771 39.0403 147.851 38.9843 147.916C38.9283 147.972 38.8536 148 38.7603 148H38.0183ZM42.8446 148C42.7606 148 42.6906 147.972 42.6346 147.916C42.5879 147.851 42.5646 147.776 42.5646 147.692C42.5646 147.645 42.5692 147.608 42.5786 147.58C42.5972 147.552 42.6112 147.529 42.6206 147.51L44.7626 144.528C44.5292 144.584 44.2772 144.612 44.0066 144.612C43.4839 144.603 43.0172 144.509 42.6066 144.332C42.1959 144.155 41.8459 143.917 41.5566 143.618C41.2672 143.31 41.0479 142.965 40.8986 142.582C40.7492 142.199 40.6746 141.798 40.6746 141.378C40.6746 140.967 40.7446 140.566 40.8846 140.174C41.0339 139.782 41.2532 139.427 41.5426 139.11C41.8412 138.793 42.2099 138.541 42.6486 138.354C43.0872 138.158 43.6052 138.06 44.2026 138.06C44.7906 138.06 45.3039 138.153 45.7426 138.34C46.1906 138.517 46.5639 138.765 46.8626 139.082C47.1706 139.39 47.3946 139.74 47.5346 140.132C47.6839 140.524 47.7586 140.93 47.7586 141.35C47.7586 141.733 47.7026 142.083 47.5906 142.4C47.4786 142.717 47.3432 143.002 47.1846 143.254C47.0352 143.506 46.8859 143.739 46.7366 143.954L44.0486 147.72C44.0112 147.767 43.9599 147.827 43.8946 147.902C43.8292 147.967 43.7312 148 43.6006 148H42.8446ZM44.2026 143.478C44.5946 143.478 44.9539 143.394 45.2806 143.226C45.6166 143.049 45.8826 142.806 46.0786 142.498C46.2746 142.181 46.3726 141.803 46.3726 141.364C46.3726 140.925 46.2746 140.552 46.0786 140.244C45.8826 139.927 45.6166 139.684 45.2806 139.516C44.9539 139.339 44.5946 139.25 44.2026 139.25C43.8199 139.25 43.4652 139.339 43.1386 139.516C42.8119 139.684 42.5506 139.927 42.3546 140.244C42.1586 140.552 42.0606 140.925 42.0606 141.364C42.0606 141.803 42.1586 142.181 42.3546 142.498C42.5506 142.806 42.8119 143.049 43.1386 143.226C43.4652 143.394 43.8199 143.478 44.2026 143.478ZM52.4083 148.14C51.8203 148.14 51.307 148.07 50.8683 147.93C50.4297 147.781 50.061 147.585 49.7623 147.342C49.4637 147.099 49.235 146.833 49.0763 146.544C48.927 146.255 48.8477 145.956 48.8383 145.648C48.8383 145.564 48.8663 145.499 48.9223 145.452C48.9783 145.405 49.0483 145.382 49.1323 145.382H49.8183C49.9023 145.382 49.977 145.401 50.0423 145.438C50.1077 145.475 50.1637 145.555 50.2103 145.676C50.3037 146.012 50.4623 146.273 50.6863 146.46C50.9197 146.647 51.1857 146.777 51.4843 146.852C51.7923 146.917 52.1003 146.95 52.4083 146.95C53.0523 146.95 53.575 146.796 53.9763 146.488C54.3777 146.18 54.5783 145.727 54.5783 145.13C54.5783 144.523 54.3963 144.089 54.0323 143.828C53.6683 143.567 53.1643 143.436 52.5203 143.436H51.1903C51.097 143.436 51.0177 143.408 50.9523 143.352C50.8963 143.296 50.8683 143.217 50.8683 143.114V142.736C50.8683 142.652 50.8823 142.582 50.9103 142.526C50.9477 142.461 50.985 142.405 51.0223 142.358L53.7383 139.39H49.6083C49.515 139.39 49.4357 139.362 49.3703 139.306C49.3143 139.25 49.2863 139.171 49.2863 139.068V138.536C49.2863 138.433 49.3143 138.354 49.3703 138.298C49.4357 138.233 49.515 138.2 49.6083 138.2H55.1943C55.297 138.2 55.3763 138.233 55.4323 138.298C55.4977 138.354 55.5303 138.433 55.5303 138.536V139.04C55.5303 139.105 55.5117 139.166 55.4743 139.222C55.4463 139.269 55.4137 139.315 55.3763 139.362L52.6743 142.372L52.8983 142.386C53.5143 142.405 54.051 142.517 54.5083 142.722C54.975 142.927 55.3343 143.235 55.5863 143.646C55.8477 144.047 55.9783 144.556 55.9783 145.172C55.9783 145.797 55.8243 146.334 55.5163 146.782C55.2083 147.221 54.7837 147.557 54.2423 147.79C53.701 148.023 53.0897 148.14 52.4083 148.14Z" fill="#171719"/>
<path d="M207 1.52588e-05H234.5L56.5 169H26L207 1.52588e-05Z" fill="url(#paint1_linear_63_1113)"/>
<path d="M238 1.52588e-05H265.5L87.5 169H57L238 1.52588e-05Z" fill="url(#paint2_linear_63_1113)"/>
<path d="M14.584 92C14.4667 92 14.3707 91.9627 14.296 91.888C14.2213 91.8133 14.184 91.7173 14.184 91.6V81.2C14.184 81.0827 14.2213 80.9867 14.296 80.912C14.3707 80.8373 14.4667 80.8 14.584 80.8H19.336C20.2213 80.8 20.9467 80.928 21.512 81.184C22.0773 81.44 22.4933 81.8027 22.76 82.272C23.0373 82.7413 23.176 83.2907 23.176 83.92C23.176 84.3147 23.1013 84.6613 22.952 84.96C22.8133 85.2587 22.6373 85.504 22.424 85.696C22.2213 85.888 22.024 86.032 21.832 86.128C22.248 86.32 22.6107 86.64 22.92 87.088C23.24 87.5253 23.4 88.048 23.4 88.656C23.4 89.328 23.2507 89.9147 22.952 90.416C22.6533 90.9173 22.2107 91.3067 21.624 91.584C21.0373 91.8613 20.3227 92 19.48 92H14.584ZM16.728 90.128H19.176C19.6987 90.128 20.0933 89.984 20.36 89.696C20.6267 89.3973 20.76 89.0453 20.76 88.64C20.76 88.224 20.6213 87.8773 20.344 87.6C20.0773 87.312 19.688 87.168 19.176 87.168H16.728V90.128ZM16.728 85.328H19.032C19.5333 85.328 19.9067 85.2053 20.152 84.96C20.408 84.704 20.536 84.3787 20.536 83.984C20.536 83.5893 20.408 83.2747 20.152 83.04C19.9067 82.7947 19.5333 82.672 19.032 82.672H16.728V85.328ZM27.581 92.16C27.0157 92.16 26.509 92.0533 26.061 91.84C25.613 91.616 25.2557 91.3173 24.989 90.944C24.7223 90.5707 24.589 90.1547 24.589 89.696C24.589 88.9387 24.893 88.3413 25.501 87.904C26.1197 87.4667 26.9303 87.168 27.933 87.008L30.029 86.704V86.416C30.029 86 29.933 85.68 29.741 85.456C29.549 85.232 29.213 85.12 28.733 85.12C28.381 85.12 28.0983 85.1893 27.885 85.328C27.6717 85.4667 27.5063 85.648 27.389 85.872C27.3037 86.0107 27.181 86.08 27.021 86.08H25.501C25.3837 86.08 25.293 86.048 25.229 85.984C25.165 85.9093 25.1383 85.824 25.149 85.728C25.149 85.5467 25.2183 85.3333 25.357 85.088C25.4957 84.8427 25.709 84.6027 25.997 84.368C26.285 84.1227 26.653 83.92 27.101 83.76C27.549 83.6 28.0983 83.52 28.749 83.52C29.421 83.52 29.997 83.6 30.477 83.76C30.957 83.92 31.341 84.144 31.629 84.432C31.917 84.72 32.1303 85.056 32.269 85.44C32.4077 85.8133 32.477 86.2187 32.477 86.656V91.6C32.477 91.7173 32.4397 91.8133 32.365 91.888C32.2903 91.9627 32.1943 92 32.077 92H30.509C30.4023 92 30.3117 91.9627 30.237 91.888C30.1623 91.8133 30.125 91.7173 30.125 91.6V91.008C29.9863 91.2107 29.7997 91.4027 29.565 91.584C29.3303 91.7547 29.0477 91.8933 28.717 92C28.397 92.1067 28.0183 92.16 27.581 92.16ZM28.221 90.496C28.573 90.496 28.8877 90.4213 29.165 90.272C29.4423 90.1227 29.661 89.8933 29.821 89.584C29.981 89.2747 30.061 88.8853 30.061 88.416V88.144L28.573 88.384C27.997 88.48 27.5757 88.624 27.309 88.816C27.0423 89.008 26.909 89.2427 26.909 89.52C26.909 89.7227 26.9677 89.8987 27.085 90.048C27.213 90.1973 27.3783 90.3093 27.581 90.384C27.7837 90.4587 27.997 90.496 28.221 90.496ZM34.8143 92C34.6969 92 34.6009 91.9627 34.5263 91.888C34.4516 91.8133 34.4143 91.7173 34.4143 91.6V81.04C34.4143 80.9227 34.4516 80.8267 34.5263 80.752C34.6009 80.6773 34.6969 80.64 34.8143 80.64H36.4143C36.5209 80.64 36.6116 80.6773 36.6863 80.752C36.7609 80.8267 36.7983 80.9227 36.7983 81.04V91.6C36.7983 91.7173 36.7609 91.8133 36.6863 91.888C36.6116 91.9627 36.5209 92 36.4143 92H34.8143ZM41.2685 92.16C40.7032 92.16 40.1965 92.0533 39.7485 91.84C39.3005 91.616 38.9432 91.3173 38.6765 90.944C38.4098 90.5707 38.2765 90.1547 38.2765 89.696C38.2765 88.9387 38.5805 88.3413 39.1885 87.904C39.8072 87.4667 40.6178 87.168 41.6205 87.008L43.7165 86.704V86.416C43.7165 86 43.6205 85.68 43.4285 85.456C43.2365 85.232 42.9005 85.12 42.4205 85.12C42.0685 85.12 41.7858 85.1893 41.5725 85.328C41.3592 85.4667 41.1938 85.648 41.0765 85.872C40.9912 86.0107 40.8685 86.08 40.7085 86.08H39.1885C39.0712 86.08 38.9805 86.048 38.9165 85.984C38.8525 85.9093 38.8258 85.824 38.8365 85.728C38.8365 85.5467 38.9058 85.3333 39.0445 85.088C39.1832 84.8427 39.3965 84.6027 39.6845 84.368C39.9725 84.1227 40.3405 83.92 40.7885 83.76C41.2365 83.6 41.7858 83.52 42.4365 83.52C43.1085 83.52 43.6845 83.6 44.1645 83.76C44.6445 83.92 45.0285 84.144 45.3165 84.432C45.6045 84.72 45.8178 85.056 45.9565 85.44C46.0952 85.8133 46.1645 86.2187 46.1645 86.656V91.6C46.1645 91.7173 46.1272 91.8133 46.0525 91.888C45.9778 91.9627 45.8818 92 45.7645 92H44.1965C44.0898 92 43.9992 91.9627 43.9245 91.888C43.8498 91.8133 43.8125 91.7173 43.8125 91.6V91.008C43.6738 91.2107 43.4872 91.4027 43.2525 91.584C43.0178 91.7547 42.7352 91.8933 42.4045 92C42.0845 92.1067 41.7058 92.16 41.2685 92.16ZM41.9085 90.496C42.2605 90.496 42.5752 90.4213 42.8525 90.272C43.1298 90.1227 43.3485 89.8933 43.5085 89.584C43.6685 89.2747 43.7485 88.8853 43.7485 88.416V88.144L42.2605 88.384C41.6845 88.48 41.2632 88.624 40.9965 88.816C40.7298 89.008 40.5965 89.2427 40.5965 89.52C40.5965 89.7227 40.6552 89.8987 40.7725 90.048C40.9005 90.1973 41.0658 90.3093 41.2685 90.384C41.4712 90.4587 41.6845 90.496 41.9085 90.496ZM48.4858 92C48.3791 92 48.2884 91.9627 48.2138 91.888C48.1391 91.8133 48.1018 91.7173 48.1018 91.6V84.08C48.1018 83.9627 48.1391 83.8667 48.2138 83.792C48.2884 83.7173 48.3791 83.68 48.4858 83.68H50.0538C50.1711 83.68 50.2671 83.7173 50.3418 83.792C50.4164 83.8667 50.4538 83.9627 50.4538 84.08V84.704C50.7311 84.3627 51.0884 84.08 51.5258 83.856C51.9631 83.632 52.4964 83.52 53.1258 83.52C53.7551 83.52 54.3044 83.664 54.7738 83.952C55.2538 84.2293 55.6271 84.64 55.8938 85.184C56.1711 85.7173 56.3098 86.368 56.3098 87.136V91.6C56.3098 91.7173 56.2671 91.8133 56.1818 91.888C56.1071 91.9627 56.0164 92 55.9097 92H54.2138C54.0964 92 54.0004 91.9627 53.9258 91.888C53.8511 91.8133 53.8138 91.7173 53.8138 91.6V87.232C53.8138 86.6667 53.6751 86.2293 53.3978 85.92C53.1311 85.6 52.7364 85.44 52.2138 85.44C51.7124 85.44 51.3124 85.6 51.0138 85.92C50.7151 86.2293 50.5658 86.6667 50.5658 87.232V91.6C50.5658 91.7173 50.5284 91.8133 50.4538 91.888C50.3791 91.9627 50.2884 92 50.1818 92H48.4858ZM61.9227 92.16C61.1441 92.16 60.4561 92.016 59.8588 91.728C59.2721 91.44 58.8081 91.024 58.4668 90.48C58.1254 89.9253 57.9388 89.264 57.9068 88.496C57.8961 88.3253 57.8908 88.112 57.8908 87.856C57.8908 87.5893 57.8961 87.3707 57.9068 87.2C57.9388 86.4213 58.1201 85.76 58.4508 85.216C58.7921 84.6613 59.2614 84.24 59.8588 83.952C60.4561 83.664 61.1441 83.52 61.9227 83.52C62.6374 83.52 63.2454 83.6213 63.7468 83.824C64.2481 84.016 64.6588 84.2613 64.9788 84.56C65.2988 84.8587 65.5334 85.1733 65.6828 85.504C65.8428 85.824 65.9281 86.1067 65.9388 86.352C65.9494 86.4587 65.9121 86.5547 65.8268 86.64C65.7521 86.7147 65.6614 86.752 65.5548 86.752H63.8428C63.7361 86.752 63.6508 86.7253 63.5868 86.672C63.5334 86.608 63.4801 86.5227 63.4268 86.416C63.2774 86.0427 63.0854 85.776 62.8508 85.616C62.6161 85.456 62.3228 85.376 61.9708 85.376C61.4908 85.376 61.1121 85.5307 60.8348 85.84C60.5574 86.1493 60.4081 86.6293 60.3868 87.28C60.3761 87.696 60.3761 88.0747 60.3868 88.416C60.4188 89.0773 60.5681 89.5573 60.8348 89.856C61.1121 90.1547 61.4908 90.304 61.9708 90.304C62.3441 90.304 62.6428 90.224 62.8668 90.064C63.0908 89.904 63.2774 89.6373 63.4268 89.264C63.4694 89.1573 63.5228 89.0773 63.5868 89.024C63.6508 88.96 63.7361 88.928 63.8428 88.928H65.5548C65.6614 88.928 65.7521 88.9707 65.8268 89.056C65.9121 89.1307 65.9494 89.2213 65.9388 89.328C65.9281 89.5093 65.8748 89.7227 65.7788 89.968C65.6934 90.2133 65.5494 90.464 65.3468 90.72C65.1548 90.976 64.9041 91.216 64.5948 91.44C64.2854 91.6533 63.9068 91.8293 63.4588 91.968C63.0214 92.096 62.5094 92.16 61.9227 92.16ZM71.22 92.16C69.9933 92.16 69.0173 91.8187 68.292 91.136C67.5773 90.4533 67.1987 89.4613 67.156 88.16C67.156 88.0747 67.156 87.9627 67.156 87.824C67.156 87.6747 67.156 87.5573 67.156 87.472C67.1987 86.6507 67.3853 85.9467 67.716 85.36C68.0467 84.7627 68.5107 84.3093 69.108 84C69.7053 83.68 70.404 83.52 71.204 83.52C72.1 83.52 72.8467 83.7067 73.444 84.08C74.052 84.4427 74.5053 84.944 74.804 85.584C75.1133 86.2133 75.268 86.9387 75.268 87.76V88.128C75.268 88.2347 75.2253 88.3253 75.14 88.4C75.0653 88.4747 74.9747 88.512 74.868 88.512H69.636C69.636 88.5227 69.636 88.544 69.636 88.576C69.636 88.5973 69.636 88.6187 69.636 88.64C69.6467 88.9813 69.7107 89.296 69.828 89.584C69.956 89.8613 70.132 90.0853 70.356 90.256C70.5907 90.4267 70.868 90.512 71.188 90.512C71.4547 90.512 71.6733 90.4747 71.844 90.4C72.0147 90.3253 72.1533 90.2347 72.26 90.128C72.3773 90.0213 72.4627 89.9307 72.516 89.856C72.612 89.7493 72.6867 89.6853 72.74 89.664C72.804 89.632 72.9 89.616 73.028 89.616H74.692C74.7987 89.616 74.884 89.648 74.948 89.712C75.0227 89.7653 75.0547 89.8453 75.044 89.952C75.0333 90.1227 74.9427 90.336 74.772 90.592C74.612 90.8373 74.372 91.0827 74.052 91.328C73.732 91.5627 73.332 91.76 72.852 91.92C72.3827 92.08 71.8387 92.16 71.22 92.16ZM69.636 87.056H72.772V87.024C72.772 86.64 72.708 86.3093 72.58 86.032C72.4627 85.744 72.2867 85.52 72.052 85.36C71.8173 85.2 71.5347 85.12 71.204 85.12C70.8733 85.12 70.5907 85.2 70.356 85.36C70.1213 85.52 69.94 85.744 69.812 86.032C69.6947 86.3093 69.636 86.64 69.636 87.024V87.056ZM77.2194 86.4C77.102 86.4 77.006 86.3627 76.9314 86.288C76.8567 86.2133 76.8194 86.1173 76.8194 86V84.288C76.8194 84.1707 76.8567 84.0747 76.9314 84C77.006 83.9253 77.102 83.888 77.2194 83.888H79.0114C79.1287 83.888 79.2247 83.9253 79.2994 84C79.374 84.0747 79.4114 84.1707 79.4114 84.288V86C79.4114 86.1173 79.374 86.2133 79.2994 86.288C79.2247 86.3627 79.1287 86.4 79.0114 86.4H77.2194ZM77.2194 92C77.102 92 77.006 91.9627 76.9314 91.888C76.8567 91.8133 76.8194 91.7173 76.8194 91.6V89.888C76.8194 89.7707 76.8567 89.6747 76.9314 89.6C77.006 89.5253 77.102 89.488 77.2194 89.488H79.0114C79.1287 89.488 79.2247 89.5253 79.2994 89.6C79.374 89.6747 79.4114 89.7707 79.4114 89.888V91.6C79.4114 91.7173 79.374 91.8133 79.2994 91.888C79.2247 91.9627 79.1287 92 79.0114 92H77.2194ZM86.1459 92C86.0392 92 85.9432 91.9627 85.8579 91.888C85.7832 91.8133 85.7459 91.7173 85.7459 91.6V89.984H84.5619C84.4445 89.984 84.3485 89.9467 84.2739 89.872C84.1992 89.7973 84.1619 89.7067 84.1619 89.6V89.04C84.1619 88.9333 84.1992 88.8427 84.2739 88.768C84.3485 88.6933 84.4445 88.656 84.5619 88.656H85.7459V87.824H84.5619C84.4445 87.824 84.3485 87.7867 84.2739 87.712C84.1992 87.6373 84.1619 87.5413 84.1619 87.424V86.384C84.1619 86.2773 84.1992 86.1867 84.2739 86.112C84.3485 86.0373 84.4445 86 84.5619 86H85.7459V81.2C85.7459 81.0827 85.7832 80.9867 85.8579 80.912C85.9432 80.8373 86.0392 80.8 86.1459 80.8H90.5299C91.3939 80.8 92.1405 80.9333 92.7699 81.2C93.4099 81.4667 93.9059 81.872 94.2579 82.416C94.6099 82.9493 94.7859 83.616 94.7859 84.416C94.7859 85.1947 94.6099 85.8347 94.2579 86.336C93.9059 86.8373 93.4099 87.2107 92.7699 87.456C92.1405 87.7013 91.3939 87.824 90.5299 87.824H88.3699V88.656H90.7699C90.8765 88.656 90.9672 88.6933 91.0419 88.768C91.1165 88.8427 91.1539 88.9333 91.1539 89.04V89.6C91.1539 89.7067 91.1165 89.7973 91.0419 89.872C90.9672 89.9467 90.8765 89.984 90.7699 89.984H88.3699V91.6C88.3699 91.7173 88.3325 91.8133 88.2579 91.888C88.1832 91.9627 88.0872 92 87.9699 92H86.1459ZM88.3379 86H90.4499C90.9832 86 91.3992 85.8667 91.6979 85.6C92.0072 85.3333 92.1619 84.9333 92.1619 84.4C92.1619 83.9307 92.0232 83.5467 91.7459 83.248C91.4792 82.9493 91.0472 82.8 90.4499 82.8H88.3379V86ZM99.682 92C99.5753 92 99.4793 91.9627 99.394 91.888C99.3193 91.8133 99.282 91.7173 99.282 91.6V83.648L96.978 85.424C96.882 85.4987 96.7807 85.5253 96.674 85.504C96.578 85.4827 96.4927 85.424 96.418 85.328L95.618 84.288C95.554 84.192 95.5273 84.0907 95.538 83.984C95.5593 83.8773 95.618 83.792 95.714 83.728L99.362 80.912C99.426 80.8693 99.4847 80.8427 99.538 80.832C99.602 80.8107 99.6713 80.8 99.746 80.8H101.442C101.549 80.8 101.639 80.8373 101.714 80.912C101.789 80.9867 101.826 81.0827 101.826 81.2V91.6C101.826 91.7173 101.789 91.8133 101.714 91.888C101.639 91.9627 101.549 92 101.442 92H99.682ZM108.25 92.16C107.482 92.16 106.821 92.0533 106.266 91.84C105.722 91.616 105.269 91.312 104.906 90.928C104.554 90.5333 104.288 90.08 104.106 89.568C103.936 89.0453 103.834 88.4907 103.802 87.904C103.792 87.616 103.781 87.296 103.77 86.944C103.77 86.5813 103.77 86.2187 103.77 85.856C103.781 85.4933 103.792 85.1627 103.802 84.864C103.824 84.2773 103.925 83.728 104.106 83.216C104.298 82.704 104.576 82.256 104.938 81.872C105.301 81.488 105.754 81.1893 106.298 80.976C106.853 80.752 107.504 80.64 108.25 80.64C108.997 80.64 109.642 80.752 110.186 80.976C110.73 81.1893 111.184 81.488 111.546 81.872C111.909 82.256 112.181 82.704 112.362 83.216C112.554 83.728 112.666 84.2773 112.698 84.864C112.709 85.1627 112.714 85.4933 112.714 85.856C112.725 86.2187 112.725 86.5813 112.714 86.944C112.714 87.296 112.709 87.616 112.698 87.904C112.666 88.4907 112.56 89.0453 112.378 89.568C112.197 90.08 111.925 90.5333 111.562 90.928C111.21 91.312 110.757 91.616 110.202 91.84C109.658 92.0533 109.008 92.16 108.25 92.16ZM108.25 90.08C108.869 90.08 109.322 89.8773 109.61 89.472C109.898 89.0667 110.053 88.5173 110.074 87.824C110.085 87.5147 110.09 87.1947 110.09 86.864C110.101 86.5333 110.101 86.2027 110.09 85.872C110.09 85.5413 110.085 85.232 110.074 84.944C110.053 84.2827 109.898 83.744 109.61 83.328C109.322 82.912 108.869 82.6987 108.25 82.688C107.621 82.6987 107.162 82.912 106.874 83.328C106.597 83.744 106.448 84.2827 106.426 84.944C106.416 85.232 106.405 85.5413 106.394 85.872C106.394 86.2027 106.394 86.5333 106.394 86.864C106.405 87.1947 106.416 87.5147 106.426 87.824C106.448 88.5173 106.602 89.0667 106.89 89.472C107.178 89.8773 107.632 90.08 108.25 90.08ZM114.349 93.2C114.264 93.2 114.189 93.1627 114.125 93.088C114.072 93.024 114.05 92.944 114.061 92.848L114.509 89.936C114.53 89.7973 114.584 89.6747 114.669 89.568C114.754 89.4613 114.882 89.408 115.053 89.408H116.717C116.802 89.408 116.872 89.44 116.925 89.504C116.989 89.5573 117.021 89.6267 117.021 89.712C117.021 89.776 117.01 89.84 116.989 89.904L115.869 92.768C115.826 92.8747 115.762 92.9707 115.677 93.056C115.602 93.152 115.48 93.2 115.309 93.2H114.349ZM123 92.16C122.232 92.16 121.571 92.0533 121.016 91.84C120.472 91.616 120.019 91.312 119.656 90.928C119.304 90.5333 119.038 90.08 118.856 89.568C118.686 89.0453 118.584 88.4907 118.552 87.904C118.542 87.616 118.531 87.296 118.52 86.944C118.52 86.5813 118.52 86.2187 118.52 85.856C118.531 85.4933 118.542 85.1627 118.552 84.864C118.574 84.2773 118.675 83.728 118.856 83.216C119.048 82.704 119.326 82.256 119.688 81.872C120.051 81.488 120.504 81.1893 121.048 80.976C121.603 80.752 122.254 80.64 123 80.64C123.747 80.64 124.392 80.752 124.936 80.976C125.48 81.1893 125.934 81.488 126.296 81.872C126.659 82.256 126.931 82.704 127.112 83.216C127.304 83.728 127.416 84.2773 127.448 84.864C127.459 85.1627 127.464 85.4933 127.464 85.856C127.475 86.2187 127.475 86.5813 127.464 86.944C127.464 87.296 127.459 87.616 127.448 87.904C127.416 88.4907 127.31 89.0453 127.128 89.568C126.947 90.08 126.675 90.5333 126.312 90.928C125.96 91.312 125.507 91.616 124.952 91.84C124.408 92.0533 123.758 92.16 123 92.16ZM123 90.08C123.619 90.08 124.072 89.8773 124.36 89.472C124.648 89.0667 124.803 88.5173 124.824 87.824C124.835 87.5147 124.84 87.1947 124.84 86.864C124.851 86.5333 124.851 86.2027 124.84 85.872C124.84 85.5413 124.835 85.232 124.824 84.944C124.803 84.2827 124.648 83.744 124.36 83.328C124.072 82.912 123.619 82.6987 123 82.688C122.371 82.6987 121.912 82.912 121.624 83.328C121.347 83.744 121.198 84.2827 121.176 84.944C121.166 85.232 121.155 85.5413 121.144 85.872C121.144 86.2027 121.144 86.5333 121.144 86.864C121.155 87.1947 121.166 87.5147 121.176 87.824C121.198 88.5173 121.352 89.0667 121.64 89.472C121.928 89.8773 122.382 90.08 123 90.08ZM133.688 92.16C132.92 92.16 132.258 92.0533 131.704 91.84C131.16 91.616 130.706 91.312 130.344 90.928C129.992 90.5333 129.725 90.08 129.544 89.568C129.373 89.0453 129.272 88.4907 129.24 87.904C129.229 87.616 129.218 87.296 129.208 86.944C129.208 86.5813 129.208 86.2187 129.208 85.856C129.218 85.4933 129.229 85.1627 129.24 84.864C129.261 84.2773 129.362 83.728 129.544 83.216C129.736 82.704 130.013 82.256 130.376 81.872C130.738 81.488 131.192 81.1893 131.736 80.976C132.29 80.752 132.941 80.64 133.688 80.64C134.434 80.64 135.08 80.752 135.624 80.976C136.168 81.1893 136.621 81.488 136.984 81.872C137.346 82.256 137.618 82.704 137.8 83.216C137.992 83.728 138.104 84.2773 138.136 84.864C138.146 85.1627 138.152 85.4933 138.152 85.856C138.162 86.2187 138.162 86.5813 138.152 86.944C138.152 87.296 138.146 87.616 138.136 87.904C138.104 88.4907 137.997 89.0453 137.816 89.568C137.634 90.08 137.362 90.5333 137 90.928C136.648 91.312 136.194 91.616 135.64 91.84C135.096 92.0533 134.445 92.16 133.688 92.16ZM133.688 90.08C134.306 90.08 134.76 89.8773 135.048 89.472C135.336 89.0667 135.49 88.5173 135.512 87.824C135.522 87.5147 135.528 87.1947 135.528 86.864C135.538 86.5333 135.538 86.2027 135.528 85.872C135.528 85.5413 135.522 85.232 135.512 84.944C135.49 84.2827 135.336 83.744 135.048 83.328C134.76 82.912 134.306 82.6987 133.688 82.688C133.058 82.6987 132.6 82.912 132.312 83.328C132.034 83.744 131.885 84.2827 131.864 84.944C131.853 85.232 131.842 85.5413 131.832 85.872C131.832 86.2027 131.832 86.5333 131.832 86.864C131.842 87.1947 131.853 87.5147 131.864 87.824C131.885 88.5173 132.04 89.0667 132.328 89.472C132.616 89.8773 133.069 90.08 133.688 90.08ZM144.375 92.16C143.607 92.16 142.946 92.0533 142.391 91.84C141.847 91.616 141.394 91.312 141.031 90.928C140.679 90.5333 140.413 90.08 140.231 89.568C140.061 89.0453 139.959 88.4907 139.927 87.904C139.917 87.616 139.906 87.296 139.895 86.944C139.895 86.5813 139.895 86.2187 139.895 85.856C139.906 85.4933 139.917 85.1627 139.927 84.864C139.949 84.2773 140.05 83.728 140.231 83.216C140.423 82.704 140.701 82.256 141.063 81.872C141.426 81.488 141.879 81.1893 142.423 80.976C142.978 80.752 143.629 80.64 144.375 80.64C145.122 80.64 145.767 80.752 146.311 80.976C146.855 81.1893 147.309 81.488 147.671 81.872C148.034 82.256 148.306 82.704 148.487 83.216C148.679 83.728 148.791 84.2773 148.823 84.864C148.834 85.1627 148.839 85.4933 148.839 85.856C148.85 86.2187 148.85 86.5813 148.839 86.944C148.839 87.296 148.834 87.616 148.823 87.904C148.791 88.4907 148.685 89.0453 148.503 89.568C148.322 90.08 148.05 90.5333 147.687 90.928C147.335 91.312 146.882 91.616 146.327 91.84C145.783 92.0533 145.133 92.16 144.375 92.16ZM144.375 90.08C144.994 90.08 145.447 89.8773 145.735 89.472C146.023 89.0667 146.178 88.5173 146.199 87.824C146.21 87.5147 146.215 87.1947 146.215 86.864C146.226 86.5333 146.226 86.2027 146.215 85.872C146.215 85.5413 146.21 85.232 146.199 84.944C146.178 84.2827 146.023 83.744 145.735 83.328C145.447 82.912 144.994 82.6987 144.375 82.688C143.746 82.6987 143.287 82.912 142.999 83.328C142.722 83.744 142.573 84.2827 142.551 84.944C142.541 85.232 142.53 85.5413 142.519 85.872C142.519 86.2027 142.519 86.5333 142.519 86.864C142.53 87.1947 142.541 87.5147 142.551 87.824C142.573 88.5173 142.727 89.0667 143.015 89.472C143.303 89.8773 143.757 90.08 144.375 90.08Z" fill="#1E1E1E"/>
<path d="M16.04 111.1C15.5 111.1 15.04 111.013 14.66 110.84C14.2867 110.667 14 110.443 13.8 110.17C13.6 109.897 13.4933 109.607 13.48 109.3C13.48 109.247 13.5 109.2 13.54 109.16C13.58 109.12 13.63 109.1 13.69 109.1H13.89C13.9567 109.1 14.0067 109.12 14.04 109.16C14.08 109.2 14.1033 109.247 14.11 109.3C14.1367 109.487 14.22 109.673 14.36 109.86C14.5 110.04 14.7067 110.193 14.98 110.32C15.2533 110.44 15.6067 110.5 16.04 110.5C16.6933 110.5 17.17 110.383 17.47 110.15C17.77 109.91 17.92 109.59 17.92 109.19C17.92 108.923 17.84 108.71 17.68 108.55C17.5267 108.383 17.29 108.237 16.97 108.11C16.65 107.977 16.24 107.83 15.74 107.67C15.2667 107.517 14.8767 107.36 14.57 107.2C14.2633 107.033 14.0367 106.833 13.89 106.6C13.75 106.367 13.68 106.067 13.68 105.7C13.68 105.36 13.77 105.057 13.95 104.79C14.13 104.517 14.39 104.3 14.73 104.14C15.0767 103.98 15.4967 103.9 15.99 103.9C16.3833 103.9 16.7267 103.953 17.02 104.06C17.3133 104.167 17.5567 104.31 17.75 104.49C17.9433 104.663 18.09 104.853 18.19 105.06C18.29 105.26 18.3433 105.457 18.35 105.65C18.35 105.697 18.3333 105.743 18.3 105.79C18.2667 105.83 18.2133 105.85 18.14 105.85H17.94C17.9067 105.85 17.8633 105.837 17.81 105.81C17.7633 105.783 17.7333 105.73 17.72 105.65C17.68 105.317 17.5033 105.043 17.19 104.83C16.8833 104.61 16.4833 104.5 15.99 104.5C15.4967 104.5 15.0933 104.597 14.78 104.79C14.4667 104.983 14.31 105.287 14.31 105.7C14.31 105.967 14.38 106.187 14.52 106.36C14.66 106.527 14.88 106.677 15.18 106.81C15.48 106.937 15.8667 107.077 16.34 107.23C16.84 107.39 17.2533 107.55 17.58 107.71C17.9067 107.87 18.15 108.067 18.31 108.3C18.47 108.527 18.55 108.823 18.55 109.19C18.55 109.597 18.4467 109.943 18.24 110.23C18.04 110.51 17.7533 110.727 17.38 110.88C17.0067 111.027 16.56 111.1 16.04 111.1ZM20.0947 112.9C20.028 112.9 19.9747 112.88 19.9347 112.84C19.8947 112.8 19.8747 112.747 19.8747 112.68V106.02C19.8747 105.953 19.8947 105.9 19.9347 105.86C19.9747 105.82 20.028 105.8 20.0947 105.8H20.2647C20.3314 105.8 20.3847 105.82 20.4247 105.86C20.4647 105.9 20.4847 105.953 20.4847 106.02V106.49C20.6514 106.263 20.868 106.077 21.1347 105.93C21.408 105.777 21.7514 105.7 22.1647 105.7C22.558 105.7 22.888 105.77 23.1547 105.91C23.4214 106.043 23.638 106.223 23.8047 106.45C23.9714 106.677 24.0947 106.93 24.1747 107.21C24.2547 107.49 24.298 107.777 24.3047 108.07C24.3114 108.17 24.3147 108.28 24.3147 108.4C24.3147 108.52 24.3114 108.63 24.3047 108.73C24.298 109.023 24.2547 109.31 24.1747 109.59C24.0947 109.87 23.9714 110.123 23.8047 110.35C23.638 110.577 23.4214 110.76 23.1547 110.9C22.888 111.033 22.558 111.1 22.1647 111.1C21.7514 111.1 21.408 111.023 21.1347 110.87C20.868 110.717 20.6514 110.53 20.4847 110.31V112.68C20.4847 112.747 20.4647 112.8 20.4247 112.84C20.3847 112.88 20.3314 112.9 20.2647 112.9H20.0947ZM22.1047 110.52C22.498 110.52 22.808 110.433 23.0347 110.26C23.2614 110.087 23.4247 109.86 23.5247 109.58C23.6247 109.3 23.6814 109 23.6947 108.68C23.7014 108.493 23.7014 108.307 23.6947 108.12C23.6814 107.8 23.6247 107.5 23.5247 107.22C23.4247 106.94 23.2614 106.713 23.0347 106.54C22.808 106.367 22.498 106.28 22.1047 106.28C21.7247 106.28 21.418 106.37 21.1847 106.55C20.9514 106.73 20.778 106.957 20.6647 107.23C20.558 107.497 20.498 107.767 20.4847 108.04C20.478 108.14 20.4747 108.27 20.4747 108.43C20.4747 108.59 20.478 108.72 20.4847 108.82C20.4914 109.087 20.5514 109.35 20.6647 109.61C20.7847 109.87 20.9614 110.087 21.1947 110.26C21.4347 110.433 21.738 110.52 22.1047 110.52ZM27.6052 111.1C26.9586 111.1 26.4452 110.89 26.0652 110.47C25.6852 110.043 25.4686 109.487 25.4152 108.8C25.4086 108.7 25.4052 108.567 25.4052 108.4C25.4052 108.233 25.4086 108.1 25.4152 108C25.4486 107.547 25.5552 107.147 25.7352 106.8C25.9152 106.453 26.1619 106.183 26.4752 105.99C26.7952 105.797 27.1719 105.7 27.6052 105.7C28.0719 105.7 28.4686 105.803 28.7952 106.01C29.1219 106.217 29.3719 106.513 29.5452 106.9C29.7252 107.287 29.8152 107.747 29.8152 108.28V108.43C29.8152 108.497 29.7919 108.55 29.7452 108.59C29.7052 108.63 29.6519 108.65 29.5852 108.65H26.0252C26.0252 108.65 26.0252 108.663 26.0252 108.69C26.0252 108.717 26.0252 108.737 26.0252 108.75C26.0386 109.05 26.1086 109.337 26.2352 109.61C26.3619 109.877 26.5419 110.097 26.7752 110.27C27.0086 110.437 27.2852 110.52 27.6052 110.52C27.8919 110.52 28.1286 110.477 28.3152 110.39C28.5086 110.303 28.6619 110.21 28.7752 110.11C28.8886 110.003 28.9619 109.923 28.9952 109.87C29.0552 109.783 29.1019 109.733 29.1352 109.72C29.1686 109.7 29.2219 109.69 29.2952 109.69H29.4552C29.5152 109.69 29.5652 109.71 29.6052 109.75C29.6519 109.783 29.6719 109.83 29.6652 109.89C29.6586 109.983 29.6052 110.1 29.5052 110.24C29.4119 110.373 29.2752 110.507 29.0952 110.64C28.9219 110.773 28.7086 110.883 28.4552 110.97C28.2019 111.057 27.9186 111.1 27.6052 111.1ZM26.0252 108.09H29.2052V108.05C29.2052 107.717 29.1419 107.417 29.0152 107.15C28.8886 106.883 28.7052 106.673 28.4652 106.52C28.2252 106.36 27.9386 106.28 27.6052 106.28C27.2719 106.28 26.9852 106.36 26.7452 106.52C26.5119 106.673 26.3319 106.883 26.2052 107.15C26.0852 107.417 26.0252 107.717 26.0252 108.05V108.09ZM31.3542 111C31.2876 111 31.2342 110.98 31.1942 110.94C31.1542 110.9 31.1342 110.847 31.1342 110.78V106.02C31.1342 105.953 31.1542 105.9 31.1942 105.86C31.2342 105.82 31.2876 105.8 31.3542 105.8H31.5242C31.5909 105.8 31.6442 105.82 31.6842 105.86C31.7242 105.9 31.7442 105.953 31.7442 106.02V106.49C31.9242 106.257 32.1409 106.067 32.3942 105.92C32.6542 105.773 32.9976 105.7 33.4242 105.7C33.8776 105.7 34.2542 105.8 34.5542 106C34.8609 106.193 35.0876 106.46 35.2342 106.8C35.3876 107.133 35.4642 107.513 35.4642 107.94V110.78C35.4642 110.847 35.4442 110.9 35.4042 110.94C35.3642 110.98 35.3109 111 35.2442 111H35.0742C35.0076 111 34.9542 110.98 34.9142 110.94C34.8742 110.9 34.8542 110.847 34.8542 110.78V107.99C34.8542 107.457 34.7242 107.04 34.4642 106.74C34.2042 106.433 33.8242 106.28 33.3242 106.28C32.8509 106.28 32.4676 106.433 32.1742 106.74C31.8876 107.04 31.7442 107.457 31.7442 107.99V110.78C31.7442 110.847 31.7242 110.9 31.6842 110.94C31.6442 110.98 31.5909 111 31.5242 111H31.3542ZM38.7045 111C38.3579 111 38.0845 110.927 37.8845 110.78C37.6845 110.633 37.5445 110.433 37.4645 110.18C37.3845 109.927 37.3445 109.643 37.3445 109.33V106.38H36.5645C36.4979 106.38 36.4445 106.36 36.4045 106.32C36.3645 106.28 36.3445 106.227 36.3445 106.16V106.02C36.3445 105.953 36.3645 105.9 36.4045 105.86C36.4445 105.82 36.4979 105.8 36.5645 105.8H37.3445V104.12C37.3445 104.053 37.3645 104 37.4045 103.96C37.4445 103.92 37.4979 103.9 37.5645 103.9H37.7345C37.8012 103.9 37.8545 103.92 37.8945 103.96C37.9345 104 37.9545 104.053 37.9545 104.12V105.8H39.1945C39.2612 105.8 39.3145 105.82 39.3545 105.86C39.3945 105.9 39.4145 105.953 39.4145 106.02V106.16C39.4145 106.227 39.3945 106.28 39.3545 106.32C39.3145 106.36 39.2612 106.38 39.1945 106.38H37.9545V109.29C37.9545 109.643 38.0112 109.92 38.1245 110.12C38.2445 110.32 38.4545 110.42 38.7545 110.42H39.2945C39.3612 110.42 39.4145 110.44 39.4545 110.48C39.4945 110.52 39.5145 110.573 39.5145 110.64V110.78C39.5145 110.847 39.4945 110.9 39.4545 110.94C39.4145 110.98 39.3612 111 39.2945 111H38.7045ZM40.6983 107.5C40.6316 107.5 40.5783 107.48 40.5383 107.44C40.4983 107.4 40.4783 107.347 40.4783 107.28V106.8C40.4783 106.733 40.4983 106.68 40.5383 106.64C40.5783 106.593 40.6316 106.57 40.6983 106.57H41.1783C41.2449 106.57 41.2983 106.593 41.3383 106.64C41.3849 106.68 41.4083 106.733 41.4083 106.8V107.28C41.4083 107.347 41.3849 107.4 41.3383 107.44C41.2983 107.48 41.2449 107.5 41.1783 107.5H40.6983ZM40.6983 111C40.6316 111 40.5783 110.98 40.5383 110.94C40.4983 110.9 40.4783 110.847 40.4783 110.78V110.3C40.4783 110.233 40.4983 110.18 40.5383 110.14C40.5783 110.093 40.6316 110.07 40.6983 110.07H41.1783C41.2449 110.07 41.2983 110.093 41.3383 110.14C41.3849 110.18 41.4083 110.233 41.4083 110.3V110.78C41.4083 110.847 41.3849 110.9 41.3383 110.94C41.2983 110.98 41.2449 111 41.1783 111H40.6983ZM46.0985 111C46.0318 111 45.9785 110.98 45.9385 110.94C45.8985 110.9 45.8785 110.847 45.8785 110.78V109.34H45.0985C45.0318 109.34 44.9785 109.32 44.9385 109.28C44.8985 109.24 44.8785 109.187 44.8785 109.12V108.96C44.8785 108.893 44.8985 108.84 44.9385 108.8C44.9785 108.76 45.0318 108.74 45.0985 108.74H45.8785V108.14H45.0985C45.0318 108.14 44.9785 108.12 44.9385 108.08C44.8985 108.04 44.8785 107.987 44.8785 107.92V107.76C44.8785 107.693 44.8985 107.64 44.9385 107.6C44.9785 107.56 45.0318 107.54 45.0985 107.54H45.8785V104.23C45.8785 104.157 45.8985 104.1 45.9385 104.06C45.9785 104.02 46.0318 104 46.0985 104H48.5285C48.9952 104 49.3985 104.08 49.7385 104.24C50.0852 104.393 50.3518 104.623 50.5385 104.93C50.7318 105.237 50.8285 105.617 50.8285 106.07C50.8285 106.523 50.7318 106.903 50.5385 107.21C50.3518 107.517 50.0852 107.75 49.7385 107.91C49.3985 108.063 48.9952 108.14 48.5285 108.14H46.5085V108.74H48.6985C48.7652 108.74 48.8185 108.76 48.8585 108.8C48.8985 108.84 48.9185 108.893 48.9185 108.96V109.12C48.9185 109.187 48.8985 109.24 48.8585 109.28C48.8185 109.32 48.7652 109.34 48.6985 109.34H46.5085V110.78C46.5085 110.847 46.4885 110.9 46.4485 110.94C46.4085 110.98 46.3518 111 46.2785 111H46.0985ZM46.5085 107.54H48.4785C49.0585 107.54 49.4885 107.413 49.7685 107.16C50.0552 106.907 50.1985 106.543 50.1985 106.07C50.1985 105.597 50.0552 105.233 49.7685 104.98C49.4885 104.727 49.0585 104.6 48.4785 104.6H46.5085V107.54ZM53.9827 111C53.916 111 53.8627 110.98 53.8227 110.94C53.7827 110.9 53.7627 110.847 53.7627 110.78V104.82L51.9727 106.2C51.9193 106.24 51.8627 106.257 51.8027 106.25C51.7493 106.243 51.7027 106.213 51.6627 106.16L51.5527 106.02C51.5127 105.967 51.496 105.913 51.5027 105.86C51.5093 105.8 51.5393 105.75 51.5927 105.71L53.7227 104.07C53.7693 104.037 53.8127 104.017 53.8527 104.01C53.8927 104.003 53.936 104 53.9827 104H54.1727C54.2393 104 54.2927 104.02 54.3327 104.06C54.3727 104.1 54.3927 104.153 54.3927 104.22V110.78C54.3927 110.847 54.3727 110.9 54.3327 110.94C54.2927 110.98 54.2393 111 54.1727 111H53.9827ZM58.287 111.1C57.8337 111.1 57.4537 111.027 57.147 110.88C56.847 110.733 56.6037 110.533 56.417 110.28C56.237 110.02 56.107 109.723 56.027 109.39C55.947 109.057 55.9004 108.707 55.887 108.34C55.887 108.16 55.8837 107.977 55.877 107.79C55.877 107.603 55.877 107.417 55.877 107.23C55.8837 107.037 55.887 106.847 55.887 106.66C55.8937 106.293 55.937 105.943 56.017 105.61C56.1037 105.277 56.237 104.983 56.417 104.73C56.6037 104.47 56.847 104.267 57.147 104.12C57.4537 103.973 57.8337 103.9 58.287 103.9C58.7404 103.9 59.117 103.973 59.417 104.12C59.7237 104.267 59.967 104.47 60.147 104.73C60.3337 104.983 60.467 105.277 60.547 105.61C60.6337 105.943 60.6804 106.293 60.687 106.66C60.6937 106.847 60.697 107.037 60.697 107.23C60.697 107.417 60.697 107.603 60.697 107.79C60.697 107.977 60.6937 108.16 60.687 108.34C60.6804 108.707 60.6337 109.057 60.547 109.39C60.467 109.723 60.3337 110.02 60.147 110.28C59.967 110.533 59.7237 110.733 59.417 110.88C59.117 111.027 58.7404 111.1 58.287 111.1ZM58.287 110.5C58.8804 110.5 59.3204 110.303 59.607 109.91C59.8937 109.517 60.0437 108.977 60.057 108.29C60.0637 108.097 60.067 107.917 60.067 107.75C60.067 107.577 60.067 107.407 60.067 107.24C60.067 107.067 60.0637 106.89 60.057 106.71C60.0437 106.037 59.8937 105.5 59.607 105.1C59.3204 104.7 58.8804 104.5 58.287 104.5C57.7004 104.5 57.2604 104.7 56.967 105.1C56.6804 105.5 56.5304 106.037 56.517 106.71C56.517 106.89 56.5137 107.067 56.507 107.24C56.507 107.407 56.507 107.577 56.507 107.75C56.5137 107.917 56.517 108.097 56.517 108.29C56.5304 108.977 56.6804 109.517 56.967 109.91C57.2604 110.303 57.7004 110.5 58.287 110.5ZM61.9136 111.75C61.8603 111.75 61.8203 111.73 61.7936 111.69C61.7736 111.65 61.7669 111.6 61.7736 111.54L61.9636 110.34C61.9769 110.26 62.0003 110.197 62.0336 110.15C62.0736 110.097 62.1336 110.07 62.2136 110.07H62.6636C62.7103 110.07 62.7469 110.087 62.7736 110.12C62.8003 110.153 62.8136 110.19 62.8136 110.23C62.8136 110.29 62.8003 110.35 62.7736 110.41L62.3436 111.54C62.3169 111.607 62.2836 111.657 62.2436 111.69C62.2103 111.73 62.1569 111.75 62.0836 111.75H61.9136ZM66.4511 111.1C65.9978 111.1 65.6178 111.027 65.3111 110.88C65.0111 110.733 64.7678 110.533 64.5811 110.28C64.4011 110.02 64.2711 109.723 64.1911 109.39C64.1111 109.057 64.0644 108.707 64.0511 108.34C64.0511 108.16 64.0478 107.977 64.0411 107.79C64.0411 107.603 64.0411 107.417 64.0411 107.23C64.0478 107.037 64.0511 106.847 64.0511 106.66C64.0578 106.293 64.1011 105.943 64.1811 105.61C64.2678 105.277 64.4011 104.983 64.5811 104.73C64.7678 104.47 65.0111 104.267 65.3111 104.12C65.6178 103.973 65.9978 103.9 66.4511 103.9C66.9044 103.9 67.2811 103.973 67.5811 104.12C67.8878 104.267 68.1311 104.47 68.3111 104.73C68.4978 104.983 68.6311 105.277 68.7111 105.61C68.7978 105.943 68.8444 106.293 68.8511 106.66C68.8578 106.847 68.8611 107.037 68.8611 107.23C68.8611 107.417 68.8611 107.603 68.8611 107.79C68.8611 107.977 68.8578 108.16 68.8511 108.34C68.8444 108.707 68.7978 109.057 68.7111 109.39C68.6311 109.723 68.4978 110.02 68.3111 110.28C68.1311 110.533 67.8878 110.733 67.5811 110.88C67.2811 111.027 66.9044 111.1 66.4511 111.1ZM66.4511 110.5C67.0444 110.5 67.4844 110.303 67.7711 109.91C68.0578 109.517 68.2078 108.977 68.2211 108.29C68.2278 108.097 68.2311 107.917 68.2311 107.75C68.2311 107.577 68.2311 107.407 68.2311 107.24C68.2311 107.067 68.2278 106.89 68.2211 106.71C68.2078 106.037 68.0578 105.5 67.7711 105.1C67.4844 104.7 67.0444 104.5 66.4511 104.5C65.8644 104.5 65.4244 104.7 65.1311 105.1C64.8444 105.5 64.6944 106.037 64.6811 106.71C64.6811 106.89 64.6778 107.067 64.6711 107.24C64.6711 107.407 64.6711 107.577 64.6711 107.75C64.6778 107.917 64.6811 108.097 64.6811 108.29C64.6944 108.977 64.8444 109.517 65.1311 109.91C65.4244 110.303 65.8644 110.5 66.4511 110.5ZM72.6132 111.1C72.1599 111.1 71.7799 111.027 71.4732 110.88C71.1732 110.733 70.9299 110.533 70.7432 110.28C70.5632 110.02 70.4332 109.723 70.3532 109.39C70.2732 109.057 70.2265 108.707 70.2132 108.34C70.2132 108.16 70.2099 107.977 70.2032 107.79C70.2032 107.603 70.2032 107.417 70.2032 107.23C70.2099 107.037 70.2132 106.847 70.2132 106.66C70.2199 106.293 70.2632 105.943 70.3432 105.61C70.4299 105.277 70.5632 104.983 70.7432 104.73C70.9299 104.47 71.1732 104.267 71.4732 104.12C71.7799 103.973 72.1599 103.9 72.6132 103.9C73.0665 103.9 73.4432 103.973 73.7432 104.12C74.0499 104.267 74.2932 104.47 74.4732 104.73C74.6599 104.983 74.7932 105.277 74.8732 105.61C74.9599 105.943 75.0065 106.293 75.0132 106.66C75.0199 106.847 75.0232 107.037 75.0232 107.23C75.0232 107.417 75.0232 107.603 75.0232 107.79C75.0232 107.977 75.0199 108.16 75.0132 108.34C75.0065 108.707 74.9599 109.057 74.8732 109.39C74.7932 109.723 74.6599 110.02 74.4732 110.28C74.2932 110.533 74.0499 110.733 73.7432 110.88C73.4432 111.027 73.0665 111.1 72.6132 111.1ZM72.6132 110.5C73.2065 110.5 73.6465 110.303 73.9332 109.91C74.2199 109.517 74.3699 108.977 74.3832 108.29C74.3899 108.097 74.3932 107.917 74.3932 107.75C74.3932 107.577 74.3932 107.407 74.3932 107.24C74.3932 107.067 74.3899 106.89 74.3832 106.71C74.3699 106.037 74.2199 105.5 73.9332 105.1C73.6465 104.7 73.2065 104.5 72.6132 104.5C72.0265 104.5 71.5865 104.7 71.2932 105.1C71.0065 105.5 70.8565 106.037 70.8432 106.71C70.8432 106.89 70.8399 107.067 70.8332 107.24C70.8332 107.407 70.8332 107.577 70.8332 107.75C70.8399 107.917 70.8432 108.097 70.8432 108.29C70.8565 108.977 71.0065 109.517 71.2932 109.91C71.5865 110.303 72.0265 110.5 72.6132 110.5ZM78.7753 111.1C78.322 111.1 77.942 111.027 77.6353 110.88C77.3353 110.733 77.092 110.533 76.9053 110.28C76.7253 110.02 76.5953 109.723 76.5153 109.39C76.4353 109.057 76.3886 108.707 76.3753 108.34C76.3753 108.16 76.372 107.977 76.3653 107.79C76.3653 107.603 76.3653 107.417 76.3653 107.23C76.372 107.037 76.3753 106.847 76.3753 106.66C76.382 106.293 76.4253 105.943 76.5053 105.61C76.592 105.277 76.7253 104.983 76.9053 104.73C77.092 104.47 77.3353 104.267 77.6353 104.12C77.942 103.973 78.322 103.9 78.7753 103.9C79.2286 103.9 79.6053 103.973 79.9053 104.12C80.212 104.267 80.4553 104.47 80.6353 104.73C80.822 104.983 80.9553 105.277 81.0353 105.61C81.122 105.943 81.1686 106.293 81.1753 106.66C81.182 106.847 81.1853 107.037 81.1853 107.23C81.1853 107.417 81.1853 107.603 81.1853 107.79C81.1853 107.977 81.182 108.16 81.1753 108.34C81.1686 108.707 81.122 109.057 81.0353 109.39C80.9553 109.723 80.822 110.02 80.6353 110.28C80.4553 110.533 80.212 110.733 79.9053 110.88C79.6053 111.027 79.2286 111.1 78.7753 111.1ZM78.7753 110.5C79.3686 110.5 79.8086 110.303 80.0953 109.91C80.382 109.517 80.532 108.977 80.5453 108.29C80.552 108.097 80.5553 107.917 80.5553 107.75C80.5553 107.577 80.5553 107.407 80.5553 107.24C80.5553 107.067 80.552 106.89 80.5453 106.71C80.532 106.037 80.382 105.5 80.0953 105.1C79.8086 104.7 79.3686 104.5 78.7753 104.5C78.1886 104.5 77.7486 104.7 77.4553 105.1C77.1686 105.5 77.0186 106.037 77.0053 106.71C77.0053 106.89 77.002 107.067 76.9953 107.24C76.9953 107.407 76.9953 107.577 76.9953 107.75C77.002 107.917 77.0053 108.097 77.0053 108.29C77.0186 108.977 77.1686 109.517 77.4553 109.91C77.7486 110.303 78.1886 110.5 78.7753 110.5Z" fill="#1E1E1E"/>
<defs>
<linearGradient id="paint0_linear_63_1113" x1="456" y1="287" x2="287" y2="2.06998e-05" gradientUnits="userSpaceOnUse">
<stop stop-color="#7CFF55"/>
<stop offset="1" stop-color="#00E0FF"/>
</linearGradient>
<linearGradient id="paint1_linear_63_1113" x1="165" y1="85" x2="142.5" y2="61.5" gradientUnits="userSpaceOnUse">
<stop stop-color="#509863" stop-opacity="0.78"/>
<stop offset="1" stop-color="#57F689" stop-opacity="0"/>
</linearGradient>
<linearGradient id="paint2_linear_63_1113" x1="188.5" y1="77" x2="172" y2="60" gradientUnits="userSpaceOnUse">
<stop stop-color="#509863" stop-opacity="0.96"/>
<stop offset="1" stop-color="#57F689" stop-opacity="0"/>
</linearGradient>
</defs>
</svg>
