<svg width="287" height="169" viewBox="0 0 287 169" fill="none" xmlns="http://www.w3.org/2000/svg">
<rect x="287" width="169" height="287" rx="10" transform="rotate(90 287 0)" fill="url(#paint0_linear_63_1059)"/>
<path d="M246.996 154.894V153.771C247.009 153.58 246.94 153.392 246.805 153.256C246.67 153.12 246.484 153.048 246.292 153.06C246.04 153.043 245.799 153.165 245.664 153.378C245.54 153.171 245.313 153.049 245.072 153.06C244.863 153.049 244.663 153.15 244.548 153.325V153.104H244.159V154.894H244.552V153.909C244.535 153.785 244.574 153.66 244.659 153.568C244.744 153.476 244.865 153.427 244.99 153.434C245.248 153.434 245.379 153.602 245.379 153.906V154.901H245.772V153.909C245.756 153.786 245.795 153.661 245.88 153.569C245.964 153.477 246.085 153.428 246.21 153.434C246.476 153.434 246.603 153.602 246.603 153.906V154.901L246.996 154.894ZM252.811 153.104H252.171V152.562H251.778V153.104H251.423V153.46H251.786V154.284C251.786 154.699 251.947 154.946 252.407 154.946C252.579 154.947 252.748 154.899 252.894 154.808L252.782 154.475C252.677 154.537 252.559 154.572 252.437 154.576C252.25 154.576 252.179 154.456 252.179 154.276V153.46H252.815L252.811 153.104ZM256.132 153.06C255.938 153.054 255.757 153.154 255.66 153.322V153.104H255.275V154.894H255.664V153.891C255.664 153.595 255.791 153.43 256.038 153.43C256.121 153.429 256.204 153.444 256.282 153.475L256.401 153.101C256.312 153.069 256.219 153.052 256.124 153.052L256.132 153.06ZM251.112 153.247C250.892 153.116 250.638 153.051 250.382 153.06C249.929 153.06 249.633 153.277 249.633 153.632C249.633 153.924 249.85 154.104 250.251 154.16L250.438 154.186C250.652 154.216 250.753 154.272 250.753 154.373C250.753 154.512 250.61 154.591 250.345 154.591C250.131 154.597 249.921 154.531 249.749 154.403L249.562 154.707C249.789 154.865 250.061 154.946 250.337 154.939C250.854 154.939 251.153 154.695 251.153 154.355C251.153 154.014 250.917 153.876 250.528 153.819L250.341 153.793C250.172 153.771 250.038 153.737 250.038 153.617C250.038 153.497 250.165 153.408 250.378 153.408C250.575 153.41 250.769 153.463 250.94 153.561L251.112 153.247ZM261.539 153.06C261.346 153.054 261.165 153.154 261.067 153.322V153.104H260.682V154.894H261.071V153.891C261.071 153.595 261.198 153.43 261.445 153.43C261.529 153.429 261.611 153.444 261.689 153.475L261.809 153.101C261.72 153.069 261.626 153.052 261.532 153.052L261.539 153.06ZM256.523 153.995C256.514 154.25 256.612 154.496 256.794 154.674C256.975 154.852 257.224 154.946 257.478 154.931C257.711 154.943 257.941 154.867 258.121 154.718L257.934 154.403C257.8 154.506 257.636 154.562 257.466 154.564C257.168 154.54 256.938 154.291 256.938 153.992C256.938 153.692 257.168 153.443 257.466 153.419C257.636 153.421 257.8 153.477 257.934 153.58L258.121 153.265C257.941 153.116 257.711 153.04 257.478 153.052C257.224 153.038 256.975 153.131 256.794 153.309C256.612 153.487 256.514 153.734 256.523 153.988V153.995ZM260.169 153.995V153.104H259.78V153.322C259.646 153.149 259.437 153.051 259.218 153.06C258.701 153.06 258.282 153.479 258.282 153.995C258.282 154.512 258.701 154.931 259.218 154.931C259.437 154.939 259.646 154.842 259.78 154.669V154.886H260.169V153.995ZM258.72 153.995C258.738 153.702 258.987 153.476 259.281 153.487C259.575 153.498 259.806 153.742 259.801 154.036C259.796 154.33 259.557 154.567 259.263 154.568C259.113 154.57 258.969 154.509 258.866 154.4C258.763 154.292 258.71 154.145 258.72 153.995ZM254.022 153.06C253.506 153.067 253.092 153.492 253.1 154.008C253.107 154.525 253.532 154.938 254.049 154.931C254.318 154.945 254.583 154.858 254.792 154.688L254.605 154.4C254.457 154.518 254.274 154.584 254.084 154.587C253.817 154.61 253.579 154.416 253.549 154.149H254.878C254.878 154.1 254.878 154.052 254.878 153.999C254.878 153.438 254.53 153.063 254.028 153.063L254.022 153.06ZM254.022 153.408C254.14 153.405 254.254 153.449 254.339 153.531C254.424 153.612 254.473 153.724 254.475 153.842H253.54C253.554 153.592 253.765 153.399 254.015 153.408H254.022ZM263.776 153.999V152.386H263.401V153.322C263.267 153.149 263.058 153.051 262.84 153.06C262.323 153.06 261.904 153.479 261.904 153.995C261.904 154.512 262.323 154.931 262.84 154.931C263.058 154.939 263.267 154.842 263.401 154.669V154.886H263.776V153.999ZM264.425 154.634C264.45 154.633 264.474 154.638 264.496 154.647C264.518 154.655 264.538 154.668 264.554 154.684C264.571 154.7 264.584 154.719 264.594 154.74C264.613 154.784 264.613 154.835 264.594 154.879C264.584 154.9 264.571 154.919 264.554 154.935C264.538 154.951 264.518 154.964 264.496 154.972C264.474 154.982 264.45 154.987 264.425 154.987C264.353 154.987 264.287 154.945 264.257 154.879C264.238 154.835 264.238 154.785 264.257 154.74C264.266 154.719 264.28 154.7 264.296 154.684C264.313 154.668 264.333 154.655 264.354 154.647C264.378 154.637 264.405 154.633 264.431 154.634H264.425ZM264.425 154.95C264.444 154.95 264.462 154.946 264.479 154.939C264.496 154.931 264.51 154.921 264.523 154.909C264.571 154.856 264.571 154.775 264.523 154.722C264.51 154.709 264.496 154.699 264.479 154.692C264.462 154.684 264.444 154.68 264.425 154.68C264.407 154.68 264.388 154.684 264.371 154.692C264.354 154.699 264.339 154.709 264.326 154.722C264.277 154.775 264.277 154.856 264.326 154.909C264.339 154.922 264.354 154.932 264.371 154.939C264.39 154.947 264.41 154.951 264.431 154.95H264.425ZM264.436 154.727C264.454 154.726 264.471 154.732 264.485 154.742C264.497 154.752 264.503 154.766 264.502 154.781C264.502 154.794 264.498 154.806 264.489 154.815C264.478 154.825 264.464 154.831 264.45 154.832L264.504 154.894H264.461L264.41 154.832H264.393V154.894H264.358V154.729L264.436 154.727ZM264.395 154.759V154.804H264.436C264.444 154.806 264.452 154.806 264.459 154.804C264.462 154.799 264.462 154.792 264.459 154.787C264.462 154.782 264.462 154.776 264.459 154.77C264.452 154.768 264.444 154.768 264.436 154.77L264.395 154.759ZM262.336 153.999C262.354 153.705 262.603 153.479 262.897 153.49C263.191 153.501 263.422 153.745 263.417 154.04C263.412 154.334 263.173 154.57 262.879 154.572C262.729 154.574 262.586 154.513 262.483 154.404C262.379 154.295 262.326 154.149 262.336 153.999ZM249.192 153.999V153.104H248.802V153.322C248.668 153.149 248.459 153.051 248.241 153.06C247.724 153.06 247.305 153.479 247.305 153.995C247.305 154.512 247.724 154.931 248.241 154.931C248.459 154.939 248.668 154.842 248.802 154.669V154.886H249.192V153.999ZM247.743 153.999C247.76 153.705 248.009 153.479 248.303 153.49C248.597 153.501 248.829 153.745 248.824 154.04C248.819 154.334 248.58 154.57 248.286 154.572C248.135 154.575 247.99 154.514 247.887 154.406C247.783 154.297 247.729 154.149 247.739 153.999H247.743Z" fill="#171719"/>
<path d="M264.189 149.032V148.74H264.277V148.68H264.054V148.74H264.15V149.032H264.189ZM264.622 149.032V148.68H264.554L264.476 148.931L264.397 148.68H264.337V149.032H264.386V148.768L264.459 148.997H264.509L264.582 148.768V149.035L264.622 149.032Z" fill="#171719"/>
<path d="M253.398 150.226C253.451 150.27 253.508 150.315 253.564 150.358C252.485 151.07 251.189 151.484 249.799 151.484C246.043 151.485 243 148.466 243 144.742C243 141.019 246.043 138 249.798 138C251.189 138 252.485 138.415 253.561 139.126C253.506 139.172 253.451 139.215 253.41 139.262C251.8 140.641 250.879 142.64 250.879 144.742C250.879 146.843 251.796 148.843 253.398 150.226ZM258.202 138C256.809 138 255.515 138.415 254.439 139.126C254.494 139.172 254.549 139.215 254.59 139.262C256.2 140.641 257.121 142.64 257.121 144.742C257.121 146.843 256.204 148.84 254.602 150.226C254.549 150.27 254.492 150.315 254.436 150.358C255.515 151.07 256.809 151.484 258.201 151.484C261.957 151.485 265 148.466 265 144.742C265 141.02 261.957 138 258.202 138ZM254 139.446C253.912 139.514 253.827 139.582 253.743 139.656C252.31 140.891 251.405 142.71 251.405 144.742C251.405 146.775 252.31 148.594 253.743 149.829C253.826 149.902 253.913 149.973 254 150.04C254.088 149.973 254.173 149.902 254.257 149.829C255.689 148.594 256.595 146.775 256.595 144.742C256.595 142.71 255.69 140.891 254.257 139.656C254.174 139.583 254.088 139.514 254 139.446Z" fill="#171719"/>
<path d="M22.9547 24.9826L30.5395 25.0455L30.8262 34.4269C30.183 35.9299 27.2749 36.1466 26.8345 36.8247C26.3102 36.1816 23.7796 35.6153 23.0176 34.4269L22.9547 24.9826Z" stroke="#171719" stroke-width="0.843852" stroke-linecap="round" stroke-linejoin="round"/>
<path d="M31.7977 28.6387C37.6838 25.2553 28.4422 21.3615 34.3213 17.7124C35.7195 20.1102 36.3766 23.4726 40.0117 22.9344C40.3892 26.2759 39.2777 26.8701 37.8446 26.8841C38.341 28.8414 39.1379 29.5475 40.2913 30.0368C39.9558 31.2322 39.4455 32.2389 37.7048 32.0152C36.7541 36.8038 35.1253 37.2652 32.3919 36.9086C33.8949 33.8328 32.336 32.2319 33.8949 29.953L31.7977 28.6387Z" stroke="#171719" stroke-width="0.843852" stroke-linecap="round" stroke-linejoin="round"/>
<path d="M24.6044 15H28.8827L28.9736 19.0476L30.5744 20.4107C29.5818 21.5782 28.7569 22.8924 27.0442 23.4656C25.1357 22.9414 24.2479 21.6691 23.2832 20.4107L24.7442 19.0126L24.6044 15Z" stroke="#171719" stroke-width="0.843852" stroke-linecap="round" stroke-linejoin="round"/>
<path d="M23.7515 38.9848C25.7508 40.0614 27.827 40.6067 30.1968 38.9429" stroke="#171719" stroke-width="0.843852" stroke-linecap="round" stroke-linejoin="round"/>
<path d="M21.4656 28.8974C15.5795 25.5069 24.8211 21.6132 18.942 17.985C17.5439 20.3828 16.8868 23.7453 13.2517 23.207C12.8742 26.5485 13.9507 27.1357 15.4188 27.1567C14.9504 29.1071 14.1535 29.8201 13 30.2955C13.3356 31.4839 13.8459 32.4976 15.5865 32.2669C16.5373 37.0554 18.1661 37.5168 20.8994 37.1603C19.3964 34.0844 20.9553 32.4836 19.3964 30.1697L21.4656 28.8974Z" stroke="#171719" stroke-width="0.843852" stroke-linecap="round" stroke-linejoin="round"/>
<path d="M17.6741 148C17.5807 148 17.5014 147.972 17.4361 147.916C17.3801 147.851 17.3521 147.771 17.3521 147.678V146.67C17.3521 146.577 17.3801 146.502 17.4361 146.446C17.5014 146.381 17.5807 146.348 17.6741 146.348H18.6821C18.7754 146.348 18.8501 146.381 18.9061 146.446C18.9714 146.502 19.0041 146.577 19.0041 146.67V147.678C19.0041 147.771 18.9714 147.851 18.9061 147.916C18.8501 147.972 18.7754 148 18.6821 148H17.6741ZM21.2014 148C21.1081 148 21.0287 147.972 20.9634 147.916C20.9074 147.851 20.8794 147.771 20.8794 147.678V146.67C20.8794 146.577 20.9074 146.502 20.9634 146.446C21.0287 146.381 21.1081 146.348 21.2014 146.348H22.2094C22.3027 146.348 22.3774 146.381 22.4334 146.446C22.4987 146.502 22.5314 146.577 22.5314 146.67V147.678C22.5314 147.771 22.4987 147.851 22.4334 147.916C22.3774 147.972 22.3027 148 22.2094 148H21.2014ZM24.7288 148C24.6354 148 24.5561 147.972 24.4908 147.916C24.4348 147.851 24.4068 147.771 24.4068 147.678V146.67C24.4068 146.577 24.4348 146.502 24.4908 146.446C24.5561 146.381 24.6354 146.348 24.7288 146.348H25.7368C25.8301 146.348 25.9048 146.381 25.9608 146.446C26.0261 146.502 26.0588 146.577 26.0588 146.67V147.678C26.0588 147.771 26.0261 147.851 25.9608 147.916C25.9048 147.972 25.8301 148 25.7368 148H24.7288ZM31.3114 148.14C30.77 148.14 30.2707 148.075 29.8134 147.944C29.3654 147.804 28.978 147.608 28.6514 147.356C28.334 147.095 28.0867 146.782 27.9094 146.418C27.732 146.054 27.6434 145.643 27.6434 145.186C27.6434 144.617 27.7787 144.127 28.0494 143.716C28.3294 143.305 28.698 142.993 29.1554 142.778C28.7914 142.563 28.5067 142.283 28.3014 141.938C28.096 141.593 27.9934 141.182 27.9934 140.706C27.9934 140.146 28.1287 139.675 28.3994 139.292C28.6794 138.9 29.0667 138.597 29.5614 138.382C30.0654 138.167 30.6487 138.06 31.3114 138.06C31.9647 138.06 32.5387 138.167 33.0334 138.382C33.5374 138.587 33.9247 138.886 34.1954 139.278C34.4754 139.67 34.6154 140.141 34.6154 140.692C34.6154 141.168 34.5127 141.583 34.3074 141.938C34.102 142.283 33.822 142.563 33.4674 142.778C33.9247 142.993 34.2887 143.305 34.5594 143.716C34.8394 144.127 34.9794 144.617 34.9794 145.186C34.9794 145.793 34.8254 146.32 34.5174 146.768C34.2094 147.207 33.78 147.547 33.2294 147.79C32.6787 148.023 32.0394 148.14 31.3114 148.14ZM31.3114 147.02C31.7407 147.02 32.128 146.945 32.4734 146.796C32.8187 146.647 33.094 146.437 33.2994 146.166C33.5047 145.886 33.6074 145.559 33.6074 145.186C33.6074 144.803 33.5047 144.481 33.2994 144.22C33.094 143.949 32.8187 143.744 32.4734 143.604C32.128 143.455 31.7407 143.38 31.3114 143.38C30.882 143.38 30.49 143.455 30.1354 143.604C29.79 143.744 29.5147 143.949 29.3094 144.22C29.104 144.481 29.0014 144.803 29.0014 145.186C29.0014 145.559 29.104 145.886 29.3094 146.166C29.5147 146.437 29.79 146.647 30.1354 146.796C30.49 146.945 30.882 147.02 31.3114 147.02ZM31.3114 142.274C31.666 142.274 31.9927 142.209 32.2914 142.078C32.5994 141.947 32.842 141.77 33.0194 141.546C33.206 141.322 33.2994 141.051 33.2994 140.734C33.2994 140.417 33.2107 140.141 33.0334 139.908C32.8654 139.675 32.6274 139.497 32.3194 139.376C32.0207 139.245 31.6847 139.18 31.3114 139.18C30.938 139.18 30.5974 139.245 30.2894 139.376C29.9907 139.497 29.7527 139.675 29.5754 139.908C29.398 140.141 29.3094 140.417 29.3094 140.734C29.3094 141.061 29.398 141.341 29.5754 141.574C29.7527 141.798 29.9907 141.971 30.2894 142.092C30.5974 142.213 30.938 142.274 31.3114 142.274ZM41.3738 148C41.2804 148 41.2011 147.972 41.1358 147.916C41.0798 147.851 41.0518 147.771 41.0518 147.678V145.662H36.5158C36.4224 145.662 36.3431 145.634 36.2778 145.578C36.2218 145.513 36.1938 145.433 36.1938 145.34V144.78C36.1938 144.743 36.2031 144.687 36.2218 144.612C36.2498 144.528 36.2918 144.444 36.3478 144.36L40.5478 138.438C40.6598 138.279 40.8324 138.2 41.0658 138.2H42.0738C42.1671 138.2 42.2418 138.233 42.2978 138.298C42.3631 138.354 42.3958 138.429 42.3958 138.522V144.444H43.6558C43.7584 144.444 43.8378 144.477 43.8938 144.542C43.9591 144.598 43.9918 144.673 43.9918 144.766V145.34C43.9918 145.433 43.9591 145.513 43.8938 145.578C43.8378 145.634 43.7631 145.662 43.6698 145.662H42.3958V147.678C42.3958 147.771 42.3631 147.851 42.2978 147.916C42.2418 147.972 42.1671 148 42.0738 148H41.3738ZM37.6918 144.472H41.0658V139.67L37.6918 144.472ZM48.7671 148.14C47.9924 148.14 47.3344 147.986 46.7931 147.678C46.2517 147.361 45.8364 146.95 45.5471 146.446C45.2671 145.933 45.1271 145.377 45.1271 144.78C45.1271 144.5 45.1597 144.234 45.2251 143.982C45.2997 143.721 45.3884 143.478 45.4911 143.254C45.6031 143.021 45.7104 142.815 45.8131 142.638C45.9251 142.451 46.0231 142.302 46.1071 142.19L48.7671 138.48C48.8137 138.433 48.8697 138.377 48.9351 138.312C49.0004 138.237 49.0984 138.2 49.2291 138.2H49.9711C50.0551 138.2 50.1204 138.233 50.1671 138.298C50.2231 138.354 50.2511 138.424 50.2511 138.508C50.2511 138.545 50.2464 138.583 50.2371 138.62C50.2277 138.648 50.2137 138.671 50.1951 138.69L48.1511 141.546C48.2631 141.509 48.3891 141.485 48.5291 141.476C48.6784 141.457 48.8184 141.448 48.9491 141.448C49.4624 141.457 49.9291 141.551 50.3491 141.728C50.7691 141.905 51.1284 142.148 51.4271 142.456C51.7351 142.755 51.9684 143.105 52.1271 143.506C52.2857 143.898 52.3651 144.318 52.3651 144.766C52.3651 145.354 52.2251 145.905 51.9451 146.418C51.6651 146.931 51.2544 147.347 50.7131 147.664C50.1811 147.981 49.5324 148.14 48.7671 148.14ZM48.7531 146.95C49.1451 146.95 49.5091 146.866 49.8451 146.698C50.1811 146.53 50.4517 146.287 50.6571 145.97C50.8717 145.643 50.9791 145.247 50.9791 144.78C50.9791 144.304 50.8764 143.907 50.6711 143.59C50.4657 143.263 50.1904 143.021 49.8451 142.862C49.5091 142.694 49.1451 142.61 48.7531 142.61C48.3611 142.61 47.9971 142.694 47.6611 142.862C47.3251 143.021 47.0497 143.263 46.8351 143.59C46.6297 143.907 46.5271 144.304 46.5271 144.78C46.5271 145.247 46.6297 145.643 46.8351 145.97C47.0497 146.287 47.3251 146.53 47.6611 146.698C47.9971 146.866 48.3611 146.95 48.7531 146.95ZM58.5046 148C58.4113 148 58.332 147.972 58.2666 147.916C58.2106 147.851 58.1826 147.771 58.1826 147.678V145.662H53.6466C53.5533 145.662 53.474 145.634 53.4086 145.578C53.3526 145.513 53.3246 145.433 53.3246 145.34V144.78C53.3246 144.743 53.334 144.687 53.3526 144.612C53.3806 144.528 53.4226 144.444 53.4786 144.36L57.6786 138.438C57.7906 138.279 57.9633 138.2 58.1966 138.2H59.2046C59.298 138.2 59.3726 138.233 59.4286 138.298C59.494 138.354 59.5266 138.429 59.5266 138.522V144.444H60.7866C60.8893 144.444 60.9686 144.477 61.0246 144.542C61.09 144.598 61.1226 144.673 61.1226 144.766V145.34C61.1226 145.433 61.09 145.513 61.0246 145.578C60.9686 145.634 60.894 145.662 60.8006 145.662H59.5266V147.678C59.5266 147.771 59.494 147.851 59.4286 147.916C59.3726 147.972 59.298 148 59.2046 148H58.5046ZM54.8226 144.472H58.1966V139.67L54.8226 144.472Z" fill="#171719"/>
<path d="M14.584 86C14.4667 86 14.3707 85.9627 14.296 85.888C14.2213 85.8133 14.184 85.7173 14.184 85.6V75.2C14.184 75.0827 14.2213 74.9867 14.296 74.912C14.3707 74.8373 14.4667 74.8 14.584 74.8H19.336C20.2213 74.8 20.9467 74.928 21.512 75.184C22.0773 75.44 22.4933 75.8027 22.76 76.272C23.0373 76.7413 23.176 77.2907 23.176 77.92C23.176 78.3147 23.1013 78.6613 22.952 78.96C22.8133 79.2587 22.6373 79.504 22.424 79.696C22.2213 79.888 22.024 80.032 21.832 80.128C22.248 80.32 22.6107 80.64 22.92 81.088C23.24 81.5253 23.4 82.048 23.4 82.656C23.4 83.328 23.2507 83.9147 22.952 84.416C22.6533 84.9173 22.2107 85.3067 21.624 85.584C21.0373 85.8613 20.3227 86 19.48 86H14.584ZM16.728 84.128H19.176C19.6987 84.128 20.0933 83.984 20.36 83.696C20.6267 83.3973 20.76 83.0453 20.76 82.64C20.76 82.224 20.6213 81.8773 20.344 81.6C20.0773 81.312 19.688 81.168 19.176 81.168H16.728V84.128ZM16.728 79.328H19.032C19.5333 79.328 19.9067 79.2053 20.152 78.96C20.408 78.704 20.536 78.3787 20.536 77.984C20.536 77.5893 20.408 77.2747 20.152 77.04C19.9067 76.7947 19.5333 76.672 19.032 76.672H16.728V79.328ZM27.581 86.16C27.0157 86.16 26.509 86.0533 26.061 85.84C25.613 85.616 25.2557 85.3173 24.989 84.944C24.7223 84.5707 24.589 84.1547 24.589 83.696C24.589 82.9387 24.893 82.3413 25.501 81.904C26.1197 81.4667 26.9303 81.168 27.933 81.008L30.029 80.704V80.416C30.029 80 29.933 79.68 29.741 79.456C29.549 79.232 29.213 79.12 28.733 79.12C28.381 79.12 28.0983 79.1893 27.885 79.328C27.6717 79.4667 27.5063 79.648 27.389 79.872C27.3037 80.0107 27.181 80.08 27.021 80.08H25.501C25.3837 80.08 25.293 80.048 25.229 79.984C25.165 79.9093 25.1383 79.824 25.149 79.728C25.149 79.5467 25.2183 79.3333 25.357 79.088C25.4957 78.8427 25.709 78.6027 25.997 78.368C26.285 78.1227 26.653 77.92 27.101 77.76C27.549 77.6 28.0983 77.52 28.749 77.52C29.421 77.52 29.997 77.6 30.477 77.76C30.957 77.92 31.341 78.144 31.629 78.432C31.917 78.72 32.1303 79.056 32.269 79.44C32.4077 79.8133 32.477 80.2187 32.477 80.656V85.6C32.477 85.7173 32.4397 85.8133 32.365 85.888C32.2903 85.9627 32.1943 86 32.077 86H30.509C30.4023 86 30.3117 85.9627 30.237 85.888C30.1623 85.8133 30.125 85.7173 30.125 85.6V85.008C29.9863 85.2107 29.7997 85.4027 29.565 85.584C29.3303 85.7547 29.0477 85.8933 28.717 86C28.397 86.1067 28.0183 86.16 27.581 86.16ZM28.221 84.496C28.573 84.496 28.8877 84.4213 29.165 84.272C29.4423 84.1227 29.661 83.8933 29.821 83.584C29.981 83.2747 30.061 82.8853 30.061 82.416V82.144L28.573 82.384C27.997 82.48 27.5757 82.624 27.309 82.816C27.0423 83.008 26.909 83.2427 26.909 83.52C26.909 83.7227 26.9677 83.8987 27.085 84.048C27.213 84.1973 27.3783 84.3093 27.581 84.384C27.7837 84.4587 27.997 84.496 28.221 84.496ZM34.8143 86C34.6969 86 34.6009 85.9627 34.5263 85.888C34.4516 85.8133 34.4143 85.7173 34.4143 85.6V75.04C34.4143 74.9227 34.4516 74.8267 34.5263 74.752C34.6009 74.6773 34.6969 74.64 34.8143 74.64H36.4143C36.5209 74.64 36.6116 74.6773 36.6863 74.752C36.7609 74.8267 36.7983 74.9227 36.7983 75.04V85.6C36.7983 85.7173 36.7609 85.8133 36.6863 85.888C36.6116 85.9627 36.5209 86 36.4143 86H34.8143ZM41.2685 86.16C40.7032 86.16 40.1965 86.0533 39.7485 85.84C39.3005 85.616 38.9432 85.3173 38.6765 84.944C38.4098 84.5707 38.2765 84.1547 38.2765 83.696C38.2765 82.9387 38.5805 82.3413 39.1885 81.904C39.8072 81.4667 40.6178 81.168 41.6205 81.008L43.7165 80.704V80.416C43.7165 80 43.6205 79.68 43.4285 79.456C43.2365 79.232 42.9005 79.12 42.4205 79.12C42.0685 79.12 41.7858 79.1893 41.5725 79.328C41.3592 79.4667 41.1938 79.648 41.0765 79.872C40.9912 80.0107 40.8685 80.08 40.7085 80.08H39.1885C39.0712 80.08 38.9805 80.048 38.9165 79.984C38.8525 79.9093 38.8258 79.824 38.8365 79.728C38.8365 79.5467 38.9058 79.3333 39.0445 79.088C39.1832 78.8427 39.3965 78.6027 39.6845 78.368C39.9725 78.1227 40.3405 77.92 40.7885 77.76C41.2365 77.6 41.7858 77.52 42.4365 77.52C43.1085 77.52 43.6845 77.6 44.1645 77.76C44.6445 77.92 45.0285 78.144 45.3165 78.432C45.6045 78.72 45.8178 79.056 45.9565 79.44C46.0952 79.8133 46.1645 80.2187 46.1645 80.656V85.6C46.1645 85.7173 46.1272 85.8133 46.0525 85.888C45.9778 85.9627 45.8818 86 45.7645 86H44.1965C44.0898 86 43.9992 85.9627 43.9245 85.888C43.8498 85.8133 43.8125 85.7173 43.8125 85.6V85.008C43.6738 85.2107 43.4872 85.4027 43.2525 85.584C43.0178 85.7547 42.7352 85.8933 42.4045 86C42.0845 86.1067 41.7058 86.16 41.2685 86.16ZM41.9085 84.496C42.2605 84.496 42.5752 84.4213 42.8525 84.272C43.1298 84.1227 43.3485 83.8933 43.5085 83.584C43.6685 83.2747 43.7485 82.8853 43.7485 82.416V82.144L42.2605 82.384C41.6845 82.48 41.2632 82.624 40.9965 82.816C40.7298 83.008 40.5965 83.2427 40.5965 83.52C40.5965 83.7227 40.6552 83.8987 40.7725 84.048C40.9005 84.1973 41.0658 84.3093 41.2685 84.384C41.4712 84.4587 41.6845 84.496 41.9085 84.496ZM48.4858 86C48.3791 86 48.2884 85.9627 48.2138 85.888C48.1391 85.8133 48.1018 85.7173 48.1018 85.6V78.08C48.1018 77.9627 48.1391 77.8667 48.2138 77.792C48.2884 77.7173 48.3791 77.68 48.4858 77.68H50.0538C50.1711 77.68 50.2671 77.7173 50.3418 77.792C50.4164 77.8667 50.4538 77.9627 50.4538 78.08V78.704C50.7311 78.3627 51.0884 78.08 51.5258 77.856C51.9631 77.632 52.4964 77.52 53.1258 77.52C53.7551 77.52 54.3044 77.664 54.7738 77.952C55.2538 78.2293 55.6271 78.64 55.8938 79.184C56.1711 79.7173 56.3098 80.368 56.3098 81.136V85.6C56.3098 85.7173 56.2671 85.8133 56.1818 85.888C56.1071 85.9627 56.0164 86 55.9097 86H54.2138C54.0964 86 54.0004 85.9627 53.9258 85.888C53.8511 85.8133 53.8138 85.7173 53.8138 85.6V81.232C53.8138 80.6667 53.6751 80.2293 53.3978 79.92C53.1311 79.6 52.7364 79.44 52.2138 79.44C51.7124 79.44 51.3124 79.6 51.0138 79.92C50.7151 80.2293 50.5658 80.6667 50.5658 81.232V85.6C50.5658 85.7173 50.5284 85.8133 50.4538 85.888C50.3791 85.9627 50.2884 86 50.1818 86H48.4858ZM61.9227 86.16C61.1441 86.16 60.4561 86.016 59.8588 85.728C59.2721 85.44 58.8081 85.024 58.4668 84.48C58.1254 83.9253 57.9388 83.264 57.9068 82.496C57.8961 82.3253 57.8908 82.112 57.8908 81.856C57.8908 81.5893 57.8961 81.3707 57.9068 81.2C57.9388 80.4213 58.1201 79.76 58.4508 79.216C58.7921 78.6613 59.2614 78.24 59.8588 77.952C60.4561 77.664 61.1441 77.52 61.9227 77.52C62.6374 77.52 63.2454 77.6213 63.7468 77.824C64.2481 78.016 64.6588 78.2613 64.9788 78.56C65.2988 78.8587 65.5334 79.1733 65.6828 79.504C65.8428 79.824 65.9281 80.1067 65.9388 80.352C65.9494 80.4587 65.9121 80.5547 65.8268 80.64C65.7521 80.7147 65.6614 80.752 65.5548 80.752H63.8428C63.7361 80.752 63.6508 80.7253 63.5868 80.672C63.5334 80.608 63.4801 80.5227 63.4268 80.416C63.2774 80.0427 63.0854 79.776 62.8508 79.616C62.6161 79.456 62.3228 79.376 61.9708 79.376C61.4908 79.376 61.1121 79.5307 60.8348 79.84C60.5574 80.1493 60.4081 80.6293 60.3868 81.28C60.3761 81.696 60.3761 82.0747 60.3868 82.416C60.4188 83.0773 60.5681 83.5573 60.8348 83.856C61.1121 84.1547 61.4908 84.304 61.9708 84.304C62.3441 84.304 62.6428 84.224 62.8668 84.064C63.0908 83.904 63.2774 83.6373 63.4268 83.264C63.4694 83.1573 63.5228 83.0773 63.5868 83.024C63.6508 82.96 63.7361 82.928 63.8428 82.928H65.5548C65.6614 82.928 65.7521 82.9707 65.8268 83.056C65.9121 83.1307 65.9494 83.2213 65.9388 83.328C65.9281 83.5093 65.8748 83.7227 65.7788 83.968C65.6934 84.2133 65.5494 84.464 65.3468 84.72C65.1548 84.976 64.9041 85.216 64.5948 85.44C64.2854 85.6533 63.9068 85.8293 63.4588 85.968C63.0214 86.096 62.5094 86.16 61.9227 86.16ZM71.22 86.16C69.9933 86.16 69.0173 85.8187 68.292 85.136C67.5773 84.4533 67.1987 83.4613 67.156 82.16C67.156 82.0747 67.156 81.9627 67.156 81.824C67.156 81.6747 67.156 81.5573 67.156 81.472C67.1987 80.6507 67.3853 79.9467 67.716 79.36C68.0467 78.7627 68.5107 78.3093 69.108 78C69.7053 77.68 70.404 77.52 71.204 77.52C72.1 77.52 72.8467 77.7067 73.444 78.08C74.052 78.4427 74.5053 78.944 74.804 79.584C75.1133 80.2133 75.268 80.9387 75.268 81.76V82.128C75.268 82.2347 75.2253 82.3253 75.14 82.4C75.0653 82.4747 74.9747 82.512 74.868 82.512H69.636C69.636 82.5227 69.636 82.544 69.636 82.576C69.636 82.5973 69.636 82.6187 69.636 82.64C69.6467 82.9813 69.7107 83.296 69.828 83.584C69.956 83.8613 70.132 84.0853 70.356 84.256C70.5907 84.4267 70.868 84.512 71.188 84.512C71.4547 84.512 71.6733 84.4747 71.844 84.4C72.0147 84.3253 72.1533 84.2347 72.26 84.128C72.3773 84.0213 72.4627 83.9307 72.516 83.856C72.612 83.7493 72.6867 83.6853 72.74 83.664C72.804 83.632 72.9 83.616 73.028 83.616H74.692C74.7987 83.616 74.884 83.648 74.948 83.712C75.0227 83.7653 75.0547 83.8453 75.044 83.952C75.0333 84.1227 74.9427 84.336 74.772 84.592C74.612 84.8373 74.372 85.0827 74.052 85.328C73.732 85.5627 73.332 85.76 72.852 85.92C72.3827 86.08 71.8387 86.16 71.22 86.16ZM69.636 81.056H72.772V81.024C72.772 80.64 72.708 80.3093 72.58 80.032C72.4627 79.744 72.2867 79.52 72.052 79.36C71.8173 79.2 71.5347 79.12 71.204 79.12C70.8733 79.12 70.5907 79.2 70.356 79.36C70.1213 79.52 69.94 79.744 69.812 80.032C69.6947 80.3093 69.636 80.64 69.636 81.024V81.056ZM77.2194 80.4C77.102 80.4 77.006 80.3627 76.9314 80.288C76.8567 80.2133 76.8194 80.1173 76.8194 80V78.288C76.8194 78.1707 76.8567 78.0747 76.9314 78C77.006 77.9253 77.102 77.888 77.2194 77.888H79.0114C79.1287 77.888 79.2247 77.9253 79.2994 78C79.374 78.0747 79.4114 78.1707 79.4114 78.288V80C79.4114 80.1173 79.374 80.2133 79.2994 80.288C79.2247 80.3627 79.1287 80.4 79.0114 80.4H77.2194ZM77.2194 86C77.102 86 77.006 85.9627 76.9314 85.888C76.8567 85.8133 76.8194 85.7173 76.8194 85.6V83.888C76.8194 83.7707 76.8567 83.6747 76.9314 83.6C77.006 83.5253 77.102 83.488 77.2194 83.488H79.0114C79.1287 83.488 79.2247 83.5253 79.2994 83.6C79.374 83.6747 79.4114 83.7707 79.4114 83.888V85.6C79.4114 85.7173 79.374 85.8133 79.2994 85.888C79.2247 85.9627 79.1287 86 79.0114 86H77.2194ZM86.1459 86C86.0392 86 85.9432 85.9627 85.8579 85.888C85.7832 85.8133 85.7459 85.7173 85.7459 85.6V83.984H84.5619C84.4445 83.984 84.3485 83.9467 84.2739 83.872C84.1992 83.7973 84.1619 83.7067 84.1619 83.6V83.04C84.1619 82.9333 84.1992 82.8427 84.2739 82.768C84.3485 82.6933 84.4445 82.656 84.5619 82.656H85.7459V81.824H84.5619C84.4445 81.824 84.3485 81.7867 84.2739 81.712C84.1992 81.6373 84.1619 81.5413 84.1619 81.424V80.384C84.1619 80.2773 84.1992 80.1867 84.2739 80.112C84.3485 80.0373 84.4445 80 84.5619 80H85.7459V75.2C85.7459 75.0827 85.7832 74.9867 85.8579 74.912C85.9432 74.8373 86.0392 74.8 86.1459 74.8H90.5299C91.3939 74.8 92.1405 74.9333 92.7699 75.2C93.4099 75.4667 93.9059 75.872 94.2579 76.416C94.6099 76.9493 94.7859 77.616 94.7859 78.416C94.7859 79.1947 94.6099 79.8347 94.2579 80.336C93.9059 80.8373 93.4099 81.2107 92.7699 81.456C92.1405 81.7013 91.3939 81.824 90.5299 81.824H88.3699V82.656H90.7699C90.8765 82.656 90.9672 82.6933 91.0419 82.768C91.1165 82.8427 91.1539 82.9333 91.1539 83.04V83.6C91.1539 83.7067 91.1165 83.7973 91.0419 83.872C90.9672 83.9467 90.8765 83.984 90.7699 83.984H88.3699V85.6C88.3699 85.7173 88.3325 85.8133 88.2579 85.888C88.1832 85.9627 88.0872 86 87.9699 86H86.1459ZM88.3379 80H90.4499C90.9832 80 91.3992 79.8667 91.6979 79.6C92.0072 79.3333 92.1619 78.9333 92.1619 78.4C92.1619 77.9307 92.0232 77.5467 91.7459 77.248C91.4792 76.9493 91.0472 76.8 90.4499 76.8H88.3379V80ZM100.258 86.176C99.298 86.176 98.4927 86.0213 97.842 85.712C97.1913 85.4027 96.6953 84.9973 96.354 84.496C96.0233 83.9947 95.8473 83.4613 95.826 82.896C95.826 82.8 95.858 82.72 95.922 82.656C95.986 82.592 96.066 82.56 96.162 82.56H97.97C98.098 82.56 98.1993 82.592 98.274 82.656C98.3593 82.7093 98.4233 82.784 98.466 82.88C98.5727 83.168 98.7113 83.4027 98.882 83.584C99.0633 83.7653 99.2713 83.8987 99.506 83.984C99.7407 84.0693 99.9913 84.112 100.258 84.112C100.599 84.112 100.914 84.0427 101.202 83.904C101.49 83.7547 101.719 83.5413 101.89 83.264C102.061 82.9867 102.146 82.6453 102.146 82.24C102.146 81.888 102.066 81.5787 101.906 81.312C101.746 81.0453 101.522 80.8373 101.234 80.688C100.946 80.5387 100.621 80.464 100.258 80.464C99.9807 80.464 99.7513 80.496 99.57 80.56C99.3993 80.624 99.2553 80.704 99.138 80.8C99.0207 80.8853 98.914 80.9653 98.818 81.04C98.722 81.104 98.6153 81.136 98.498 81.136H96.722C96.626 81.136 96.5407 81.104 96.466 81.04C96.402 80.9653 96.37 80.88 96.37 80.784L96.93 75.264C96.9513 75.1147 97.0047 75.0027 97.09 74.928C97.186 74.8427 97.298 74.8 97.426 74.8H103.634C103.751 74.8 103.847 74.8373 103.922 74.912C103.997 74.9867 104.034 75.0827 104.034 75.2V76.48C104.034 76.5867 103.997 76.6773 103.922 76.752C103.847 76.8267 103.751 76.864 103.634 76.864H99.01L98.77 79.216C98.9833 79.0773 99.2447 78.9547 99.554 78.848C99.874 78.7307 100.317 78.672 100.882 78.672C101.394 78.672 101.879 78.7573 102.338 78.928C102.807 79.088 103.223 79.328 103.586 79.648C103.949 79.968 104.231 80.352 104.434 80.8C104.647 81.2373 104.754 81.7387 104.754 82.304C104.754 83.072 104.573 83.7493 104.21 84.336C103.847 84.912 103.33 85.3653 102.658 85.696C101.986 86.016 101.186 86.176 100.258 86.176ZM110.703 86.16C109.935 86.16 109.274 86.0533 108.719 85.84C108.175 85.616 107.722 85.312 107.359 84.928C107.007 84.5333 106.741 84.08 106.559 83.568C106.389 83.0453 106.287 82.4907 106.255 81.904C106.245 81.616 106.234 81.296 106.223 80.944C106.223 80.5813 106.223 80.2187 106.223 79.856C106.234 79.4933 106.245 79.1627 106.255 78.864C106.277 78.2773 106.378 77.728 106.559 77.216C106.751 76.704 107.029 76.256 107.391 75.872C107.754 75.488 108.207 75.1893 108.751 74.976C109.306 74.752 109.957 74.64 110.703 74.64C111.45 74.64 112.095 74.752 112.639 74.976C113.183 75.1893 113.637 75.488 113.999 75.872C114.362 76.256 114.634 76.704 114.815 77.216C115.007 77.728 115.119 78.2773 115.151 78.864C115.162 79.1627 115.167 79.4933 115.167 79.856C115.178 80.2187 115.178 80.5813 115.167 80.944C115.167 81.296 115.162 81.616 115.151 81.904C115.119 82.4907 115.013 83.0453 114.831 83.568C114.65 84.08 114.378 84.5333 114.015 84.928C113.663 85.312 113.21 85.616 112.655 85.84C112.111 86.0533 111.461 86.16 110.703 86.16ZM110.703 84.08C111.322 84.08 111.775 83.8773 112.063 83.472C112.351 83.0667 112.506 82.5173 112.527 81.824C112.538 81.5147 112.543 81.1947 112.543 80.864C112.554 80.5333 112.554 80.2027 112.543 79.872C112.543 79.5413 112.538 79.232 112.527 78.944C112.506 78.2827 112.351 77.744 112.063 77.328C111.775 76.912 111.322 76.6987 110.703 76.688C110.074 76.6987 109.615 76.912 109.327 77.328C109.05 77.744 108.901 78.2827 108.879 78.944C108.869 79.232 108.858 79.5413 108.847 79.872C108.847 80.2027 108.847 80.5333 108.847 80.864C108.858 81.1947 108.869 81.5147 108.879 81.824C108.901 82.5173 109.055 83.0667 109.343 83.472C109.631 83.8773 110.085 84.08 110.703 84.08ZM116.802 87.2C116.717 87.2 116.642 87.1627 116.578 87.088C116.525 87.024 116.504 86.944 116.514 86.848L116.962 83.936C116.984 83.7973 117.037 83.6747 117.122 83.568C117.208 83.4613 117.336 83.408 117.506 83.408H119.17C119.256 83.408 119.325 83.44 119.378 83.504C119.442 83.5573 119.474 83.6267 119.474 83.712C119.474 83.776 119.464 83.84 119.442 83.904L118.322 86.768C118.28 86.8747 118.216 86.9707 118.13 87.056C118.056 87.152 117.933 87.2 117.762 87.2H116.802ZM125.453 86.16C124.685 86.16 124.024 86.0533 123.469 85.84C122.925 85.616 122.472 85.312 122.109 84.928C121.757 84.5333 121.491 84.08 121.309 83.568C121.139 83.0453 121.037 82.4907 121.005 81.904C120.995 81.616 120.984 81.296 120.973 80.944C120.973 80.5813 120.973 80.2187 120.973 79.856C120.984 79.4933 120.995 79.1627 121.005 78.864C121.027 78.2773 121.128 77.728 121.309 77.216C121.501 76.704 121.779 76.256 122.141 75.872C122.504 75.488 122.957 75.1893 123.501 74.976C124.056 74.752 124.707 74.64 125.453 74.64C126.2 74.64 126.845 74.752 127.389 74.976C127.933 75.1893 128.387 75.488 128.749 75.872C129.112 76.256 129.384 76.704 129.565 77.216C129.757 77.728 129.869 78.2773 129.901 78.864C129.912 79.1627 129.917 79.4933 129.917 79.856C129.928 80.2187 129.928 80.5813 129.917 80.944C129.917 81.296 129.912 81.616 129.901 81.904C129.869 82.4907 129.763 83.0453 129.581 83.568C129.4 84.08 129.128 84.5333 128.765 84.928C128.413 85.312 127.96 85.616 127.405 85.84C126.861 86.0533 126.211 86.16 125.453 86.16ZM125.453 84.08C126.072 84.08 126.525 83.8773 126.813 83.472C127.101 83.0667 127.256 82.5173 127.277 81.824C127.288 81.5147 127.293 81.1947 127.293 80.864C127.304 80.5333 127.304 80.2027 127.293 79.872C127.293 79.5413 127.288 79.232 127.277 78.944C127.256 78.2827 127.101 77.744 126.813 77.328C126.525 76.912 126.072 76.6987 125.453 76.688C124.824 76.6987 124.365 76.912 124.077 77.328C123.8 77.744 123.651 78.2827 123.629 78.944C123.619 79.232 123.608 79.5413 123.597 79.872C123.597 80.2027 123.597 80.5333 123.597 80.864C123.608 81.1947 123.619 81.5147 123.629 81.824C123.651 82.5173 123.805 83.0667 124.093 83.472C124.381 83.8773 124.835 84.08 125.453 84.08ZM136.141 86.16C135.373 86.16 134.712 86.0533 134.157 85.84C133.613 85.616 133.16 85.312 132.797 84.928C132.445 84.5333 132.178 84.08 131.997 83.568C131.826 83.0453 131.725 82.4907 131.693 81.904C131.682 81.616 131.672 81.296 131.661 80.944C131.661 80.5813 131.661 80.2187 131.661 79.856C131.672 79.4933 131.682 79.1627 131.693 78.864C131.714 78.2773 131.816 77.728 131.997 77.216C132.189 76.704 132.466 76.256 132.829 75.872C133.192 75.488 133.645 75.1893 134.189 74.976C134.744 74.752 135.394 74.64 136.141 74.64C136.888 74.64 137.533 74.752 138.077 74.976C138.621 75.1893 139.074 75.488 139.437 75.872C139.8 76.256 140.072 76.704 140.253 77.216C140.445 77.728 140.557 78.2773 140.589 78.864C140.6 79.1627 140.605 79.4933 140.605 79.856C140.616 80.2187 140.616 80.5813 140.605 80.944C140.605 81.296 140.6 81.616 140.589 81.904C140.557 82.4907 140.45 83.0453 140.269 83.568C140.088 84.08 139.816 84.5333 139.453 84.928C139.101 85.312 138.648 85.616 138.093 85.84C137.549 86.0533 136.898 86.16 136.141 86.16ZM136.141 84.08C136.76 84.08 137.213 83.8773 137.501 83.472C137.789 83.0667 137.944 82.5173 137.965 81.824C137.976 81.5147 137.981 81.1947 137.981 80.864C137.992 80.5333 137.992 80.2027 137.981 79.872C137.981 79.5413 137.976 79.232 137.965 78.944C137.944 78.2827 137.789 77.744 137.501 77.328C137.213 76.912 136.76 76.6987 136.141 76.688C135.512 76.6987 135.053 76.912 134.765 77.328C134.488 77.744 134.338 78.2827 134.317 78.944C134.306 79.232 134.296 79.5413 134.285 79.872C134.285 80.2027 134.285 80.5333 134.285 80.864C134.296 81.1947 134.306 81.5147 134.317 81.824C134.338 82.5173 134.493 83.0667 134.781 83.472C135.069 83.8773 135.522 84.08 136.141 84.08ZM146.828 86.16C146.06 86.16 145.399 86.0533 144.844 85.84C144.3 85.616 143.847 85.312 143.484 84.928C143.132 84.5333 142.866 84.08 142.684 83.568C142.514 83.0453 142.412 82.4907 142.38 81.904C142.37 81.616 142.359 81.296 142.348 80.944C142.348 80.5813 142.348 80.2187 142.348 79.856C142.359 79.4933 142.37 79.1627 142.38 78.864C142.402 78.2773 142.503 77.728 142.684 77.216C142.876 76.704 143.154 76.256 143.516 75.872C143.879 75.488 144.332 75.1893 144.876 74.976C145.431 74.752 146.082 74.64 146.828 74.64C147.575 74.64 148.22 74.752 148.764 74.976C149.308 75.1893 149.762 75.488 150.124 75.872C150.487 76.256 150.759 76.704 150.94 77.216C151.132 77.728 151.244 78.2773 151.276 78.864C151.287 79.1627 151.292 79.4933 151.292 79.856C151.303 80.2187 151.303 80.5813 151.292 80.944C151.292 81.296 151.287 81.616 151.276 81.904C151.244 82.4907 151.138 83.0453 150.956 83.568C150.775 84.08 150.503 84.5333 150.14 84.928C149.788 85.312 149.335 85.616 148.78 85.84C148.236 86.0533 147.586 86.16 146.828 86.16ZM146.828 84.08C147.447 84.08 147.9 83.8773 148.188 83.472C148.476 83.0667 148.631 82.5173 148.652 81.824C148.663 81.5147 148.668 81.1947 148.668 80.864C148.679 80.5333 148.679 80.2027 148.668 79.872C148.668 79.5413 148.663 79.232 148.652 78.944C148.631 78.2827 148.476 77.744 148.188 77.328C147.9 76.912 147.447 76.6987 146.828 76.688C146.199 76.6987 145.74 76.912 145.452 77.328C145.175 77.744 145.026 78.2827 145.004 78.944C144.994 79.232 144.983 79.5413 144.972 79.872C144.972 80.2027 144.972 80.5333 144.972 80.864C144.983 81.1947 144.994 81.5147 145.004 81.824C145.026 82.5173 145.18 83.0667 145.468 83.472C145.756 83.8773 146.21 84.08 146.828 84.08Z" fill="#E0E0E0"/>
<path d="M16.04 105.1C15.5 105.1 15.04 105.013 14.66 104.84C14.2867 104.667 14 104.443 13.8 104.17C13.6 103.897 13.4933 103.607 13.48 103.3C13.48 103.247 13.5 103.2 13.54 103.16C13.58 103.12 13.63 103.1 13.69 103.1H13.89C13.9567 103.1 14.0067 103.12 14.04 103.16C14.08 103.2 14.1033 103.247 14.11 103.3C14.1367 103.487 14.22 103.673 14.36 103.86C14.5 104.04 14.7067 104.193 14.98 104.32C15.2533 104.44 15.6067 104.5 16.04 104.5C16.6933 104.5 17.17 104.383 17.47 104.15C17.77 103.91 17.92 103.59 17.92 103.19C17.92 102.923 17.84 102.71 17.68 102.55C17.5267 102.383 17.29 102.237 16.97 102.11C16.65 101.977 16.24 101.83 15.74 101.67C15.2667 101.517 14.8767 101.36 14.57 101.2C14.2633 101.033 14.0367 100.833 13.89 100.6C13.75 100.367 13.68 100.067 13.68 99.7C13.68 99.36 13.77 99.0567 13.95 98.79C14.13 98.5167 14.39 98.3 14.73 98.14C15.0767 97.98 15.4967 97.9 15.99 97.9C16.3833 97.9 16.7267 97.9533 17.02 98.06C17.3133 98.1667 17.5567 98.31 17.75 98.49C17.9433 98.6633 18.09 98.8533 18.19 99.06C18.29 99.26 18.3433 99.4567 18.35 99.65C18.35 99.6967 18.3333 99.7433 18.3 99.79C18.2667 99.83 18.2133 99.85 18.14 99.85H17.94C17.9067 99.85 17.8633 99.8367 17.81 99.81C17.7633 99.7833 17.7333 99.73 17.72 99.65C17.68 99.3167 17.5033 99.0433 17.19 98.83C16.8833 98.61 16.4833 98.5 15.99 98.5C15.4967 98.5 15.0933 98.5967 14.78 98.79C14.4667 98.9833 14.31 99.2867 14.31 99.7C14.31 99.9667 14.38 100.187 14.52 100.36C14.66 100.527 14.88 100.677 15.18 100.81C15.48 100.937 15.8667 101.077 16.34 101.23C16.84 101.39 17.2533 101.55 17.58 101.71C17.9067 101.87 18.15 102.067 18.31 102.3C18.47 102.527 18.55 102.823 18.55 103.19C18.55 103.597 18.4467 103.943 18.24 104.23C18.04 104.51 17.7533 104.727 17.38 104.88C17.0067 105.027 16.56 105.1 16.04 105.1ZM20.0947 106.9C20.028 106.9 19.9747 106.88 19.9347 106.84C19.8947 106.8 19.8747 106.747 19.8747 106.68V100.02C19.8747 99.9533 19.8947 99.9 19.9347 99.86C19.9747 99.82 20.028 99.8 20.0947 99.8H20.2647C20.3314 99.8 20.3847 99.82 20.4247 99.86C20.4647 99.9 20.4847 99.9533 20.4847 100.02V100.49C20.6514 100.263 20.868 100.077 21.1347 99.93C21.408 99.7767 21.7514 99.7 22.1647 99.7C22.558 99.7 22.888 99.77 23.1547 99.91C23.4214 100.043 23.638 100.223 23.8047 100.45C23.9714 100.677 24.0947 100.93 24.1747 101.21C24.2547 101.49 24.298 101.777 24.3047 102.07C24.3114 102.17 24.3147 102.28 24.3147 102.4C24.3147 102.52 24.3114 102.63 24.3047 102.73C24.298 103.023 24.2547 103.31 24.1747 103.59C24.0947 103.87 23.9714 104.123 23.8047 104.35C23.638 104.577 23.4214 104.76 23.1547 104.9C22.888 105.033 22.558 105.1 22.1647 105.1C21.7514 105.1 21.408 105.023 21.1347 104.87C20.868 104.717 20.6514 104.53 20.4847 104.31V106.68C20.4847 106.747 20.4647 106.8 20.4247 106.84C20.3847 106.88 20.3314 106.9 20.2647 106.9H20.0947ZM22.1047 104.52C22.498 104.52 22.808 104.433 23.0347 104.26C23.2614 104.087 23.4247 103.86 23.5247 103.58C23.6247 103.3 23.6814 103 23.6947 102.68C23.7014 102.493 23.7014 102.307 23.6947 102.12C23.6814 101.8 23.6247 101.5 23.5247 101.22C23.4247 100.94 23.2614 100.713 23.0347 100.54C22.808 100.367 22.498 100.28 22.1047 100.28C21.7247 100.28 21.418 100.37 21.1847 100.55C20.9514 100.73 20.778 100.957 20.6647 101.23C20.558 101.497 20.498 101.767 20.4847 102.04C20.478 102.14 20.4747 102.27 20.4747 102.43C20.4747 102.59 20.478 102.72 20.4847 102.82C20.4914 103.087 20.5514 103.35 20.6647 103.61C20.7847 103.87 20.9614 104.087 21.1947 104.26C21.4347 104.433 21.738 104.52 22.1047 104.52ZM27.6052 105.1C26.9586 105.1 26.4452 104.89 26.0652 104.47C25.6852 104.043 25.4686 103.487 25.4152 102.8C25.4086 102.7 25.4052 102.567 25.4052 102.4C25.4052 102.233 25.4086 102.1 25.4152 102C25.4486 101.547 25.5552 101.147 25.7352 100.8C25.9152 100.453 26.1619 100.183 26.4752 99.99C26.7952 99.7967 27.1719 99.7 27.6052 99.7C28.0719 99.7 28.4686 99.8033 28.7952 100.01C29.1219 100.217 29.3719 100.513 29.5452 100.9C29.7252 101.287 29.8152 101.747 29.8152 102.28V102.43C29.8152 102.497 29.7919 102.55 29.7452 102.59C29.7052 102.63 29.6519 102.65 29.5852 102.65H26.0252C26.0252 102.65 26.0252 102.663 26.0252 102.69C26.0252 102.717 26.0252 102.737 26.0252 102.75C26.0386 103.05 26.1086 103.337 26.2352 103.61C26.3619 103.877 26.5419 104.097 26.7752 104.27C27.0086 104.437 27.2852 104.52 27.6052 104.52C27.8919 104.52 28.1286 104.477 28.3152 104.39C28.5086 104.303 28.6619 104.21 28.7752 104.11C28.8886 104.003 28.9619 103.923 28.9952 103.87C29.0552 103.783 29.1019 103.733 29.1352 103.72C29.1686 103.7 29.2219 103.69 29.2952 103.69H29.4552C29.5152 103.69 29.5652 103.71 29.6052 103.75C29.6519 103.783 29.6719 103.83 29.6652 103.89C29.6586 103.983 29.6052 104.1 29.5052 104.24C29.4119 104.373 29.2752 104.507 29.0952 104.64C28.9219 104.773 28.7086 104.883 28.4552 104.97C28.2019 105.057 27.9186 105.1 27.6052 105.1ZM26.0252 102.09H29.2052V102.05C29.2052 101.717 29.1419 101.417 29.0152 101.15C28.8886 100.883 28.7052 100.673 28.4652 100.52C28.2252 100.36 27.9386 100.28 27.6052 100.28C27.2719 100.28 26.9852 100.36 26.7452 100.52C26.5119 100.673 26.3319 100.883 26.2052 101.15C26.0852 101.417 26.0252 101.717 26.0252 102.05V102.09ZM31.3542 105C31.2876 105 31.2342 104.98 31.1942 104.94C31.1542 104.9 31.1342 104.847 31.1342 104.78V100.02C31.1342 99.9533 31.1542 99.9 31.1942 99.86C31.2342 99.82 31.2876 99.8 31.3542 99.8H31.5242C31.5909 99.8 31.6442 99.82 31.6842 99.86C31.7242 99.9 31.7442 99.9533 31.7442 100.02V100.49C31.9242 100.257 32.1409 100.067 32.3942 99.92C32.6542 99.7733 32.9976 99.7 33.4242 99.7C33.8776 99.7 34.2542 99.8 34.5542 100C34.8609 100.193 35.0876 100.46 35.2342 100.8C35.3876 101.133 35.4642 101.513 35.4642 101.94V104.78C35.4642 104.847 35.4442 104.9 35.4042 104.94C35.3642 104.98 35.3109 105 35.2442 105H35.0742C35.0076 105 34.9542 104.98 34.9142 104.94C34.8742 104.9 34.8542 104.847 34.8542 104.78V101.99C34.8542 101.457 34.7242 101.04 34.4642 100.74C34.2042 100.433 33.8242 100.28 33.3242 100.28C32.8509 100.28 32.4676 100.433 32.1742 100.74C31.8876 101.04 31.7442 101.457 31.7442 101.99V104.78C31.7442 104.847 31.7242 104.9 31.6842 104.94C31.6442 104.98 31.5909 105 31.5242 105H31.3542ZM38.7045 105C38.3579 105 38.0845 104.927 37.8845 104.78C37.6845 104.633 37.5445 104.433 37.4645 104.18C37.3845 103.927 37.3445 103.643 37.3445 103.33V100.38H36.5645C36.4979 100.38 36.4445 100.36 36.4045 100.32C36.3645 100.28 36.3445 100.227 36.3445 100.16V100.02C36.3445 99.9533 36.3645 99.9 36.4045 99.86C36.4445 99.82 36.4979 99.8 36.5645 99.8H37.3445V98.12C37.3445 98.0533 37.3645 98 37.4045 97.96C37.4445 97.92 37.4979 97.9 37.5645 97.9H37.7345C37.8012 97.9 37.8545 97.92 37.8945 97.96C37.9345 98 37.9545 98.0533 37.9545 98.12V99.8H39.1945C39.2612 99.8 39.3145 99.82 39.3545 99.86C39.3945 99.9 39.4145 99.9533 39.4145 100.02V100.16C39.4145 100.227 39.3945 100.28 39.3545 100.32C39.3145 100.36 39.2612 100.38 39.1945 100.38H37.9545V103.29C37.9545 103.643 38.0112 103.92 38.1245 104.12C38.2445 104.32 38.4545 104.42 38.7545 104.42H39.2945C39.3612 104.42 39.4145 104.44 39.4545 104.48C39.4945 104.52 39.5145 104.573 39.5145 104.64V104.78C39.5145 104.847 39.4945 104.9 39.4545 104.94C39.4145 104.98 39.3612 105 39.2945 105H38.7045ZM40.6983 101.5C40.6316 101.5 40.5783 101.48 40.5383 101.44C40.4983 101.4 40.4783 101.347 40.4783 101.28V100.8C40.4783 100.733 40.4983 100.68 40.5383 100.64C40.5783 100.593 40.6316 100.57 40.6983 100.57H41.1783C41.2449 100.57 41.2983 100.593 41.3383 100.64C41.3849 100.68 41.4083 100.733 41.4083 100.8V101.28C41.4083 101.347 41.3849 101.4 41.3383 101.44C41.2983 101.48 41.2449 101.5 41.1783 101.5H40.6983ZM40.6983 105C40.6316 105 40.5783 104.98 40.5383 104.94C40.4983 104.9 40.4783 104.847 40.4783 104.78V104.3C40.4783 104.233 40.4983 104.18 40.5383 104.14C40.5783 104.093 40.6316 104.07 40.6983 104.07H41.1783C41.2449 104.07 41.2983 104.093 41.3383 104.14C41.3849 104.18 41.4083 104.233 41.4083 104.3V104.78C41.4083 104.847 41.3849 104.9 41.3383 104.94C41.2983 104.98 41.2449 105 41.1783 105H40.6983ZM46.0985 105C46.0318 105 45.9785 104.98 45.9385 104.94C45.8985 104.9 45.8785 104.847 45.8785 104.78V103.34H45.0985C45.0318 103.34 44.9785 103.32 44.9385 103.28C44.8985 103.24 44.8785 103.187 44.8785 103.12V102.96C44.8785 102.893 44.8985 102.84 44.9385 102.8C44.9785 102.76 45.0318 102.74 45.0985 102.74H45.8785V102.14H45.0985C45.0318 102.14 44.9785 102.12 44.9385 102.08C44.8985 102.04 44.8785 101.987 44.8785 101.92V101.76C44.8785 101.693 44.8985 101.64 44.9385 101.6C44.9785 101.56 45.0318 101.54 45.0985 101.54H45.8785V98.23C45.8785 98.1567 45.8985 98.1 45.9385 98.06C45.9785 98.02 46.0318 98 46.0985 98H48.5285C48.9952 98 49.3985 98.08 49.7385 98.24C50.0852 98.3933 50.3518 98.6233 50.5385 98.93C50.7318 99.2367 50.8285 99.6167 50.8285 100.07C50.8285 100.523 50.7318 100.903 50.5385 101.21C50.3518 101.517 50.0852 101.75 49.7385 101.91C49.3985 102.063 48.9952 102.14 48.5285 102.14H46.5085V102.74H48.6985C48.7652 102.74 48.8185 102.76 48.8585 102.8C48.8985 102.84 48.9185 102.893 48.9185 102.96V103.12C48.9185 103.187 48.8985 103.24 48.8585 103.28C48.8185 103.32 48.7652 103.34 48.6985 103.34H46.5085V104.78C46.5085 104.847 46.4885 104.9 46.4485 104.94C46.4085 104.98 46.3518 105 46.2785 105H46.0985ZM46.5085 101.54H48.4785C49.0585 101.54 49.4885 101.413 49.7685 101.16C50.0552 100.907 50.1985 100.543 50.1985 100.07C50.1985 99.5967 50.0552 99.2333 49.7685 98.98C49.4885 98.7267 49.0585 98.6 48.4785 98.6H46.5085V101.54ZM55.2827 105C55.216 105 55.1627 104.98 55.1227 104.94C55.0827 104.9 55.0627 104.847 55.0627 104.78V103.2H51.7627C51.696 103.2 51.6427 103.18 51.6027 103.14C51.5627 103.1 51.5427 103.047 51.5427 102.98V102.82C51.5427 102.807 51.5493 102.77 51.5627 102.71C51.576 102.65 51.606 102.587 51.6527 102.52L54.6927 98.17C54.7727 98.0567 54.896 98 55.0627 98H55.4727C55.5393 98 55.5927 98.02 55.6327 98.06C55.6727 98.1 55.6927 98.1533 55.6927 98.22V102.6H56.6027C56.6693 102.6 56.7227 102.62 56.7627 102.66C56.8027 102.7 56.8227 102.753 56.8227 102.82V102.98C56.8227 103.047 56.8027 103.1 56.7627 103.14C56.7227 103.18 56.6693 103.2 56.6027 103.2H55.6927V104.78C55.6927 104.847 55.6727 104.9 55.6327 104.94C55.5927 104.98 55.5393 105 55.4727 105H55.2827ZM52.3327 102.6H55.0627V98.71L52.3327 102.6ZM59.9699 105.1C59.4833 105.1 59.0699 105.01 58.7299 104.83C58.3966 104.65 58.1399 104.42 57.9599 104.14C57.7799 103.853 57.6833 103.557 57.6699 103.25C57.6633 103.19 57.6799 103.143 57.7199 103.11C57.7599 103.077 57.8099 103.06 57.8699 103.06H58.0599C58.1133 103.06 58.1599 103.073 58.1999 103.1C58.2466 103.127 58.2833 103.19 58.3099 103.29C58.3833 103.577 58.5033 103.81 58.6699 103.99C58.8433 104.17 59.0433 104.3 59.2699 104.38C59.4966 104.46 59.7299 104.5 59.9699 104.5C60.2966 104.5 60.5933 104.433 60.8599 104.3C61.1333 104.167 61.3499 103.97 61.5099 103.71C61.6699 103.45 61.7499 103.133 61.7499 102.76C61.7499 102.413 61.6699 102.12 61.5099 101.88C61.3499 101.633 61.1333 101.447 60.8599 101.32C60.5933 101.187 60.2966 101.12 59.9699 101.12C59.7233 101.12 59.5199 101.15 59.3599 101.21C59.1999 101.27 59.0666 101.34 58.9599 101.42C58.8533 101.5 58.7566 101.57 58.6699 101.63C58.5833 101.69 58.4866 101.72 58.3799 101.72H58.1999C58.1399 101.72 58.0866 101.7 58.0399 101.66C57.9933 101.613 57.9733 101.56 57.9799 101.5L58.2799 98.23C58.2866 98.1567 58.3066 98.1 58.3399 98.06C58.3799 98.02 58.4333 98 58.4999 98H61.7599C61.8266 98 61.8799 98.02 61.9199 98.06C61.9599 98.1 61.9799 98.1533 61.9799 98.22V98.38C61.9799 98.4467 61.9599 98.5 61.9199 98.54C61.8799 98.58 61.8266 98.6 61.7599 98.6H58.8899L58.6799 100.86C58.7533 100.813 58.8933 100.747 59.0999 100.66C59.3066 100.567 59.5966 100.52 59.9699 100.52C60.3033 100.52 60.6133 100.57 60.8999 100.67C61.1933 100.763 61.4499 100.907 61.6699 101.1C61.8966 101.287 62.0699 101.52 62.1899 101.8C62.3166 102.073 62.3799 102.393 62.3799 102.76C62.3799 103.28 62.2699 103.713 62.0499 104.06C61.8366 104.407 61.5466 104.667 61.1799 104.84C60.8199 105.013 60.4166 105.1 59.9699 105.1ZM63.5152 105.75C63.4618 105.75 63.4218 105.73 63.3952 105.69C63.3752 105.65 63.3685 105.6 63.3752 105.54L63.5652 104.34C63.5785 104.26 63.6018 104.197 63.6352 104.15C63.6752 104.097 63.7352 104.07 63.8152 104.07H64.2652C64.3118 104.07 64.3485 104.087 64.3752 104.12C64.4018 104.153 64.4152 104.19 64.4152 104.23C64.4152 104.29 64.4018 104.35 64.3752 104.41L63.9452 105.54C63.9185 105.607 63.8852 105.657 63.8452 105.69C63.8118 105.73 63.7585 105.75 63.6852 105.75H63.5152ZM68.0527 105.1C67.5993 105.1 67.2193 105.027 66.9127 104.88C66.6127 104.733 66.3693 104.533 66.1827 104.28C66.0027 104.02 65.8727 103.723 65.7927 103.39C65.7127 103.057 65.666 102.707 65.6527 102.34C65.6527 102.16 65.6493 101.977 65.6427 101.79C65.6427 101.603 65.6427 101.417 65.6427 101.23C65.6493 101.037 65.6527 100.847 65.6527 100.66C65.6593 100.293 65.7027 99.9433 65.7827 99.61C65.8693 99.2767 66.0027 98.9833 66.1827 98.73C66.3693 98.47 66.6127 98.2667 66.9127 98.12C67.2193 97.9733 67.5993 97.9 68.0527 97.9C68.506 97.9 68.8827 97.9733 69.1827 98.12C69.4893 98.2667 69.7327 98.47 69.9127 98.73C70.0993 98.9833 70.2327 99.2767 70.3127 99.61C70.3993 99.9433 70.446 100.293 70.4527 100.66C70.4593 100.847 70.4627 101.037 70.4627 101.23C70.4627 101.417 70.4627 101.603 70.4627 101.79C70.4627 101.977 70.4593 102.16 70.4527 102.34C70.446 102.707 70.3993 103.057 70.3127 103.39C70.2327 103.723 70.0993 104.02 69.9127 104.28C69.7327 104.533 69.4893 104.733 69.1827 104.88C68.8827 105.027 68.506 105.1 68.0527 105.1ZM68.0527 104.5C68.646 104.5 69.086 104.303 69.3727 103.91C69.6593 103.517 69.8093 102.977 69.8227 102.29C69.8293 102.097 69.8327 101.917 69.8327 101.75C69.8327 101.577 69.8327 101.407 69.8327 101.24C69.8327 101.067 69.8293 100.89 69.8227 100.71C69.8093 100.037 69.6593 99.5 69.3727 99.1C69.086 98.7 68.646 98.5 68.0527 98.5C67.466 98.5 67.026 98.7 66.7327 99.1C66.446 99.5 66.296 100.037 66.2827 100.71C66.2827 100.89 66.2793 101.067 66.2727 101.24C66.2727 101.407 66.2727 101.577 66.2727 101.75C66.2793 101.917 66.2827 102.097 66.2827 102.29C66.296 102.977 66.446 103.517 66.7327 103.91C67.026 104.303 67.466 104.5 68.0527 104.5ZM74.2148 105.1C73.7614 105.1 73.3814 105.027 73.0748 104.88C72.7748 104.733 72.5314 104.533 72.3448 104.28C72.1648 104.02 72.0348 103.723 71.9548 103.39C71.8748 103.057 71.8281 102.707 71.8148 102.34C71.8148 102.16 71.8114 101.977 71.8048 101.79C71.8048 101.603 71.8048 101.417 71.8048 101.23C71.8114 101.037 71.8148 100.847 71.8148 100.66C71.8214 100.293 71.8648 99.9433 71.9448 99.61C72.0314 99.2767 72.1648 98.9833 72.3448 98.73C72.5314 98.47 72.7748 98.2667 73.0748 98.12C73.3814 97.9733 73.7614 97.9 74.2148 97.9C74.6681 97.9 75.0448 97.9733 75.3448 98.12C75.6514 98.2667 75.8948 98.47 76.0748 98.73C76.2614 98.9833 76.3948 99.2767 76.4748 99.61C76.5614 99.9433 76.6081 100.293 76.6148 100.66C76.6214 100.847 76.6248 101.037 76.6248 101.23C76.6248 101.417 76.6248 101.603 76.6248 101.79C76.6248 101.977 76.6214 102.16 76.6148 102.34C76.6081 102.707 76.5614 103.057 76.4748 103.39C76.3948 103.723 76.2614 104.02 76.0748 104.28C75.8948 104.533 75.6514 104.733 75.3448 104.88C75.0448 105.027 74.6681 105.1 74.2148 105.1ZM74.2148 104.5C74.8081 104.5 75.2481 104.303 75.5348 103.91C75.8214 103.517 75.9714 102.977 75.9848 102.29C75.9914 102.097 75.9948 101.917 75.9948 101.75C75.9948 101.577 75.9948 101.407 75.9948 101.24C75.9948 101.067 75.9914 100.89 75.9848 100.71C75.9714 100.037 75.8214 99.5 75.5348 99.1C75.2481 98.7 74.8081 98.5 74.2148 98.5C73.6281 98.5 73.1881 98.7 72.8948 99.1C72.6081 99.5 72.4581 100.037 72.4448 100.71C72.4448 100.89 72.4414 101.067 72.4348 101.24C72.4348 101.407 72.4348 101.577 72.4348 101.75C72.4414 101.917 72.4448 102.097 72.4448 102.29C72.4581 102.977 72.6081 103.517 72.8948 103.91C73.1881 104.303 73.6281 104.5 74.2148 104.5ZM80.3769 105.1C79.9235 105.1 79.5435 105.027 79.2369 104.88C78.9369 104.733 78.6935 104.533 78.5069 104.28C78.3269 104.02 78.1969 103.723 78.1169 103.39C78.0369 103.057 77.9902 102.707 77.9769 102.34C77.9769 102.16 77.9735 101.977 77.9669 101.79C77.9669 101.603 77.9669 101.417 77.9669 101.23C77.9735 101.037 77.9769 100.847 77.9769 100.66C77.9835 100.293 78.0269 99.9433 78.1069 99.61C78.1935 99.2767 78.3269 98.9833 78.5069 98.73C78.6935 98.47 78.9369 98.2667 79.2369 98.12C79.5435 97.9733 79.9235 97.9 80.3769 97.9C80.8302 97.9 81.2069 97.9733 81.5069 98.12C81.8135 98.2667 82.0569 98.47 82.2369 98.73C82.4235 98.9833 82.5569 99.2767 82.6369 99.61C82.7235 99.9433 82.7702 100.293 82.7769 100.66C82.7835 100.847 82.7869 101.037 82.7869 101.23C82.7869 101.417 82.7869 101.603 82.7869 101.79C82.7869 101.977 82.7835 102.16 82.7769 102.34C82.7702 102.707 82.7235 103.057 82.6369 103.39C82.5569 103.723 82.4235 104.02 82.2369 104.28C82.0569 104.533 81.8135 104.733 81.5069 104.88C81.2069 105.027 80.8302 105.1 80.3769 105.1ZM80.3769 104.5C80.9702 104.5 81.4102 104.303 81.6969 103.91C81.9835 103.517 82.1335 102.977 82.1469 102.29C82.1535 102.097 82.1569 101.917 82.1569 101.75C82.1569 101.577 82.1569 101.407 82.1569 101.24C82.1569 101.067 82.1535 100.89 82.1469 100.71C82.1335 100.037 81.9835 99.5 81.6969 99.1C81.4102 98.7 80.9702 98.5 80.3769 98.5C79.7902 98.5 79.3502 98.7 79.0569 99.1C78.7702 99.5 78.6202 100.037 78.6069 100.71C78.6069 100.89 78.6035 101.067 78.5969 101.24C78.5969 101.407 78.5969 101.577 78.5969 101.75C78.6035 101.917 78.6069 102.097 78.6069 102.29C78.6202 102.977 78.7702 103.517 79.0569 103.91C79.3502 104.303 79.7902 104.5 80.3769 104.5Z" fill="#E0E0E0"/>
<defs>
<linearGradient id="paint0_linear_63_1059" x1="456" y1="287" x2="287" y2="5.441e-06" gradientUnits="userSpaceOnUse">
<stop stop-color="#0C3DBB"/>
<stop offset="1" stop-color="#57DAEC"/>
</linearGradient>
</defs>
</svg>
