<svg width="29" height="27" viewBox="0 0 29 27" fill="none" xmlns="http://www.w3.org/2000/svg">
<path d="M10.9547 10.9826L18.5395 11.0455L18.8262 20.4269C18.183 21.9299 15.2749 22.1466 14.8345 22.8247C14.3102 22.1816 11.7796 21.6153 11.0176 20.4269L10.9547 10.9826Z" stroke="#171719" stroke-width="0.843852" stroke-linecap="round" stroke-linejoin="round"/>
<path d="M19.7977 14.6387C25.6838 11.2553 16.4422 7.36148 22.3213 3.71237C23.7195 6.11016 24.3766 9.47265 28.0117 8.93437C28.3892 12.2759 27.2777 12.8701 25.8446 12.8841C26.341 14.8414 27.1379 15.5475 28.2913 16.0368C27.9558 17.2322 27.4455 18.2389 25.7048 18.0152C24.7541 22.8038 23.1253 23.2652 20.3919 22.9086C21.8949 19.8328 20.336 18.2319 21.8949 15.953L19.7977 14.6387Z" stroke="#171719" stroke-width="0.843852" stroke-linecap="round" stroke-linejoin="round"/>
<path d="M12.6044 1H16.8827L16.9736 5.04757L18.5744 6.41074C17.5818 7.57818 16.7569 8.89242 15.0442 9.46565C13.1357 8.94135 12.2479 7.66906 11.2832 6.41074L12.7442 5.01262L12.6044 1Z" stroke="#171719" stroke-width="0.843852" stroke-linecap="round" stroke-linejoin="round"/>
<path d="M11.7515 24.9848C13.7508 26.0614 15.827 26.6067 18.1968 24.9429" stroke="#171719" stroke-width="0.843852" stroke-linecap="round" stroke-linejoin="round"/>
<path d="M9.46565 14.8974C3.57954 11.5069 12.8211 7.61315 6.94203 3.98502C5.54391 6.3828 4.88679 9.74529 1.25166 9.20701C0.874169 12.5485 1.95073 13.1357 3.41876 13.1567C2.95038 15.1071 2.15345 15.8201 1 16.2955C1.33555 17.4839 1.84587 18.4976 3.58653 18.2669C4.53726 23.0554 6.16607 23.5168 8.89941 23.1603C7.39642 20.0844 8.95533 18.4836 7.39642 16.1697L9.46565 14.8974Z" stroke="#171719" stroke-width="0.843852" stroke-linecap="round" stroke-linejoin="round"/>
</svg>
