<svg width="33" height="11" viewBox="0 0 33 11" fill="none" xmlns="http://www.w3.org/2000/svg">
<path d="M23.9462 0.412845C23.416 0.215181 22.5841 1.52588e-05 21.5546 1.52588e-05C18.9222 1.52588e-05 17.0619 1.33013 17.0506 3.23367C17.029 4.63277 18.3694 5.42136 19.3824 5.89287C20.4232 6.37571 20.7712 6.67632 20.766 7.1046C20.7609 7.76451 19.9342 8.05894 19.1734 8.05894C18.1161 8.05894 17.5427 7.91481 16.6583 7.54419L16.3299 7.38874L15.9552 9.58775C16.5986 9.85027 17.7517 10.0809 18.9418 10.1025C21.7461 10.1025 23.5745 8.78371 23.5951 6.75045C23.6167 5.6355 22.8992 4.78925 21.3704 4.09125C20.4479 3.64136 19.8704 3.33457 19.8704 2.87335C19.8704 2.46567 20.3635 2.0374 21.393 2.0374C22.2774 2.02092 22.9002 2.21447 23.3872 2.40699L23.6394 2.5192L24.009 0.401521L23.9462 0.412845ZM30.7893 0.182237H28.7303C28.0868 0.182237 27.6091 0.354163 27.325 0.992453L23.3676 9.96249H26.1668L26.731 8.49339L30.1458 8.49854C30.2313 8.84136 30.4722 9.96146 30.4722 9.96146H32.944L30.7893 0.182237ZM13.26 0.101936H15.9253L14.2575 9.8863H11.5922L13.26 0.0967881V0.101936ZM6.48276 5.49034L6.75558 6.85237L9.36639 0.182237H12.1924L7.98789 9.94601H5.17427L2.86819 1.6781C2.8198 1.53397 2.76112 1.43617 2.61596 1.35175C1.83869 0.944066 0.964641 0.611538 0 0.38093L0.0319145 0.17606H4.33214C4.91174 0.19768 5.38326 0.38093 5.54386 1.00275L6.48276 5.49549V5.49034ZM27.4907 6.49307L28.5583 3.75357C28.5419 3.77931 28.7776 3.19044 28.9114 2.81982L29.0937 3.66092L29.7114 6.4869H27.4907V6.49307Z" fill="#1E1E1E"/>
</svg>
