<svg width="24" height="7" viewBox="0 0 24 7" fill="none" xmlns="http://www.w3.org/2000/svg">
<path d="M16.8503 3.19739V6.63688H18.7612V4.59866H20.9268C21.8376 4.59229 22.6115 4.00949 22.9045 3.19739H16.8503Z" fill="#E0E0E0"/>
<path d="M16.5957 0.363007C16.7072 1.76747 18.0384 2.87893 19.6626 2.87893H22.9842C23.0097 2.75154 23.0225 2.61778 23.0225 2.48084C23.0225 1.31524 22.083 0.372561 20.9205 0.363007H16.5957Z" fill="#E0E0E0"/>
<path d="M13.7676 2.8439C13.7899 2.80568 13.8249 2.78339 13.8695 2.78339C13.9332 2.78339 13.981 2.83434 13.9842 2.89485V6.60504H15.895V0.363007H13.9842C13.7421 0.372561 13.4682 0.54772 13.3663 0.767465L11.8472 4.02861C11.844 4.04135 11.8377 4.05409 11.8313 4.06683C11.809 4.09868 11.7708 4.12097 11.7262 4.12097C11.6561 4.12097 11.5988 4.06364 11.5988 3.99358V0.363007H9.68799V6.60504H11.5988C11.8377 6.59231 12.1052 6.41715 12.2071 6.20059L13.7676 2.85345C13.7644 2.85027 13.7676 2.84708 13.7676 2.8439Z" fill="#E0E0E0"/>
<path d="M6.63373 2.95219L5.51589 6.60506H4.1401L3.02545 2.949C3.01589 2.89168 2.96494 2.84709 2.90124 2.84709C2.83118 2.84709 2.77704 2.90442 2.77704 2.9713V6.60187H0.866211V0.359833H2.50634H2.9936C3.34392 0.359833 3.71334 0.633718 3.81526 0.968113L4.74519 4.00951C4.79296 4.16238 4.86621 4.1592 4.91398 4.00951L5.84392 0.968113C5.94583 0.630534 6.31526 0.359833 6.66557 0.359833H7.15284H8.79296V6.60187H6.88213V2.9713C6.88213 2.9713 6.88213 2.9713 6.88213 2.96811C6.88213 2.89805 6.82481 2.84391 6.75793 2.84391C6.69424 2.84709 6.64328 2.89168 6.63373 2.95219Z" fill="#E0E0E0"/>
</svg>
