<svg width="25" height="25" viewBox="0 0 25 25" fill="none" xmlns="http://www.w3.org/2000/svg">
<path d="M17.7083 3.64589C17.7083 3.50776 17.6535 3.37528 17.5558 3.2776C17.4581 3.17993 17.3256 3.12506 17.1875 3.12506H14.5833C13.272 3.05973 11.9881 3.51609 11.0122 4.39441C10.0363 5.27273 9.44769 6.50161 9.375 7.81256V10.6251H6.77083C6.6327 10.6251 6.50022 10.6799 6.40255 10.7776C6.30487 10.8753 6.25 11.0078 6.25 11.1459V13.8542C6.25 13.9924 6.30487 14.1248 6.40255 14.2225C6.50022 14.3202 6.6327 14.3751 6.77083 14.3751H9.375V21.3542C9.375 21.4924 9.42987 21.6248 9.52755 21.7225C9.62522 21.8202 9.7577 21.8751 9.89583 21.8751H13.0208C13.159 21.8751 13.2914 21.8202 13.3891 21.7225C13.4868 21.6248 13.5417 21.4924 13.5417 21.3542V14.3751H16.2708C16.3867 14.3767 16.4997 14.3397 16.5922 14.2699C16.6846 14.2001 16.7511 14.1015 16.7812 13.9896L17.5312 11.2813C17.552 11.2043 17.5548 11.1237 17.5394 11.0455C17.524 10.9673 17.4909 10.8936 17.4426 10.8302C17.3943 10.7668 17.3321 10.7154 17.2608 10.6798C17.1895 10.6442 17.1109 10.6255 17.0312 10.6251H13.5417V7.81256C13.5676 7.55472 13.6887 7.3158 13.8813 7.14244C14.0739 6.96909 14.3242 6.87376 14.5833 6.87506H17.1875C17.3256 6.87506 17.4581 6.82018 17.5558 6.72251C17.6535 6.62483 17.7083 6.49236 17.7083 6.35422V3.64589Z" fill="#E0E0E0"/>
</svg>
