<svg width="43" height="25" viewBox="0 0 43 25" fill="none" xmlns="http://www.w3.org/2000/svg">
<path fill-rule="evenodd" clip-rule="evenodd" d="M41.8738 1.69284C42.1716 0.717036 41.8738 0 40.4559 0H35.7673C34.5752 0 34.0255 0.619411 33.7275 1.30243C33.7275 1.30243 31.343 7.01084 27.9654 10.7187C26.8727 11.7921 26.3759 12.1337 25.7798 12.1337C25.4818 12.1337 25.0346 11.7921 25.0346 10.8164V1.69284C25.0346 0.521875 24.7045 0 23.7109 0H16.3431C15.5981 0 15.1501 0.543464 15.1501 1.05854C15.1501 2.16859 16.8388 2.42459 17.0129 5.54716V12.3289C17.0129 13.8157 16.7395 14.0854 16.1434 14.0854C14.554 14.0854 10.6876 8.35146 8.39452 1.79038C7.94513 0.515125 7.49439 0 6.29613 0H1.60753C0.267936 0 0 0.619411 0 1.30243C0 2.52221 1.58954 8.57213 7.40114 16.5736C11.2755 22.0379 16.7343 25 21.7014 25C24.6818 25 25.0505 24.3421 25.0505 23.2089V19.0789C25.0505 17.7632 25.3329 17.5005 26.2766 17.5005C26.972 17.5005 28.1641 17.8421 30.9457 20.4768C34.1248 23.5993 34.6489 25 36.437 25H41.1257C42.4652 25 43.135 24.3421 42.7486 23.0437C42.3257 21.7498 40.808 19.8725 38.7941 17.647C37.7013 16.3784 36.062 15.0123 35.5652 14.3291C34.8698 13.4511 35.0686 13.0607 35.5652 12.2802C35.5652 12.2802 41.2777 4.3762 41.8738 1.69284Z" fill="#E0E0E0"/>
</svg>
