<svg width="25" height="25" viewBox="0 0 25 25" fill="none" xmlns="http://www.w3.org/2000/svg">
<path d="M18.2292 14.5833C17.9242 15.6441 17.3198 16.5946 16.4884 17.3206C15.657 18.0467 14.6339 18.5177 13.5417 18.677C12.6875 18.801 11.8172 18.751 10.9828 18.5302C10.1485 18.3094 9.36733 17.9222 8.68632 17.392C8.00531 16.8618 7.43846 16.1994 7.0198 15.4447C6.60114 14.69 6.3393 13.8584 6.25001 13C6.18083 12.1381 6.29122 11.2713 6.57419 10.4544C6.85716 9.6374 7.30656 8.88803 7.89397 8.25363C8.48138 7.61922 9.19402 7.1136 9.98684 6.76871C10.7797 6.42383 11.6354 6.24719 12.5 6.24996C13.3102 6.2511 14.1127 6.40665 14.8646 6.70829C14.983 6.76145 15.117 6.76848 15.2403 6.72802C15.3636 6.68756 15.4674 6.60251 15.5313 6.48954L17.0313 3.72912C17.0635 3.66554 17.083 3.59621 17.0884 3.52511C17.0938 3.45401 17.0852 3.38253 17.0629 3.31479C17.0406 3.24704 17.0052 3.18435 16.9587 3.13033C16.9121 3.0763 16.8554 3.032 16.7917 2.99996C15.181 2.2707 13.4111 1.96344 11.6489 2.10711C9.88661 2.25079 8.18992 2.84067 6.7186 3.8212C5.24729 4.80173 4.04977 6.14063 3.23884 7.71181C2.42791 9.28299 2.03026 11.0347 2.08334 12.802C2.18599 15.4269 3.26498 17.9189 5.10894 19.7899C6.9529 21.6608 9.42896 22.7759 12.0521 22.9166C14.7999 23.0385 17.4844 22.0686 19.5198 20.2186C21.5553 18.3685 22.7763 15.7886 22.9167 13.0416C22.9167 12.8333 22.9167 11.6354 22.9167 10.9583C22.914 10.821 22.8583 10.6901 22.7612 10.593C22.6641 10.4959 22.5331 10.4401 22.3958 10.4375H13.0208C12.8827 10.4375 12.7502 10.4923 12.6526 10.59C12.5549 10.6877 12.5 10.8202 12.5 10.9583V14.0833C12.5 14.2214 12.5549 14.3539 12.6526 14.4516C12.7502 14.5493 12.8827 14.6041 13.0208 14.6041H18.2292" fill="#E0E0E0"/>
</svg>
