<svg width="31" height="25" viewBox="0 0 31 25" fill="none" xmlns="http://www.w3.org/2000/svg">
<path d="M30.6988 2.97866C29.5675 3.47463 28.3564 3.81584 27.08 3.97059C28.3824 3.18916 29.3781 1.95309 29.8529 0.480584C28.6313 1.19185 27.2799 1.70704 25.8429 1.99827C24.6972 0.771819 23.0594 0 21.2418 0C17.7576 0 14.9337 2.82295 14.9337 6.30238C14.9337 6.80315 14.9942 7.28374 15.099 7.73933C9.85775 7.49423 5.21146 4.97597 2.104 1.17166C1.55805 2.09823 1.2476 3.17474 1.2476 4.34641C1.2476 6.53883 2.36351 8.46117 4.05036 9.5915C3.01903 9.56171 2.04825 9.27624 1.19762 8.80623V8.88216C1.19762 11.9396 3.36986 14.4887 6.25336 15.0692C5.7276 15.2086 5.16628 15.2893 4.59631 15.2893C4.19166 15.2893 3.80527 15.2499 3.41984 15.1788C4.23106 17.6817 6.55325 19.504 9.32141 19.5588C7.16936 21.2457 4.44156 22.2511 1.50231 22.2511C1.00154 22.2511 0.50173 22.227 0 22.1665C2.80373 23.9542 6.11303 25 9.68762 25C21.286 25 27.624 15.3931 27.624 7.07324C27.624 6.80796 27.624 6.53787 27.6038 6.26682C28.8408 5.38543 29.9116 4.26855 30.7574 3.00269L30.6988 2.97866Z" fill="#E0E0E0"/>
</svg>
