<svg width="92" height="89" viewBox="0 0 92 89" fill="none" xmlns="http://www.w3.org/2000/svg">
<path d="M20.7666 54.8243C21.223 55.6887 21.7002 56.5739 22.1981 57.4867C22.2604 57.3622 22.3571 57.1893 22.4816 56.9611C22.6061 56.7329 22.7445 56.4701 22.9104 56.1728C23.0695 55.8754 23.2424 55.5573 23.4291 55.2116C23.6158 54.8658 23.8025 54.52 23.9892 54.1604C24.1759 53.8008 24.3695 53.4551 24.5562 53.1162C24.7429 52.7774 24.9158 52.4523 25.0818 52.155H25.2063C25.2754 52.7774 25.3446 53.3721 25.4068 53.953C25.4691 54.5269 25.5312 55.1009 25.5935 55.6541C25.6557 56.2143 25.7249 56.7675 25.7871 57.3069C25.8494 57.8532 25.9255 58.3926 26.0015 58.9251C25.9255 58.9113 25.8494 58.9043 25.7733 58.9043C25.6972 58.9043 25.6212 58.9043 25.5451 58.9043C25.469 58.9043 25.393 58.9043 25.3169 58.9043C25.2409 58.9043 25.1647 58.9113 25.0887 58.9251C25.0195 58.0676 24.9435 57.2378 24.8744 56.4287C24.8052 55.6196 24.7153 54.7967 24.6116 53.9599H24.5908C24.1482 54.7759 23.7056 55.5781 23.2769 56.3872C22.8481 57.1894 22.4401 58.033 22.0529 58.9112H21.9629C21.5757 58.0952 21.1678 57.2862 20.7459 56.4632C20.3241 55.6472 19.8953 54.8105 19.4735 53.9599H19.4528C19.4044 54.361 19.3559 54.7967 19.3006 55.26C19.2453 55.7302 19.1969 56.1866 19.1485 56.643C19.1 57.0995 19.0654 57.5282 19.0309 57.9293C18.9963 58.3304 18.9825 58.6623 18.9825 58.9182C18.8788 58.9043 18.7681 58.8974 18.6437 58.8974C18.5192 58.8974 18.4085 58.9043 18.3048 58.9182C18.3878 58.3926 18.4777 57.8463 18.5676 57.2654C18.6575 56.6845 18.7474 56.1036 18.8304 55.5158C18.9134 54.928 18.9894 54.3472 19.0655 53.7801C19.1415 53.213 19.1969 52.6667 19.2522 52.1481H19.4182C19.8607 53.0678 20.3102 53.9599 20.7666 54.8243Z" fill="#E1EE86"/>
<path d="M28.5463 55.6196C28.5463 55.0733 28.6362 54.5823 28.8091 54.1535C28.9889 53.7248 29.2379 53.3583 29.556 53.0609C29.8741 52.7635 30.2613 52.5354 30.7039 52.3832C31.1465 52.2311 31.6375 52.1481 32.163 52.1481C32.6955 52.1481 33.1865 52.2242 33.636 52.3832C34.0786 52.5354 34.4658 52.7635 34.7839 53.0609C35.102 53.3583 35.3511 53.7179 35.5309 54.1535C35.7107 54.5823 35.7936 55.0733 35.7936 55.6196C35.7936 56.1659 35.7037 56.6569 35.5309 57.0856C35.3511 57.5144 35.102 57.8809 34.7839 58.1782C34.4658 58.4756 34.0786 58.6969 33.636 58.8421C33.1934 58.9873 32.7024 59.0634 32.163 59.0634C31.6305 59.0634 31.1465 58.9873 30.7039 58.8421C30.2613 58.6969 29.8741 58.4756 29.556 58.1782C29.2379 57.8809 28.9889 57.5213 28.8091 57.0856C28.6293 56.6569 28.5463 56.1659 28.5463 55.6196ZM34.8462 55.6196C34.8462 55.0802 34.7771 54.6238 34.6457 54.2296C34.5074 53.8423 34.3206 53.5173 34.0786 53.2615C33.8365 53.0056 33.553 52.8189 33.228 52.6944C32.903 52.5699 32.5503 52.5077 32.1699 52.5077C31.7965 52.5077 31.4439 52.5699 31.1189 52.6944C30.7939 52.8189 30.5103 53.0056 30.2682 53.2615C30.0262 53.5173 29.8395 53.8354 29.7012 54.2296C29.5629 54.6238 29.5006 55.0802 29.5006 55.6196C29.5006 56.1521 29.5698 56.6154 29.7012 57.0096C29.8326 57.4037 30.0262 57.7218 30.2682 57.9777C30.5103 58.2336 30.7939 58.4203 31.1189 58.5448C31.4439 58.6693 31.7965 58.7315 32.1699 58.7315C32.5503 58.7315 32.903 58.6693 33.228 58.5448C33.553 58.4203 33.8365 58.2336 34.0786 57.9777C34.3206 57.7218 34.5074 57.4037 34.6457 57.0096C34.7771 56.6154 34.8462 56.1521 34.8462 55.6196Z" fill="#E1EE86"/>
<path d="M41.9137 56.4149C41.0769 55.5159 40.2332 54.6169 39.3965 53.7318C39.3896 53.9116 39.3826 54.1536 39.3757 54.4579C39.3688 54.7621 39.3688 55.1771 39.3688 55.6957C39.3688 55.834 39.3688 56 39.3757 56.2005C39.3757 56.4011 39.3826 56.6085 39.3826 56.8298C39.3826 57.0511 39.3896 57.2724 39.3965 57.5006C39.4034 57.7288 39.4103 57.9362 39.4173 58.1299C39.4242 58.3235 39.431 58.4895 39.4379 58.6347C39.4449 58.7799 39.4518 58.8768 39.4587 58.9321C39.355 58.9182 39.2443 58.9113 39.1199 58.9113C38.9885 58.9113 38.8709 58.9182 38.7603 58.9321C38.7741 58.8698 38.788 58.7453 38.8018 58.5725C38.8156 58.3996 38.8294 58.1921 38.8432 57.9501C38.8571 57.708 38.8709 57.4453 38.8848 57.1618C38.8986 56.8782 38.9124 56.5947 38.9262 56.3111C38.9331 56.0276 38.947 55.751 38.9539 55.4813C38.9608 55.2116 38.9608 54.9696 38.9608 54.7552C38.9608 54.1328 38.9608 53.6003 38.9539 53.1578C38.9539 52.7152 38.94 52.3833 38.9262 52.162H39.0783C39.4725 52.5907 39.8944 53.0472 40.3439 53.5312C40.7934 54.0153 41.2359 54.4993 41.6785 54.9765C42.1211 55.4537 42.543 55.8962 42.9371 56.325C43.3313 56.7468 43.684 57.1064 43.9744 57.4038V56.0899C43.9744 55.4122 43.9675 54.7552 43.9606 54.1121C43.9537 53.469 43.9329 52.8673 43.8984 52.3003C44.0298 52.3349 44.1335 52.3487 44.2303 52.3487C44.3064 52.3487 44.41 52.3349 44.5414 52.3003C44.5276 52.4455 44.5138 52.6529 44.5 52.9365C44.4862 53.22 44.4654 53.5243 44.4515 53.8493C44.4377 54.1743 44.4239 54.4855 44.4101 54.7967C44.3963 55.1079 44.3893 55.3568 44.3893 55.5436C44.3893 55.7026 44.3893 55.8963 44.3893 56.1245C44.3893 56.3458 44.3893 56.574 44.3962 56.8091C44.3962 57.0511 44.4032 57.2862 44.4032 57.5282C44.4032 57.7703 44.4101 57.9985 44.4101 58.2059C44.4101 58.4134 44.417 58.6001 44.417 58.7523C44.417 58.8975 44.417 59.0012 44.417 59.0703H44.2787C43.5456 58.1921 42.7504 57.3139 41.9137 56.4149Z" fill="#E1EE86"/>
<path d="M48.0268 53.5173C48.0129 53.1024 47.9922 52.6875 47.9715 52.2795C48.2619 52.2933 48.5524 52.3002 48.8359 52.314C49.1263 52.3209 49.4098 52.3278 49.7003 52.3278C49.9907 52.3278 50.2812 52.3209 50.5647 52.314C50.8482 52.3071 51.1387 52.2933 51.4291 52.2795C51.4084 52.3763 51.4014 52.4731 51.4014 52.5699C51.4014 52.6667 51.4084 52.7635 51.4291 52.8603C51.2217 52.8465 51.0349 52.8327 50.862 52.8188C50.6891 52.805 50.5093 52.7912 50.3226 52.7773C50.1359 52.7635 49.9216 52.7497 49.7003 52.7428C49.4721 52.7359 49.2024 52.7289 48.8842 52.7289C48.8773 52.9364 48.8704 53.13 48.8566 53.3168C48.8427 53.5035 48.8428 53.7178 48.8428 53.953C48.8428 54.2019 48.8427 54.4509 48.8496 54.686C48.8496 54.9211 48.8566 55.1078 48.8566 55.2253C49.1401 55.2253 49.3959 55.2254 49.6242 55.2185C49.8524 55.2116 50.0598 55.2046 50.2465 55.1908C50.4333 55.1839 50.6061 55.1701 50.7652 55.1631C50.9242 55.1562 51.0764 55.1424 51.2147 55.1286C51.194 55.2254 51.187 55.3291 51.187 55.4259C51.187 55.5227 51.194 55.6195 51.2147 55.7164C51.0487 55.6956 50.8551 55.6818 50.6269 55.6679C50.3987 55.6541 50.1844 55.6472 49.9562 55.6403C49.728 55.6334 49.5274 55.6334 49.3268 55.6334C49.1263 55.6334 48.9741 55.6264 48.8566 55.6264C48.8566 55.6818 48.8566 55.744 48.8496 55.8132C48.8496 55.8823 48.8428 55.9653 48.8428 56.069V56.4494V57.0303C48.8428 57.3968 48.8427 57.7011 48.8496 57.9431C48.8496 58.1851 48.8566 58.3649 48.8635 58.4825C49.0779 58.4825 49.2991 58.4825 49.5412 58.4825C49.7832 58.4825 50.0253 58.4755 50.2604 58.4686C50.4955 58.4617 50.7168 58.4479 50.9312 58.4271C51.1386 58.4133 51.3254 58.3857 51.4775 58.3511C51.4637 58.3995 51.4567 58.4479 51.4498 58.5032C51.4498 58.5586 51.4429 58.6069 51.4429 58.6554C51.4429 58.7591 51.4498 58.8421 51.4706 58.9043C51.1801 58.8905 50.8897 58.8836 50.6062 58.8836C50.3157 58.8836 50.0253 58.8836 49.7279 58.8836C49.4305 58.8836 49.1401 58.8836 48.8496 58.8836C48.5592 58.8836 48.2688 58.8905 47.9715 58.9043C47.9922 58.4894 48.006 58.0814 48.0268 57.6734C48.0475 57.2654 48.0544 56.8436 48.0544 56.4217V54.7551C48.0544 54.3471 48.0406 53.9253 48.0268 53.5173Z" fill="#E1EE86"/>
<path d="M56.1937 56.2074C56.1315 56.0967 56.0347 55.9377 55.9102 55.7302C55.7858 55.5227 55.6475 55.2876 55.4953 55.0317C55.3432 54.7759 55.1841 54.5062 55.0181 54.2295C54.8522 53.946 54.6932 53.6833 54.541 53.4274C54.3889 53.1715 54.2505 52.9433 54.133 52.7428C54.0085 52.5422 53.9186 52.3832 53.8495 52.2795C53.9394 52.2933 54.0292 52.3002 54.1191 52.314C54.209 52.321 54.292 52.3278 54.3819 52.3278C54.4718 52.3278 54.5617 52.321 54.6447 52.314C54.7346 52.3071 54.8176 52.2933 54.9075 52.2795C55.1979 52.8396 55.4953 53.3928 55.7926 53.9322C56.09 54.4716 56.4081 55.0387 56.747 55.6265C56.8922 55.3913 57.0513 55.1355 57.2103 54.8589C57.3694 54.5823 57.5353 54.2987 57.6944 54.0083C57.8534 53.7179 58.0125 53.4274 58.1577 53.13C58.3029 52.8396 58.4481 52.5492 58.5726 52.2725C58.7317 52.3071 58.8631 52.321 58.953 52.321C59.0429 52.321 59.1673 52.3071 59.3333 52.2725C59.0221 52.7428 58.7455 53.1715 58.5035 53.5519C58.2614 53.9322 58.0401 54.278 57.8534 54.5892C57.6667 54.9003 57.5007 55.177 57.3624 55.4259C57.2241 55.6749 57.0996 55.8961 56.9959 56.0967C56.9959 56.3387 56.9959 56.5877 57.0028 56.8643C57.0028 57.134 57.0098 57.4037 57.0167 57.6665C57.0236 57.9293 57.0305 58.1713 57.0444 58.3926C57.0582 58.6139 57.0651 58.7937 57.0789 58.932C56.9337 58.9182 56.7746 58.9112 56.6018 58.9112C56.4358 58.9112 56.2767 58.9182 56.1246 58.932C56.1661 58.6001 56.1868 58.192 56.1937 57.7149C56.1937 57.2308 56.1937 56.7329 56.1937 56.2074Z" fill="#E1EE86"/>
<path d="M17.8484 64.8587L11.1475 80.2106C10.7187 81.2134 10.5113 82.1677 10.5113 83.0321C10.5113 85.9089 12.7587 87.8867 16.4653 87.8867H22.5301V89H0V87.8867H1.97777C5.07582 87.8867 6.92914 84.4221 8.78245 80.2106L16.7212 61.892M43.5526 0H53.1095V1.48681C53.1095 3.96249 53.6143 7.17811 54.2229 8.6649L83.4331 80.2106C85.9088 86.1509 86.6488 87.8867 90.7357 87.8867H91.7246V89H68.0812V87.8867H77.6105V87.6377C75.9992 87.0222 74.6369 83.9242 73.7725 81.8219L66.8641 64.8656" fill="#E1EE86"/>
</svg>
